<?xml version="1.0" encoding="UTF-8"?>
<svg id="Ebene_1" xmlns="http://www.w3.org/2000/svg" version="1.1" viewBox="0 0 280 82.5">
    <path d="M81.792,34.193c-.651-3.787-1.809-7.413-3.491-10.867-5.363-11.014-15.111-18.966-26.982-22.015-2.538-.652-5.118-1.041-7.735-1.182-.423-.023-.847-.054-1.27-.081h-2.225c-.087.012-.175.029-.263.036-1.36.112-2.725.185-4.08.343-2.472.29-4.888.854-7.252,1.629-7.371,2.419-13.604,6.561-18.628,12.469C3.813,21.643.566,29.904.055,39.234c-.125,2.273-.032,4.542.229,6.805.268,2.322.723,4.605,1.389,6.845,2.178,7.314,6.054,13.587,11.696,18.723,7.646,6.959,16.678,10.548,27.013,10.832,2.96.081,5.895-.193,8.801-.765,4.46-.877,8.677-2.42,12.589-4.73,9.481-5.598,15.828-13.676,19.005-24.224.624-2.071,1.06-4.188,1.293-6.34.135-1.247.201-2.502.3-3.754.007-.087.024-.174.036-.26v-2.225c-.013-.114-.035-.228-.038-.343-.059-1.882-.257-3.749-.576-5.604ZM41.05,81.519C18.884,81.439.875,63.397.935,41.136.995,18.943,19.06.929,41.344.981c22.121.051,40.122,18.088,40.122,40.273.016,22.262-18.104,40.345-40.416,40.265ZM41.198,10.951c-16.705-.059-30.319,13.45-30.293,30.189.026,16.725,13.506,30.175,30.179,30.183,16.653.008,30.196-13.533,30.188-30.183-.02-16.73-13.535-30.131-30.074-30.189ZM41.074,70.389c-16.157-.001-29.248-13.086-29.243-29.28.005-16.17,13.109-29.232,29.274-29.232,16.124,0,29.251,13.127,29.235,29.232-.016,16.204-13.088,29.283-29.265,29.281ZM39.904,61.801c.525-.73,1.569-.738,2.031.019.074.121.135.248.208.383,4.306-.187,8.618-.375,12.946-.563-.024-.087-.04-.152-.06-.217-1.265-3.992-2.531-7.983-3.794-11.976-.033-.104-.072-.147-.194-.155-.314-.021-.636-.033-.935-.118-.922-.262-1.837-.552-2.751-.84-1.183-.374-2.354-.8-3.621-.785-.052,0-.109-.021-.156-.046-.61-.325-1.171-.716-1.612-1.259-.259-.32-.463-.676-.475-1.096-.042-1.565.413-2.949,1.535-4.078.711-.716,1.547-1.26,2.46-1.665,1.308-.582,2.639-1.112,3.963-1.661,1.244-.516,2.468-1.068,3.56-1.873,1.133-.835,1.99-1.882,2.466-3.219.272-.765.407-1.555.423-2.368-.201.609-.568,1.108-1.001,1.564-.824.869-1.788,1.559-2.808,2.174-.02.011-.045.012-.095.024.252-.445.333-.901.335-1.382-.023.005-.033.005-.035.008-.021.036-.041.072-.059.108-.345.72-.845,1.312-1.475,1.798-.63.487-1.334.837-2.077,1.116-1.121.421-2.294.646-3.457.91-.4.091-.8.196-1.185.334-.425.153-.49.313-.426.759.021.147.024.302.005.449-.008.065-.078.142-.14.175-.107.057-.277.052-.332.133-.056.083-.005.238-.002.362.013.479-.132.92-.335,1.344-.128.267-.14.272-.394.125-.126-.073-.197-.054-.293.056-.321.366-.655.721-.986,1.079-.044.048-.097.089-.164.148-.358-.392-.708-.759-1.038-1.145-.138-.161-.268-.244-.473-.15-.159.073-.272.007-.374-.118-.224-.273-.307-.592-.323-.935-.009-.206-.014-.412-.039-.615-.008-.063-.066-.16-.116-.171-.192-.041-.247-.184-.287-.337-.051-.199-.12-.401-.121-.602-.003-.272-.139-.42-.36-.519-.15-.066-.304-.131-.462-.17-.646-.157-1.294-.306-1.942-.452-1.187-.266-2.357-.581-3.44-1.154-1.083-.575-1.96-1.357-2.481-2.492-.008-.018-.029-.031-.06-.064-.002.505.09.959.336,1.412-.063-.025-.089-.031-.111-.045-1.523-.98-3.047-1.962-3.816-3.735.018.207.032.405.052.603.14,1.347.583,2.575,1.438,3.641.77.961,1.754,1.651,2.827,2.228,1.223.657,2.523,1.14,3.809,1.652,1.192.475,2.38.956,3.472,1.642,1.637,1.029,2.658,2.441,2.824,4.416.056.665-.063,1.249-.494,1.767-.403.484-.871.895-1.388,1.251-.068.047-.164.06-.249.071-.427.057-.869.059-1.28.172-1.05.287-2.088.62-3.13.939-.885.271-1.77.545-2.699.626-.451.04-.444.035-.579.465-1.121,3.548-2.245,7.096-3.37,10.643-.13.41-.268.817-.406,1.236.055.007.088.012.122.014,1.468.066,2.936.134,4.403.197,2.709.117,5.418.23,8.128.346q.366.015.529-.33c.009-.018.016-.038.028-.055ZM41.318,49.312c.276-.33.552-.667.875-.949.715-.623,1.553-.618,2.41-.373,1.317.376,2.628.774,3.946,1.146.691.196,1.391.363,2.09.531.119.029.168.079.202.189.976,3.205,1.954,6.409,2.933,9.613.144.472.295.942.442,1.412.024.076.042.154.079.291-.461-.056-.883-.086-1.297-.162-1.347-.246-2.621-.745-3.926-1.137-.976-.293-1.962-.56-2.955-.788-.699-.16-1.416-.166-2.123.01-1.053.262-1.826.882-2.336,1.835-.038.071-.074.144-.137.266-.015-.097-.027-.143-.028-.19-.059-2.285-.116-4.57-.175-6.855-.039-1.489-.083-2.977-.115-4.467-.002-.126.037-.282.115-.375ZM39.57,60.208c-.755-.945-1.762-1.318-2.951-1.211-1.389.125-2.708.559-4.037.947-1.237.36-2.473.724-3.714,1.067-.401.111-.815.183-1.266.132.021-.079.036-.143.054-.207,1.092-3.708,2.187-7.415,3.274-11.124.051-.178.127-.232.306-.243.773-.048,1.505-.291,2.239-.512,1.174-.355,2.343-.728,3.522-1.063.631-.179,1.281-.246,1.928-.03.744.249,1.26.757,1.62,1.437.036.068.044.158.042.238-.061,1.777-.126,3.554-.189,5.331-.047,1.338-.092,2.676-.138,4.014-.025.72-.051,1.44-.078,2.173-.212-.333-.384-.663-.612-.949ZM34.004,19.903c1.166.337,2.331.674,3.569,1.032-.688.7-1.332,1.355-2.007,2.042.985-.3,1.941-.592,2.939-.897-.238.982-.466,1.929-.695,2.877.026.011.052.023.078.035.588-.678,1.176-1.355,1.794-2.066.312,1.264.613,2.478.913,3.692.027,0,.054-.001.081-.002.341-1.176.683-2.351,1.034-3.562.658.656,1.289,1.284,1.919,1.912.023-.017.047-.034.07-.05-.294-.949-.587-1.898-.894-2.888.995.237,1.949.464,2.902.691.01-.026.021-.052.031-.078-.649-.595-1.297-1.19-1.971-1.809,1.234-.301,2.421-.591,3.609-.882-.002-.027-.004-.054-.006-.081-1.155-.33-2.309-.661-3.506-1.003.238-.235.447-.441.655-.648.214-.213.43-.425.64-.641.198-.203.416-.391.593-.613-.015-.019-.031-.037-.046-.056-.95.293-1.9.587-2.896.895.239-.999.467-1.95.695-2.901-.023-.014-.047-.028-.071-.041-.593.672-1.187,1.344-1.807,2.047-.306-1.252-.603-2.464-.9-3.676-.028.001-.056.002-.084.004-.331,1.152-.661,2.305-1.012,3.527-.682-.668-1.322-1.296-1.997-1.956.302.986.594,1.941.896,2.932-.983-.237-1.928-.466-2.872-.694-.014.024-.027.05-.041.074.68.589,1.36,1.178,2.068,1.792-1.264.312-2.477.611-3.691.911.003.027.005.054.008.082ZM40.573,17.653c1.252-.01,2.282,1.014,2.285,2.27.002,1.259-1.016,2.281-2.272,2.282-1.256,0-2.275-1.022-2.274-2.28.001-1.249,1.01-2.262,2.262-2.272ZM20.957,30.044c-.301-.997-.39-2.017-.337-3.053.047-.925.1-1.85.151-2.775.193,2.204,1.268,4.01,2.606,5.69.56.703,1.164,1.371,1.753,2.049.33.38.609.784.821,1.247.789,1.73,2.102,2.975,3.719,3.927,1.312.773,2.732,1.303,4.154,1.826,1.061.39,2.133.756,3.131,1.297.51.276.984.6,1.372,1.038.373.422.603.91.672,1.473-.261-.639-.774-1.035-1.333-1.38-1.062-.655-2.23-1.08-3.381-1.542-1.876-.752-3.767-1.471-5.618-2.281-1.735-.76-3.333-1.766-4.742-3.048-1.364-1.239-2.428-2.681-2.967-4.47ZM58.444,29.704c.83-1.03,1.526-2.146,1.986-3.396.235-.64.395-1.298.477-1.99.018.237.043.474.053.711.039.926.106,1.852.102,2.777-.009,1.992-.728,3.735-1.956,5.279-1.185,1.489-2.678,2.608-4.309,3.558-1.695.988-3.513,1.703-5.333,2.415-1.423.557-2.85,1.106-4.254,1.705-.575.246-1.11.596-1.639.936-.378.242-.675.581-.897.992.07-.217.124-.441.213-.65.244-.574.666-1.001,1.163-1.359.843-.608,1.802-.983,2.759-1.361,1.421-.561,2.856-1.091,4.255-1.702,1.291-.565,2.452-1.348,3.405-2.407.579-.644,1.02-1.373,1.363-2.167.124-.286.282-.568.478-.808.701-.854,1.443-1.675,2.136-2.535ZM43.215,37.771c-.115-.248-.239-.495-.329-.752-.265-.755-.308-1.542-.311-2.334-.002-.651-.346-1.123-.961-1.336-.472-.164-.958-.16-1.445-.106-.308.035-.547.175-.727.444-.071.106-.24.184-.374.204-.557.084-.834.347-.926.935.082-.049.155-.097.231-.138.382-.205.862-.164,1.18.1.323.268.449.694.282,1.12-.114.291-.278.565-.439.834-.176.294-.378.573-.56.863-.054.085-.078.188-.129.316.164-.05.274-.091.387-.116.201-.043.237.018.199.214-.061.314-.128.634-.129.952,0,.262.093.525.145.787.022-.003.044-.007.066-.01.056-.411.125-.817.403-1.148-.011.702.354,1.237.722,1.769.082.118.178.227.28.328.197.196.27.19.439-.036.098-.132.191-.27.267-.415.205-.388.4-.781.599-1.172.029-.057.06-.113.118-.222.109.316.2.578.3.87.321-.6.234-1.215.179-1.828.144.035.268.081.396.095.184.019.217-.048.138-.219ZM40.127,34.2c-.138-.014-.333-.027-.314-.208.01-.092.185-.166.286-.248.186.062.353.061.395.247.026.111-.178.23-.368.21ZM18.135,28.04c-.046-.332-.071-.667-.071-1.012.016.029.037.056.048.086,1.053,3.103,2.94,5.616,5.435,7.7,1.749,1.461,3.703,2.596,5.736,3.604.183.09.362.188.544.282-2.436-.492-4.73-1.302-6.738-2.787-1.447-1.07-2.715-2.317-3.642-3.875-.732-1.232-1.116-2.587-1.312-3.998ZM62.934,28.703c.258-.558.472-1.136.733-1.706-.06.483-.101.969-.183,1.448-.283,1.666-.846,3.22-1.9,4.566-1.734,2.215-3.91,3.84-6.555,4.801-1.027.373-2.09.649-3.137.969l-.029-.088c.267-.137.534-.276.802-.411,1.782-.895,3.499-1.893,5.065-3.137,2.214-1.76,4.012-3.858,5.204-6.442ZM21.103,38.23c-.049-.064-.091-.133-.171-.252.135.042.211.065.286.09,1.7.566,3.426,1.024,5.203,1.28,1.171.169,2.352.182,3.531.218.483.014.964.101,1.445.165.101.014.197.076.313.123-1.528.188-3.016.388-4.509.549-1.064.114-2.135.191-3.194-.064-.159-.038-.321-.085-.465-.158-.948-.48-1.784-1.103-2.437-1.951ZM52.603,39.542c2.529-.016,4.964-.549,7.359-1.311.246-.078.491-.159.737-.239.01.013.02.025.03.038-.124.159-.24.326-.372.477-.601.683-1.319,1.219-2.126,1.632-.582.299-1.226.37-1.863.349-.979-.033-1.957-.11-2.932-.205-1.139-.11-2.274-.258-3.411-.39-.011-.001-.021-.011-.046-.075.279-.07.555-.178.837-.202.594-.049,1.191-.071,1.787-.074ZM51.873,42.136c-1.44-.292-2.693-.981-3.836-1.978.429.073.805.154,1.185.197.926.105,1.855.193,2.783.285,1.044.104,2.093.17,3.109.455.268.075.534.18.778.313.172.094.305.257.456.389-.014.029-.029.058-.043.086-1.459.37-2.938.555-4.432.252ZM22.517,37.617c-1.664-.88-2.966-2.135-3.749-3.878-.075-.167-.131-.343-.16-.542.103.089.208.177.31.268,1.277,1.139,2.595,2.224,4.03,3.162,1.182.773,2.417,1.438,3.805,1.764.586.138,1.183.23,1.773.356.184.04.36.121.539.183-.004.019-.009.039-.013.059-2.267-.028-4.493-.291-6.535-1.371ZM33.59,40.159c-1.077.996-2.323,1.679-3.753,1.974-1.505.311-2.995.128-4.484-.253.1-.258.272-.42.482-.495.481-.172.966-.371,1.466-.444,1.131-.165,2.274-.252,3.41-.389.938-.113,1.872-.253,2.808-.382.024-.003.048-.008.072-.012ZM63.073,33.191c.025.013.05.026.075.039-.213.433-.394.887-.646,1.296-1.031,1.681-2.507,2.835-4.333,3.545-1.777.691-3.638.9-5.547.864.126-.05.247-.119.377-.147.516-.111,1.034-.21,1.551-.312,1.352-.266,2.573-.847,3.735-1.566,1.658-1.027,3.157-2.26,4.605-3.559.06-.054.122-.107.184-.161ZM23.302,57.982c1.247-2.705,2.497-5.409,3.745-8.114.775-1.679,1.549-3.357,2.323-5.036.066-.143.122-.289.293-.24.269-.003.302.067.188.314-1.114,2.412-2.229,4.825-3.342,7.237-.93,2.014-1.858,4.03-2.787,6.045-.091.198-.157.217-.373.119-.191-.086-.098-.212-.046-.324ZM51.834,44.961c-.094-.203-.047-.281.177-.28.158-.024.242.081.313.233,1.108,2.386,2.219,4.77,3.329,7.154.908,1.95,1.816,3.899,2.722,5.85.105.225.078.269-.134.358-.149.062-.211-.001-.269-.125-.352-.758-.708-1.515-1.061-2.272-1.191-2.559-2.381-5.117-3.572-7.676-.503-1.08-1.005-2.161-1.506-3.242ZM62.473,47.472c1.223,1.619,2.446,3.239,3.668,4.859.048.064.085.136.148.237-.09.075-.161.166-.253.197-.056.018-.171-.037-.214-.093-.791-1.035-1.576-2.074-2.361-3.113-1.608-2.128-3.214-4.257-4.821-6.385-.165-.218-.153-.279.047-.404.146-.091.219-.021.303.09,1.16,1.539,2.321,3.075,3.483,4.612ZM20.238,47.035c-1.337,1.766-2.674,3.532-4.01,5.299-.094.124-.17.226-.347.101-.156-.11-.169-.204-.056-.351.505-.658,1.005-1.321,1.506-1.982,1.726-2.28,3.451-4.561,5.177-6.841.141-.186.277-.376.428-.553.039-.046.142-.09.186-.069.097.046.174.132.27.21-.064.096-.102.16-.147.218-1.002,1.323-2.005,2.645-3.007,3.968ZM48.899,20.398c-.241-.063-.296-.177-.182-.402.023-.044.088-.068.12-.091.392.104.756.2,1.12.296,3.304.87,6.608,1.738,9.91,2.612.112.03.314-.003.276.218-.027.155-.249.261-.42.217-1.244-.327-2.489-.656-3.733-.983-2.364-.622-4.727-1.245-7.091-1.867ZM22.282,23.189c-.04-.058-.116-.141-.099-.178.026-.06.111-.11.181-.131.558-.165,1.118-.323,1.677-.482,2.734-.774,5.467-1.548,8.2-2.322.259-.073.343-.011.342.315-.048.03-.118.097-.201.121-.743.215-1.489.421-2.232.632-2.49.707-4.978,1.415-7.466,2.124-.154.044-.295.073-.402-.081ZM47.145,23.171c.102.065.174.102.236.153.916.743,1.829,1.489,2.744,2.233,1.511,1.228,3.022,2.456,4.534,3.684.037.03.072.063.111.091.107.08.164.169.058.291-.104.118-.206.194-.364.064-.945-.773-1.893-1.541-2.84-2.31-1.516-1.232-3.034-2.463-4.546-3.7-.066-.054-.131-.171-.118-.244.016-.09.114-.166.186-.261ZM50.485,32.372c-1.762-2.337-3.526-4.671-5.285-7.01-.046-.06-.082-.179-.053-.233.044-.082.149-.132.303-.256.051.087.092.175.15.252.709.942,1.421,1.881,2.131,2.822,1.044,1.384,2.086,2.77,3.136,4.15.116.153.104.235-.046.347-.157.118-.239.056-.335-.072ZM36.157,45.293c-.153-.128-.334-.125-.504-.051-.182.078-.256.247-.205.424.04.141.123.298.235.387.442.352,1.171.295,1.61-.118.5-.47.607-1.058.445-1.699-.214-.843-1.246-1.214-1.965-.718-.33.228-.485.671-.361,1.034.115.335.426.523.856.495.182-.013.361-.066.557-.103-.009.369-.036.735-.19,1.078-.027.061-.068.142-.121.159-.095.031-.208.042-.303.018-.032-.008-.046-.15-.039-.228.006-.072.048-.141.076-.211.07-.176.063-.34-.09-.468ZM36.325,44.608c-.123-.334-.159-.683-.061-1.029.025-.088.128-.208.203-.214.073-.006.197.1.228.183.164.423.128.871.139,1.308-.277.053-.421-.011-.508-.248ZM45.49,30.238c.639,1.372,1.278,2.744,1.917,4.117.093.199.047.293-.138.294-.147-.014-.264-.044-.34-.207-1.2-2.592-2.407-5.18-3.615-7.769-.06-.129-.061-.218.088-.277.144-.057.259-.099.349.096.575,1.251,1.159,2.498,1.74,3.746ZM29.015,27.626c1.632-1.332,3.263-2.665,4.898-3.993.061-.049.182-.101.229-.073.085.05.134.16.21.259-.063.073-.103.136-.157.18-1.131.926-2.264,1.849-3.396,2.774-1.031.842-2.061,1.685-3.093,2.526-.115.094-.221.248-.4.085-.155-.141-.16-.229.004-.363.568-.465,1.136-.93,1.705-1.394ZM36.466,25.608c-1.666,2.202-3.334,4.403-5,6.606-.094.124-.187.195-.342.09-.169-.114-.182-.178-.055-.346.621-.819,1.241-1.639,1.861-2.459,1.051-1.387,2.102-2.775,3.154-4.162.145-.191.249-.195.408-.018.03.034.044.08.072.131-.035.055-.062.109-.098.157ZM34.442,34.376c-.201-.088-.152-.201-.085-.344.551-1.186,1.1-2.373,1.648-3.561.602-1.305,1.202-2.612,1.807-3.916.037-.079.116-.139.152-.18.302.028.372.146.27.366-1.052,2.282-2.105,4.564-3.158,6.846-.098.211-.204.419-.292.634-.069.169-.15.239-.342.155ZM46.013,46.082l.002-.002s0,0-.002.001l.004-.004c-.284-.16-.341-.425-.322-.742-.078-.004-.149-.008-.277-.014.031.308.06.6.09.901h-1.065c-.013-.358.111-.643.424-.889h-1.573c.861-.444,1.073-1.108.852-1.962h1.189c.188.652-.222,1.423-1.017,1.881.415.013.821.112,1.111-.347.008.154.013.247.018.345.144.019.257.04.36-.108.136-.194.478-.203.647-.048.176.161.191.447.017.629-.079.082-.189.132-.281.202-.061.046-.116.101-.173.152.01.007.026.009.036.015-.014-.004-.027-.007-.041-.011ZM46.053,46.093c.187.06.372.126.569.02.322-.174.496-.675.357-1.048-.115-.31-.442-.451-.842-.361-.073.016-.144.038-.227.061v-1.391c.184.208.38.151.585.104.292-.066.588-.145.884-.15.378-.007.536.193.537.572,0,.17,0,.34,0,.551-.389-.361-.826-.265-1.252-.224-.338.033-.446.005-.706-.243v.667c.327-.043.656-.11.987-.122.191-.006.4.044.575.124.535.244.625.972.182,1.358-.375.327-1.218.361-1.65.08ZM18.183,37.077c-1.621,1.323-3.241,2.647-4.862,3.969-.046.038-.101.064-.185.117-.069-.086-.155-.154-.18-.24-.019-.065.015-.182.067-.227.337-.292.684-.572,1.03-.854,1.238-1.011,2.477-2.021,3.715-3.031.042-.035.087-.067.128-.103.099-.089.193-.163.307-.016.129.165.127.264-.021.385ZM63.495,36.952c.073-.115.112-.244.194-.282.056-.026.183.058.257.118,1.428,1.156,2.852,2.316,4.278,3.475.172.14.173.205.037.391-.126.173-.225.058-.322-.021-.985-.799-1.968-1.6-2.952-2.4-.441-.359-.884-.716-1.323-1.079-.063-.052-.106-.126-.169-.203ZM33.882,46.227c.191-.389.111-.798.111-1.196,0-.388.065-.784-.06-1.187.321-.15.675-.314,1.061-.495.005.09.012.16.012.23,0,.645-.005,1.291.003,1.936.003.235.039.47.06.712h-1.187ZM38.529,32.463c-.054-.005-.102-.07-.144-.1.096-.361.181-.678.266-.995.299-1.116.598-2.232.896-3.348.032-.119.057-.225.222-.205.232.028.286.093.224.325-.359,1.348-.719,2.695-1.08,4.043-.054.2-.182.3-.384.281ZM42.529,31.786c-.384-1.271-.769-2.541-1.159-3.81-.041-.132-.047-.23.112-.267.144-.034.276-.068.337.14.224.762.46,1.519.692,2.278.16.524.321,1.047.479,1.571.071.236.027.296-.223.29-.141.026-.197-.068-.238-.201ZM39.748,54.232c-.2-.137-.393-.298-.61-.414-.522-.279-1.092-.229-1.653-.188-1.798.129-3.553.508-5.299.936-.058.014-.117.025-.204.044.19-.326.346-.597.739-.708,1.394-.394,2.791-.769,4.233-.92.568-.06,1.147-.021,1.722-.021.073,0,.15.025.218.056.747.34.936.43.854,1.215ZM39.629,56.103c-.57-.707-1.33-.678-2.092-.62-1.813.138-3.574.554-5.322,1.028-.071.02-.142.038-.238.063.192-.349.382-.615.785-.739,1.391-.428,2.787-.834,4.236-.997.547-.062,1.106-.022,1.66-.025.053,0,.108.019.159.04.711.287.913.473.812,1.25ZM39.826,52.509c-.072-.061-.137-.118-.204-.172-.463-.366-.998-.518-1.576-.478-.785.055-1.568.142-2.352.215-.039.004-.079,0-.131,0v-.662c.568-.075,1.134-.179,1.704-.215.495-.031.997-.006,1.492.038.208.019.416.133.606.238.486.269.562.454.461,1.036ZM39.549,57.849c-.012.087-.002.178-.002.308-.056-.068-.092-.109-.127-.151-.264-.317-.622-.46-1.015-.474-.948-.034-1.894.009-2.822.234-.133.032-.261.079-.408.125.047-.443.242-.726.69-.834.917-.22,1.84-.292,2.775-.182.139.016.28.076.404.143.328.176.562.416.504.832ZM34.182,52.349c-.431.104-.842.203-1.249.302.179-.632.715-.73,1.249-.855v.553ZM43.612,51.856c-.627-.007-1.183.199-1.674.684,0-.235-.013-.414.006-.59.008-.078.064-.165.124-.22.453-.414,1-.586,1.605-.581,1.021.009,2.022.18,3.009.427.771.193,1.525.448,2.296.641.41.103.64.358.817.737-.098-.021-.181-.036-.262-.058-1.528-.424-3.071-.776-4.648-.962-.422-.05-.848-.074-1.273-.079ZM49.644,56.296c.041.085.103.161.172.266-.753-.186-1.474-.375-2.201-.54-1.238-.282-2.485-.509-3.757-.56-.646-.026-1.245.073-1.688.625-.106-.595.021-.904.541-1.12.295-.123.633-.191.953-.197,1.175-.021,2.317.225,3.447.517.663.171,1.312.393,1.972.577.253.07.445.192.561.432ZM43.446,53.611c-.526.012-.967.223-1.413.674,0-.219-.01-.404.005-.586.006-.073.053-.155.105-.21.313-.336.71-.532,1.159-.56,1.082-.068,2.148.037,3.19.363.413.129.641.417.828.786-.347-.08-.686-.167-1.029-.234-.939-.183-1.889-.255-2.845-.233ZM45.453,57.017c.227.042.453.091.679.137v.664c-.231-.038-.449-.085-.67-.11-.585-.067-1.17-.143-1.757-.181-.57-.037-1.09.096-1.445.62-.103-.798.286-1.254,1.109-1.313.703-.05,1.395.056,2.083.184ZM48.941,57.916c.431.134.854.296,1.288.42.247.071.427.195.543.423.045.089.11.169.171.264-1.103-.291-2.173-.577-3.247-.852-.158-.04-.215-.105-.198-.264.013-.128.002-.258.002-.418.499.147.972.281,1.441.427ZM17.579,12.625l-.104-.139,1.381-1.03.103.139-.424.316,1.911,2.562c.211.283.438.449.681.498.243.049.49-.02.742-.208.294-.219.448-.477.465-.773.016-.295-.107-.62-.369-.971l-1.757-2.356-.418.312-.104-.138,1.003-.749.104.139-.419.313,1.77,2.372c.314.421.446.808.399,1.161-.048.353-.279.684-.692.992-.355.265-.702.383-1.042.354-.339-.029-.627-.203-.864-.52l-1.936-2.595-.429.321ZM21.485,9.778l-.084-.151,1.158-.646,3.291,1.902-1.507-2.7-.45.252-.085-.151,1.105-.617.084.151-.462.258,2.195,3.932-.157.088-4.418-2.598,2.017,3.613.45-.251.084.151-1.087.607-.084-.151.447-.25-2.056-3.684-.441.246ZM25.579,7.588l-.069-.159,1.707-.744.069.159-.54.236,1.686,3.867.541-.236.069.159-1.707.744-.069-.159.529-.23-1.686-3.867-.529.231ZM27.673,6.64l-.054-.164,1.656-.544.054.164-.509.167,2.132,2.84.014-3.544-.596.196-.054-.164,1.24-.407.054.164-.455.149-.012,4.744-.145.048-2.846-3.806-.48.158ZM32.175,5.216l-.034-.17,3.323-.658.213,1.075-.143.028c-.119-.332-.272-.547-.46-.645-.188-.099-.48-.109-.877-.031l-.838.166.375,1.896.136-.027c.291-.058.487-.151.588-.28.101-.13.137-.327.107-.594l.14-.028.333,1.683-.143.028c-.075-.296-.193-.49-.354-.582-.161-.091-.407-.104-.737-.039l-.037.008.411,2.072.948-.188c.37-.073.627-.206.77-.399.143-.193.216-.508.219-.944l.15-.03.182,1.288-3.42.677-.034-.17.506-.1-.819-4.138-.506.1ZM37.048,4.358l.295,4.208-.541.038.012.172,1.739-.122-.012-.172-.528.037-.155-2.212.402-.028c.156-.011.303.006.44.05.138.045.257.115.357.21.138.131.227.373.265.726.004.02.006.036.007.047.057.49.164.841.322,1.051.158.211.381.306.669.286.095-.007.194-.026.298-.058.105-.032.211-.076.321-.131l-.012-.172c-.061.034-.12.06-.178.079-.058.019-.114.03-.168.034-.09.006-.164-.008-.222-.041-.058-.033-.105-.09-.14-.169-.043-.09-.075-.259-.097-.508-.022-.248-.048-.438-.077-.567-.056-.248-.194-.451-.413-.61-.22-.159-.497-.256-.833-.292l-.004-.054c.427-.05.757-.181.991-.391.233-.21.339-.473.317-.789-.022-.318-.177-.555-.464-.712-.288-.157-.685-.217-1.193-.182l-1.925.135.012.172.514-.036ZM38.313,4.27c.392-.027.659.017.8.133.14.116.222.34.246.672.025.355-.037.606-.187.754-.149.148-.457.239-.924.271l-.402.028-.128-1.817.596-.042ZM41.196,8.55l-.118-.005.052-1.199.132.005c.094.343.253.616.478.821.226.205.485.314.778.327.327.014.608-.077.842-.272.234-.195.357-.441.37-.736.015-.347-.314-.643-.986-.887-.053-.018-.094-.032-.121-.043-.574-.21-.953-.418-1.137-.622-.183-.203-.268-.472-.253-.807.016-.375.152-.675.409-.9.256-.225.582-.329.978-.312.293.013.564.105.813.278.046.033.074.05.083.051.013-.002.026-.005.036-.01.011-.005.02-.013.03-.024l.14-.158.145.006-.046,1.043-.125-.005c-.097-.326-.241-.572-.434-.74-.193-.168-.434-.258-.723-.271-.262-.011-.486.056-.672.204-.186.147-.284.332-.294.555-.008.185.054.34.187.464.133.124.354.234.665.33.045.013.113.034.204.063.518.163.859.312,1.023.449.144.121.251.27.322.445.071.175.101.371.092.588-.021.472-.177.842-.468,1.11-.291.268-.674.391-1.148.371-.332-.014-.632-.119-.9-.313-.044-.032-.069-.048-.076-.048-.007,0-.015.003-.026.009-.01.007-.021.015-.033.026l-.216.207ZM46.002,8.915l-1.848-.228.021-.172.572.071.517-4.187-.572-.071.021-.171,1.848.228-.021.171-.585-.072-.517,4.187.585.072-.021.172ZM46.857,5.742l-.149-.032.334-1.281,3.443.728-.224,1.304-.149-.032c.027-.422-.024-.736-.154-.942-.129-.206-.364-.346-.702-.417-.058-.012-.099-.021-.127-.025-.027-.005-.05-.008-.071-.01l-.875,4.123.551.117-.036.169-1.785-.378.036-.169.564.119.873-4.124c-.028-.008-.058-.016-.089-.024-.031-.008-.076-.018-.136-.03-.314-.067-.566-.036-.754.091-.189.127-.372.398-.55.811ZM49.273,9.353l-.054.164,1.276.419.053-.164-.547-.18.917-1.24,1.254.411-.022,1.535-.535-.176-.054.164,1.649.542.054-.164-.454-.149.027-4.735-.165-.054-2.885,3.796-.515-.169ZM52.201,6.63l-.024,1.92-1.134-.373,1.158-1.548ZM55.315,11.824l-1.661-.755.072-.157.524.238,1.745-3.837c-.026-.014-.053-.028-.081-.042-.028-.014-.07-.034-.126-.059-.292-.133-.544-.157-.756-.073-.212.083-.45.307-.712.673l-.139-.064.603-1.179,3.204,1.457-.501,1.225-.139-.063c.118-.407.135-.724.054-.954-.082-.23-.28-.416-.595-.559-.054-.024-.093-.042-.118-.052-.025-.01-.048-.019-.067-.025l-1.748,3.836.513.233-.072.157ZM58.924,8.744l-.442-.266.089-.148,2.903,1.747-.565.938-.125-.075c.135-.325.166-.587.093-.787-.072-.199-.282-.403-.629-.612l-.732-.441-.997,1.656.119.072c.254.153.462.215.624.187.162-.028.321-.151.478-.368l.122.073-.884,1.47-.125-.076c.144-.269.187-.492.129-.668-.058-.176-.231-.351-.52-.525l-.032-.019-1.089,1.81.828.498c.323.195.603.268.839.222.235-.047.501-.231.797-.551l.131.079-.731,1.076-2.987-1.797.089-.148.442.266,2.175-3.615ZM59.463,13.975l-.106.136,1.057.828.107-.136-.454-.356,1.285-.854,1.038.814-.543,1.435-.443-.347-.107.136,1.367,1.071.107-.137-.376-.295,1.637-4.443-.136-.107-4.005,2.587-.427-.335ZM63.143,12.413l-.676,1.797-.939-.736,1.615-1.061ZM7.614,26.772c.166.187.381.342.647.464.449.207.852.243,1.209.106.357-.136.642-.434.854-.892l.484-1.048-.109-.05-.15.324-2.649-1.224.149-.324-.109-.05-.503,1.09c-.088.19-.144.362-.17.517-.025.154-.022.301.01.44.058.244.17.459.336.646ZM7.557,25.198l.143-.311,2.649,1.223-.125.271c-.083.18-.169.32-.258.419-.089.099-.19.17-.303.213-.128.046-.274.053-.439.021-.164-.032-.419-.127-.762-.287-.391-.18-.649-.325-.774-.433-.126-.109-.209-.235-.25-.377-.027-.099-.031-.211-.011-.335.02-.124.063-.259.13-.404ZM6.577,29.754l-.828-.351.817-2.268.113.041-.121.335,2.745.989.121-.335.112.04-.794,2.204-.713-.257.034-.095c.239.048.421.033.546-.043.126-.076.236-.246.33-.509l.201-.556-1.258-.453-.033.091c-.07.192-.084.342-.043.448.041.106.146.198.314.275l-.033.093-1.117-.402.034-.095c.202.061.359.06.471-.002.111-.063.207-.204.286-.423l.009-.024-1.375-.496-.226.629c-.088.246-.101.445-.038.598.064.153.225.309.482.466l-.036.099ZM4.577,34.53l-.117-.026.254-1.15.117.026-.076.346,2.808.619.004-.018-2.728-1.536.026-.117,3.108-.186.008-.037-2.808-.619-.077.348-.117-.025.183-.832.117.026-.075.339,2.849.628.075-.339.117.026-.205.93-2.424.147,2.128,1.197-.201.907-.117-.026.08-.362-2.849-.629-.08.362ZM4.959,37.686l-.886-.159.297-2.393.119.014-.044.354,2.896.36.044-.354.119.015-.289,2.325-.752-.093.013-.1c.243-.006.417-.06.523-.162.106-.102.176-.292.21-.57l.073-.586-1.327-.165-.012.095c-.025.204-.006.352.057.447.063.094.185.161.366.199l-.012.098-1.178-.146.012-.1c.211.015.364-.021.459-.106.095-.086.157-.245.185-.476l.003-.025-1.45-.18-.082.663c-.032.259,0,.456.096.593.096.135.287.251.572.348l-.013.105ZM4.184,40.362c.148.202.334.358.559.467.225.109.484.169.776.18.494.018.879-.104,1.157-.367.278-.263.426-.648.445-1.152l.043-1.154-.12-.004-.013.356-2.916-.109.013-.356-.119-.005-.045,1.2c-.008.209.006.39.042.543.035.152.095.286.178.402ZM4.097,39.056l2.916.109-.011.298c-.007.199-.033.361-.077.487-.044.126-.11.23-.197.313-.1.092-.233.154-.397.188-.164.034-.436.043-.814.029-.43-.016-.724-.05-.882-.102-.157-.052-.283-.136-.376-.252-.063-.081-.109-.182-.139-.305-.03-.122-.042-.263-.036-.422l.013-.342ZM4.087,42.754l-.12.004-.038-1.287.12-.004.012.398,2.916-.087-.012-.399.12-.003.038,1.287-.12.004-.012-.408-2.916.087.012.408ZM5.042,45.549l-.841.079-.009-.101.13-.163c-.083-.088-.149-.194-.198-.317-.049-.123-.08-.264-.095-.421-.037-.393.082-.727.357-1.004.275-.277.646-.438,1.115-.481.226-.021.44-.009.644.036.204.045.39.123.559.232.17.11.31.251.417.423.108.172.171.353.189.543.012.129.003.251-.027.366-.03.115-.085.232-.162.351l.174.144.007.07-.794.074-.009-.1c.246-.089.428-.211.545-.366.118-.156.166-.338.147-.546-.027-.291-.177-.49-.449-.597-.272-.107-.703-.133-1.292-.078-.278.026-.494.059-.645.1-.151.04-.273.095-.366.163-.101.074-.178.169-.23.285-.052.116-.072.239-.06.366.021.227.107.413.257.558.15.145.36.243.629.294l.009.091ZM4.612,47.48l-.118.018-.202-1.272.118-.018.063.394,2.882-.456-.063-.394.119-.019.201,1.271-.118.019-.064-.403-2.881.457.064.403ZM8.065,49.68l-3.036.695-.028-.122,2.581-2.429-2.789.638.08.348-.117.027-.192-.839.117-.026.079.345,2.844-.651-.078-.341.116-.027.205.894-1.9,1.816,2.084-.477-.079-.348.117-.026.195.852-.117.027-.081-.357ZM6.644,51.609l.281.868-.867.613-.12-.37-.114.037.37,1.142.113-.037-.102-.314,2.656-1.916-.037-.114-3.297-.063-.116-.357-.114.037.286.883.114-.037-.123-.379,1.067.007ZM8.128,51.623l-1.082.769-.255-.785,1.337.016ZM6.803,54.266c.073.035.127.099.163.19.042.106.038.208-.01.305-.048.097-.13.168-.245.213-.137.053-.291.061-.463.021-.171-.039-.343-.122-.515-.248l.062-.08c.154.094.301.157.441.19.14.032.254.031.345-.004.042-.017.073-.035.092-.055.019-.02.025-.04.018-.058-.002-.007-.038-.019-.107-.039-.069-.02-.118-.067-.147-.141-.024-.063-.024-.121,0-.177s.069-.096.135-.122c.083-.032.161-.031.233.004ZM7.848,57.386l.168.335-.107.054-.542-1.082.107-.054.16.319,2.609-1.306-.16-.319.107-.053,1.051,2.099-.751.376-.045-.09c.232-.141.369-.287.41-.438.041-.151-.003-.357-.134-.619l-.265-.528-1.216.609.02.04c.092.184.193.301.302.349.109.047.247.037.414-.031l.047.089-1.053.527-.045-.09c.167-.103.27-.212.309-.328.039-.116.018-.255-.062-.415-.005-.01-.013-.023-.024-.04-.011-.017-.019-.031-.025-.042l-1.275.638ZM12.011,58.517l-.061-.103-3.228.671-.192-.322-.103.061.476.798.103-.061-.204-.343,1.042-.231.467.784-.708.791-.199-.335-.103.061.615,1.031.103-.062-.17-.284,2.163-2.458ZM9.986,58.954l1.307-.282-.884.991-.423-.709ZM12.007,63.229c.138-.104.239-.188.305-.253.125-.123.194-.278.207-.465.014-.187-.031-.386-.132-.596l.031-.022c.185.232.383.379.591.439.209.061.401.027.579-.101.179-.129.261-.307.248-.533-.013-.226-.122-.482-.328-.767l-.782-1.082-.097.07.209.289-2.365,1.709-.22-.304-.097.07.706.977.097-.07-.214-.297,1.243-.898.163.226c.063.087.107.18.131.277.024.098.027.193.007.286-.027.129-.136.269-.33.421-.011.01-.019.017-.025.021-.267.212-.434.403-.5.573-.067.169-.041.335.076.498.039.053.086.104.143.154.057.05.122.096.194.14l.097-.07c-.042-.023-.079-.049-.111-.076-.032-.027-.059-.056-.081-.086-.036-.05-.056-.099-.057-.145-.002-.046.014-.094.048-.143.037-.058.125-.138.264-.242ZM12.253,61.549l-.164-.226,1.021-.737.242.334c.159.22.23.393.214.518-.017.125-.119.255-.305.39-.199.144-.37.199-.511.165-.141-.034-.307-.182-.496-.444ZM14.166,66.52l.245.278-.09.079-.778-.883.09-.079.234.266,2.157-1.902-.013-.014-2.85,1.297-.079-.09,1.683-2.619-.025-.028-2.157,1.902.236.267-.09.079-.563-.638.09-.079.23.261,2.188-1.93-.23-.26.09-.079.63.714-1.312,2.044,2.222-1.011.614.697-.09.079-.245-.278-2.188,1.93ZM17.999,65.911l-.087-.082-2.921,1.531-.273-.257-.082.087.676.637.082-.087-.29-.273.939-.507.664.625-.464.955-.284-.267-.082.087.874.823.082-.087-.241-.227,1.406-2.958ZM16.171,66.887l1.179-.629-.578,1.195-.601-.566ZM19.403,70.227l-.527.659-.078-.063-.027-.207c-.121-.002-.243-.027-.365-.079-.122-.051-.246-.126-.369-.224-.308-.245-.466-.564-.475-.954-.008-.39.134-.769.428-1.137.141-.177.299-.323.473-.438.174-.115.359-.195.556-.24.198-.047.395-.049.594-.008.199.042.373.122.522.241.101.081.183.172.244.274.062.101.108.222.14.36l.224-.025.055.044-.498.623-.079-.063c.107-.239.145-.455.115-.647-.031-.192-.128-.354-.291-.484-.229-.183-.476-.213-.742-.092-.266.121-.584.414-.953.876-.175.218-.3.396-.376.533-.077.137-.122.262-.137.376-.017.124-.002.245.046.363.048.118.122.217.222.297.178.142.372.21.58.203.208-.008.424-.09.648-.248l.072.057ZM20.166,71.647l.334.234-.069.098-1.056-.737.068-.098.327.228,1.671-2.392-.327-.228.068-.098,1.056.738-.069.098-.334-.234-1.671,2.392ZM22.481,69.572l2.003,1.215-.393.648-.086-.052c.095-.225.117-.406.067-.544-.05-.138-.194-.28-.434-.425l-.505-.307-.693,1.143.082.05c.175.106.319.15.431.131.112-.019.222-.103.331-.253l.085.051-.616,1.015-.086-.053c.1-.186.131-.34.091-.462-.04-.122-.159-.243-.358-.364l-.022-.013-.758,1.249.572.347c.223.135.416.187.579.155.163-.032.347-.159.552-.38l.09.055-.508.742-2.062-1.25.062-.102.305.185,1.513-2.495-.305-.185.062-.102ZM24.054,73.564c.101.053.164.133.191.238.027.105.011.213-.047.322-.069.13-.181.236-.336.318-.156.082-.34.132-.552.149l-.005-.101c.178-.03.331-.078.458-.144.127-.066.213-.143.259-.228.021-.04.033-.074.034-.101.001-.028-.007-.046-.025-.056-.006-.003-.041.011-.106.041-.066.03-.134.027-.204-.011-.059-.031-.098-.076-.116-.134-.018-.058-.01-.119.022-.181.042-.079.101-.129.18-.15.078-.02.161-.008.248.038ZM28.68,72.765l-.281.665-.08-.034c.016-.234-.019-.429-.103-.584-.085-.155-.219-.272-.404-.35-.167-.07-.329-.081-.485-.03-.156.051-.264.147-.325.289-.05.118-.046.233.009.346.056.113.173.237.351.374.026.019.065.05.117.09.296.231.481.41.555.537.064.114.098.236.101.366.003.131-.024.265-.082.403-.127.301-.317.503-.571.607-.242.099-.508.085-.794-.027l-.082.194c.024.007.048.014.071.021.023.007.045.014.066.021.125.053.209.126.252.217.043.092.041.194-.006.304-.05.118-.132.193-.244.225-.113.032-.243.017-.39-.045-.079-.034-.162-.083-.248-.148-.086-.066-.191-.159-.316-.282l.145-.137c.067.086.137.161.21.224.073.063.142.108.208.136.092.039.166.051.223.037.056-.014.099-.056.128-.125.025-.059.023-.115-.006-.167-.029-.052-.082-.094-.158-.126-.02-.009-.043-.017-.069-.024-.026-.007-.05-.014-.073-.02l.161-.388c-.163-.088-.314-.189-.419-.347-.021-.031-.034-.047-.038-.049-.004-.002-.011-.002-.019,0-.008.002-.018.005-.028.009l-.19.082-.076-.032.323-.765.084.036c-.021.245.016.461.112.648.096.187.238.32.426.399.209.088.413.097.611.027.199-.07.338-.2.417-.388.093-.221-.048-.492-.426-.813-.03-.025-.053-.044-.068-.056-.321-.275-.517-.501-.587-.677-.07-.176-.06-.371.03-.584.101-.239.262-.401.482-.485.221-.084.457-.073.709.033.187.079.34.205.46.376.022.033.036.05.042.053.009.002.018.003.026.002.008,0,.016-.003.025-.008l.129-.069.093.039ZM30.532,73.561c-.039-.013-.067-.022-.085-.028-.018-.005-.034-.009-.048-.012l-.941,2.759.369.125-.038.113-1.195-.406.038-.113.378.129.939-2.76c-.018-.008-.038-.016-.059-.024-.021-.008-.051-.019-.091-.032-.21-.072-.385-.071-.526.001-.14.072-.288.242-.444.511l-.1-.034.335-.852,2.305.784-.261.877-.1-.034c.053-.288.044-.507-.028-.66-.072-.152-.221-.267-.448-.344ZM31.612,76.926l.394.108-.032.115-1.242-.34.031-.115.385.105.771-2.814-.385-.105.032-.115,1.242.34-.031.116-.394-.108-.771,2.814ZM33.901,74.48l-.642,2.846.398.09-.026.117-1.256-.283.027-.116.389.087.642-2.846-.389-.088.026-.117,1.256.284-.026.117-.398-.09ZM36.492,74.825l.864.135-.018.118-.361-.056-.479,3.078-.123-.019-1.301-3.297-.44,2.827.352.055-.018.118-.851-.132.019-.118.35.055.449-2.883-.345-.054.018-.118.906.141.983,2.438.328-2.113-.352-.054.018-.118ZM37.572,74.977l2.428.175-.031.915-.105-.008c-.021-.291-.086-.502-.194-.631-.108-.129-.282-.202-.52-.22-.041-.003-.07-.005-.089-.005-.019,0-.035,0-.05,0l-.212,2.908.388.028-.008.119-.591-.043v.138c.026-.003.051-.006.076-.008.025-.003.048-.005.071-.006.139,0,.246.035.323.104.077.069.115.166.115.288,0,.131-.047.234-.14.309-.093.075-.221.112-.384.112-.088,0-.185-.014-.292-.041-.107-.027-.244-.073-.409-.139l.081-.187c.097.054.193.096.286.127.094.03.177.045.25.045.102,0,.177-.018.224-.054.047-.036.071-.092.071-.169,0-.066-.024-.117-.072-.154-.048-.037-.114-.056-.199-.056-.022,0-.047.002-.074.005-.027.003-.053.007-.076.01l-.002-.336-.515-.037.009-.119.397.028.21-2.908c-.02-.003-.041-.006-.063-.008-.022-.002-.054-.005-.096-.008-.221-.016-.391.029-.508.134-.117.105-.217.307-.3.607l-.105-.008.108-.909ZM42.611,77.404h.105s-.043.898-.043.898l-2.411.016v-.12s.355-.002.355-.002l-.019-2.918-.356.002v-.119s2.342-.016,2.342-.016l.005.757h-.101c-.038-.24-.114-.406-.229-.497-.115-.092-.312-.137-.592-.135l-.591.004.009,1.337h.096c.205-.002.35-.04.436-.115.086-.075.135-.204.15-.389h.098s.008,1.186.008,1.186h-.101c-.012-.21-.067-.357-.165-.44-.098-.083-.263-.123-.496-.122h-.026l.01,1.461.668-.004c.261-.002.453-.059.574-.172.122-.113.213-.317.272-.613ZM46.374,76.543c.067.111.11.242.127.391.038.324-.028.594-.198.809-.162.205-.4.324-.704.368l.024.209c.024-.006.049-.012.072-.016.024-.005.046-.01.068-.014.135-.016.244.006.326.065.082.059.131.148.145.267.015.127-.019.233-.101.316-.082.084-.203.135-.361.153-.086.01-.182.008-.289-.006-.107-.014-.245-.044-.415-.089l.058-.191c.101.042.198.072.293.091.094.019.177.024.248.016.099-.012.17-.038.212-.078.042-.04.058-.097.049-.172-.007-.063-.036-.11-.087-.142-.051-.031-.117-.042-.2-.032-.022.003-.046.007-.072.013-.026.006-.051.012-.074.018l-.051-.417c-.185.003-.367-.01-.535-.095-.033-.017-.053-.024-.057-.024-.005,0-.01.003-.017.009-.007.005-.013.012-.02.021l-.125.165-.082.01-.096-.825.091-.011c.102.224.24.393.417.508.176.116.365.161.567.138.225-.026.407-.118.545-.278.138-.159.195-.34.172-.543-.028-.239-.285-.404-.771-.497-.039-.007-.067-.012-.087-.016-.415-.081-.697-.18-.845-.299-.148-.119-.235-.294-.262-.523-.03-.258.03-.478.181-.66.15-.182.361-.289.633-.321.202-.023.397.01.586.101.035.018.055.026.062.025.009-.002.017-.006.024-.011.007-.005.012-.011.018-.02l.078-.124.1-.012.083.718-.086.01c-.102-.212-.227-.364-.378-.458-.15-.094-.325-.129-.524-.106-.18.021-.326.092-.437.213-.111.121-.158.258-.14.412.015.127.075.226.179.296.104.07.267.121.49.153.032.004.081.011.147.021.371.054.62.119.747.194.112.067.201.156.269.269ZM48.292,77.53l.021.118-1.269.221-.021-.118.393-.068-.5-2.875-.393.069-.021-.118,1.269-.22.021.118-.402.07.5,2.874.402-.069ZM50.609,73.98c-.018.006-.034.011-.047.016l.768,2.813.375-.103.032.116-1.217.333-.031-.115.385-.105-.77-2.812c-.02.004-.041.008-.062.013-.021.005-.052.013-.093.024-.214.059-.359.157-.435.295-.076.139-.102.363-.081.673l-.102.028-.201-.894,2.348-.642.275.873-.101.028c-.117-.268-.248-.445-.393-.53-.145-.086-.333-.098-.564-.034-.039.011-.068.019-.085.025ZM54.789,74.836l.259.861-2.268.819-.04-.112.336-.121-.992-2.744-.335.121-.041-.113,2.204-.796.257.713-.095.035c-.116-.215-.243-.346-.382-.393-.139-.048-.339-.025-.603.07l-.556.201.454,1.257.09-.033c.192-.069.317-.153.372-.253.056-.099.059-.238.011-.417l.093-.034.403,1.116-.095.034c-.082-.195-.183-.315-.303-.361-.12-.046-.289-.029-.508.05l-.024.009.496,1.374.629-.227c.246-.089.407-.206.484-.353.078-.147.095-.37.052-.668l.099-.036ZM58.389,74.055l.051.108-1.079.505-.051-.108.323-.151-.613-1.311-1.232.577.613,1.311.323-.151.051.108-1.079.505-.051-.108.323-.151-1.237-2.642-.323.151-.051-.108,1.079-.504.051.108-.323.151.566,1.211,1.232-.576-.566-1.211-.323.151-.051-.108,1.079-.505.051.108-.321.151,1.236,2.642.321-.15ZM59.516,70.031l1.581,2.684-.108.063-3.096-1.726,1.452,2.465.307-.181.061.103-.742.437-.061-.103.305-.18-1.481-2.514-.301.178-.061-.103.79-.466,2.306,1.262-1.086-1.843-.307.181-.061-.103.754-.444.061.103-.315.185ZM63.197,69.254c-.134-.186-.289-.341-.466-.463-.177-.123-.367-.209-.57-.259-.196-.047-.379-.057-.549-.027-.17.03-.331.099-.483.209-.159.114-.28.253-.364.418-.084.164-.133.359-.147.582-.011.195.012.387.07.574.059.187.151.368.277.543.131.182.281.336.451.463.17.127.348.218.534.273.207.061.399.077.576.048.176-.029.351-.105.523-.229.167-.119.291-.256.374-.408.083-.152.13-.331.141-.538.013-.199-.013-.401-.076-.606-.064-.205-.161-.398-.291-.579ZM62.98,71.288c-.226.162-.458.194-.696.095-.239-.099-.488-.33-.748-.692-.381-.53-.594-.932-.639-1.205-.044-.273.056-.498.302-.675.246-.177.489-.202.73-.076.24.125.552.455.936.99.263.365.404.678.423.936.019.258-.084.468-.308.629ZM65.811,67.93l.535.712-1.803,1.536-.078-.091.3-.255-1.892-2.221-.288.245-.077-.091.984-.838.078.091-.33.281,1.892,2.221.494-.421c.181-.154.28-.31.297-.467.017-.157-.044-.371-.182-.642l.07-.06ZM67.535,65.272c-.163-.162-.341-.29-.535-.382-.194-.092-.396-.147-.604-.163-.201-.015-.383.005-.546.062-.163.057-.311.152-.443.284-.138.138-.235.295-.292.471-.056.176-.073.375-.051.598.02.195.074.379.163.555.088.175.208.339.361.492.158.158.332.286.52.384.188.098.379.159.571.183.214.027.406.012.576-.045.17-.057.33-.161.48-.311.145-.144.246-.299.303-.462.057-.163.075-.348.052-.554-.02-.199-.078-.394-.174-.586-.095-.192-.223-.366-.381-.525ZM67.649,67.315c-.196.197-.42.265-.672.206-.252-.059-.535-.247-.851-.562-.462-.462-.737-.824-.825-1.086-.088-.263-.025-.501.189-.715.214-.214.45-.279.707-.193.258.085.619.36,1.084.825.319.319.509.604.569.855.061.252-.006.475-.202.671ZM69.975,63.268c.265.221.401.473.409.755.007.282-.115.574-.366.875-.267.32-.594.483-.98.488-.386.005-.767-.149-1.143-.463-.178-.148-.322-.314-.431-.499-.11-.184-.183-.38-.22-.588-.036-.205-.031-.399.015-.58.046-.181.131-.346.256-.495.095-.114.202-.208.321-.281.119-.073.246-.124.382-.153l-.02-.242.043-.052.616.513-.065.078c-.224-.112-.439-.151-.644-.118-.205.034-.38.138-.525.312-.2.239-.248.494-.147.766.101.272.362.582.78.931.407.339.738.533.994.58.257.049.479-.04.666-.264.163-.195.23-.378.201-.547-.029-.169-.16-.351-.393-.545l-.085-.071-.287.344-.092-.077.807-.967.091.076-.184.221ZM71.781,62.273l.097.071-.756,1.042-.097-.07.234-.323-2.362-1.712-.234.323-.097-.07.755-1.043.097.07-.239.331,2.363,1.712.239-.33ZM70.37,59.108l-.315.5,1.131.713.051-.082c.109-.173.155-.316.139-.428-.017-.112-.099-.224-.247-.336l.053-.083,1.004.633-.053.085c-.185-.103-.338-.136-.46-.099-.123.037-.246.155-.37.351l-.014.022,1.236.78.356-.566c.14-.221.195-.413.166-.576-.029-.163-.153-.35-.37-.559l.056-.089.733.521-1.286,2.039-.101-.064.19-.301-2.468-1.556-.19.301-.101-.063,1.25-1.982.641.404-.054.085c-.223-.098-.404-.123-.542-.076-.139.047-.283.189-.432.426ZM76.055,54.174l.111.044-.466,1.172-.111-.044.147-.371-2.709-1.076c-.008.018-.018.037-.027.058-.009.02-.021.05-.037.089-.082.206-.09.381-.025.525.065.143.228.3.488.469l-.039.098-.835-.377.899-2.262.863.305-.039.098c-.284-.068-.504-.069-.66-.005-.156.064-.278.207-.366.43-.015.038-.026.066-.032.083-.006.018-.011.034-.015.047l2.709,1.079.144-.362ZM73.788,50.376l-.633.377.313.667-.04.13-.627-.761.081-.265.946-.279-.04.13ZM77.146,50.856l-3.274.046-.035.115,2.664,1.943-.11.359.115.035.272-.888-.114-.035-.117.381-.87-.617.267-.872,1.061-.006-.114.372.114.035.352-1.148-.114-.035-.097.316ZM75.555,52.11l-1.086-.779,1.328-.01-.242.789ZM77.924,47.325c.011.047.017.092.019.134.001.042-.002.081-.01.118-.013.061-.036.108-.069.14-.034.032-.08.052-.139.06-.068.011-.187,0-.356-.033-.169-.033-.3-.052-.392-.058-.175-.01-.337.043-.484.159-.148.115-.266.282-.353.498l-.037-.008c.048-.293.024-.538-.071-.733-.095-.195-.25-.315-.464-.361-.216-.046-.403.011-.562.173-.159.161-.275.414-.348.758l-.278,1.305.117.025.074-.349,2.854.608-.078.367.118.025.251-1.18-.117-.025-.076.358-1.5-.319.058-.273c.022-.105.062-.2.118-.283.056-.083.125-.149.208-.197.113-.067.291-.079.533-.038.014.002.025.003.033.005.337.055.59.051.76-.013.171-.064.277-.194.318-.39.014-.064.02-.134.018-.21-.002-.076-.011-.155-.026-.238l-.117-.025ZM75.958,48.688l-.058.273-1.232-.262.086-.404c.057-.266.137-.435.241-.506.104-.071.269-.083.494-.035.241.051.396.14.466.268.07.127.071.349.004.666ZM78.216,44.532c.16.232.216.544.169.933-.05.415-.236.729-.556.943-.321.214-.725.292-1.211.233-.23-.027-.441-.089-.633-.184-.193-.095-.361-.22-.504-.374-.142-.153-.243-.318-.303-.495-.059-.177-.078-.362-.055-.555.018-.148.057-.284.117-.41.06-.126.139-.238.237-.336l-.148-.193.008-.068.796.096-.012.1c-.249.028-.451.112-.604.252-.154.139-.245.322-.271.547-.037.309.06.55.293.723.233.173.62.292,1.161.357.526.063.909.045,1.151-.054.241-.099.38-.294.414-.585.031-.253-.012-.443-.128-.568-.117-.126-.325-.207-.627-.243l-.11-.013-.053.445-.119-.014.151-1.25.118.014-.034.286c.343.042.594.179.754.411ZM78.4,41.349c.17.178.25.445.24.802-.01.306-.095.545-.257.716-.162.171-.379.252-.653.244l-2.238-.068-.011.371-.12-.004.036-1.191.12.004-.011.366,2.21.067c.244.008.431-.044.562-.154.131-.11.2-.274.207-.491.007-.253-.065-.448-.218-.584-.153-.136-.382-.208-.685-.218l-2.032-.061-.011.361-.119-.004.026-.865.12.004-.011.361,2.046.063c.363.011.629.105.801.283ZM78.137,35.953l-.037-.369.119-.012.119,1.171-.119.012-.036-.352-2.861.29.002.018,3.072.605.012.119-2.894,1.149.004.037,2.861-.29-.036-.355.119-.012.086.847-.119.012-.035-.345-2.903.295.035.346-.119.012-.096-.947,2.256-.899-2.396-.471-.094-.924.119-.012.037.369,2.903-.295ZM77.512,32.883c.207.135.345.377.415.727.06.3.031.552-.087.755-.119.203-.313.332-.581.386l-2.195.441.073.363-.118.023-.235-1.168.117-.024.072.359,2.168-.436c.239-.048.41-.141.513-.278.103-.137.132-.312.09-.525-.05-.248-.165-.421-.345-.519-.18-.098-.419-.117-.716-.057l-1.993.401.071.354-.117.024-.171-.848.117-.024.071.354,2.006-.404c.356-.072.637-.04.844.095ZM76.608,29.183c.018.06.02.112.006.156-.014.044-.045.084-.093.119-.055.042-.164.09-.329.141-.165.053-.288.098-.371.137-.159.075-.275.198-.35.371-.074.172-.098.374-.072.606l-.036.011c-.098-.281-.235-.484-.412-.61-.177-.126-.371-.158-.58-.096-.211.063-.348.203-.411.421-.063.217-.043.495.056.832l.38,1.28.114-.034-.101-.342,2.797-.83.107.36.115-.034-.343-1.156-.115.034.104.351-1.47.437-.08-.268c-.031-.103-.041-.205-.032-.304.009-.1.039-.191.088-.272.067-.113.218-.209.45-.288.013-.006.023-.01.031-.012.323-.112.543-.237.662-.375.119-.138.15-.303.093-.495-.019-.063-.047-.127-.085-.193-.037-.066-.083-.131-.136-.197l-.115.034c.032.036.059.073.08.109.021.036.037.072.048.108ZM74.277,31.73l-.117-.396c-.078-.261-.088-.448-.03-.56.057-.113.196-.201.417-.267.236-.07.415-.066.537.013.123.079.23.273.321.584l.08.268-1.208.358ZM75.552,26.201l.884,2.243-.111.044-.131-.332-2.714,1.07.13.332-.111.044-.859-2.18.705-.278.037.094c-.211.122-.338.253-.382.393-.044.14-.015.34.088.601l.217.55,1.244-.491-.035-.09c-.076-.19-.163-.312-.264-.365-.101-.053-.24-.053-.417,0l-.036-.092,1.104-.435.037.094c-.192.087-.31.192-.352.312-.042.121-.021.29.065.507l.01.024,1.359-.536-.245-.622c-.096-.243-.218-.401-.367-.474-.149-.073-.372-.084-.669-.032l-.039-.098.854-.284ZM71.697,25.467l-.044-.091.65-.315.038.078c-.166.165-.269.335-.308.507-.039.173-.015.349.073.529.079.163.194.277.345.342.151.065.295.064.435-.003.115-.056.189-.145.221-.266.032-.122.027-.293-.017-.513-.007-.031-.016-.08-.029-.145-.071-.369-.092-.625-.063-.77.027-.127.082-.241.165-.342.084-.1.193-.184.328-.249.294-.143.57-.169.829-.08.247.085.438.271.58.544l.19-.092c-.014-.021-.027-.042-.04-.063-.012-.021-.024-.041-.035-.06-.059-.122-.075-.232-.047-.329.029-.098.097-.172.205-.225.115-.056.226-.059.332-.008.106.05.194.147.263.291.038.077.067.169.089.275.022.106.039.246.052.42l-.199.008c.006-.109.002-.211-.011-.306-.013-.095-.035-.176-.067-.24-.044-.09-.091-.148-.143-.175-.052-.026-.111-.023-.179.01-.058.028-.093.071-.106.129-.013.059,0,.125.035.199.01.02.022.041.036.063.014.023.028.044.041.064l-.377.185c.064.174.112.349.087.537-.005.037-.006.058-.004.061.002.005.007.009.014.013.007.004.016.008.027.012l.197.063.036.074-.747.362-.04-.082c.177-.17.292-.356.343-.561.051-.204.032-.398-.057-.581-.099-.204-.246-.345-.442-.423-.196-.078-.386-.072-.57.017-.217.105-.288.402-.216.892.007.038.011.068.014.088.06.418.059.718-.005.896-.064.179-.2.318-.408.42-.234.113-.461.129-.683.047-.221-.082-.392-.246-.511-.492-.089-.183-.121-.379-.098-.586.005-.039.006-.062.004-.067-.005-.008-.011-.014-.018-.019-.007-.005-.015-.008-.024-.01l-.142-.033ZM18.71,56.632c-.288.175-.563.221-.825.138-.262-.082-.493-.287-.691-.614-.211-.348-.258-.701-.141-1.058.118-.358.38-.66.788-.907.193-.118.392-.197.596-.24.205-.043.409-.048.612-.017.201.031.377.097.53.197.153.1.278.231.376.392.075.124.128.252.157.385.03.132.037.266.021.4l.23.059.034.057-.668.405-.051-.084c.174-.172.278-.357.312-.557.034-.199-.007-.393-.121-.583-.157-.259-.377-.385-.66-.378-.283.008-.652.149-1.106.425-.441.268-.724.512-.85.734-.125.221-.114.454.034.698.129.212.276.332.441.358.165.027.374-.037.627-.19l.092-.056-.227-.373.1-.061.637,1.05-.1.061-.146-.241ZM21.486,57.036l-1.013.82.059.073c.126.155.243.243.352.262.109.019.239-.022.388-.123l.06.074-.899.728-.062-.076c.153-.138.232-.269.235-.394.004-.125-.066-.275-.209-.452l-.016-.02-1.107.897.41.506c.161.198.321.309.481.333.16.024.371-.03.632-.166l.065.08-.711.514-1.48-1.827.091-.073.219.27,2.21-1.791-.219-.27.091-.073,1.438,1.775-.573.465-.062-.076c.16-.175.24-.334.24-.477,0-.143-.086-.321-.258-.533l-.362-.448ZM24.395,61.263c.084-.192.132-.39.142-.594.009-.197-.016-.373-.076-.53-.06-.157-.157-.299-.29-.424-.138-.13-.294-.221-.467-.27-.172-.05-.368-.06-.585-.032-.189.025-.367.083-.536.174-.168.091-.324.213-.469.366-.149.159-.269.332-.359.518-.09.187-.144.374-.162.562-.02.21,0,.397.061.56.06.163.166.316.317.458.145.137.298.231.459.282.161.051.341.063.541.036.193-.025.382-.088.566-.186.184-.099.351-.227.5-.386.153-.163.272-.34.357-.532ZM23.527,61.565c-.301.32-.573.513-.817.58-.243.066-.463.007-.659-.178-.197-.186-.27-.402-.22-.649.05-.246.225-.528.523-.844.437-.464.782-.742,1.035-.836.253-.093.487-.039.703.164.215.202.285.43.209.684-.076.253-.333.614-.773,1.08ZM26.811,61.951l-1.062-.752-.067.095.283.201-1.644,2.32-.298-.211-.068.096.959.679.067-.095-.291-.206.865-1.22.222.158c.086.061.155.132.208.214.053.082.085.169.096.262.016.127-.041.291-.172.492-.007.012-.012.021-.017.028-.18.28-.274.509-.281.686-.008.178.068.322.227.435.052.037.112.069.18.097.068.028.143.05.223.068l.067-.095c-.046-.009-.088-.02-.127-.035-.038-.015-.072-.033-.101-.054-.05-.036-.083-.074-.098-.116-.016-.042-.016-.092,0-.147.016-.065.072-.167.167-.306.095-.14.163-.249.202-.33.077-.153.092-.318.045-.494-.047-.177-.15-.346-.31-.508l.021-.03c.244.157.472.23.684.22.212-.01.379-.102.503-.276.124-.176.145-.365.062-.57-.083-.205-.264-.406-.544-.604ZM26.865,62.856c-.139.196-.279.3-.42.313-.141.013-.34-.072-.598-.254l-.222-.157.71-1.002.329.233c.216.153.336.29.36.411.024.121-.029.273-.159.456ZM30.692,64.278l.059.031-.36.694-.087-.045c.059-.237.051-.45-.024-.639-.075-.188-.211-.333-.407-.434-.27-.14-.523-.132-.76.021-.238.154-.479.467-.723.938-.237.458-.352.815-.343,1.069.008.255.139.447.392.578.22.114.408.14.563.076.155-.063.3-.226.436-.488l.049-.096-.388-.2.054-.103,1.09.564-.054.104-.25-.129c-.155.299-.365.482-.633.548-.267.066-.57.011-.909-.164-.362-.187-.585-.464-.671-.83-.086-.367-.019-.761.2-1.185.104-.2.232-.372.384-.516.152-.144.323-.254.513-.333.188-.078.373-.114.555-.108.182.006.357.052.525.139.129.067.24.149.335.247.095.098.17.208.226.331l.227-.07ZM31.786,64.733l2.151.769-.249.696-.093-.033c.046-.233.032-.411-.043-.532-.075-.123-.24-.229-.497-.321l-.542-.193-.439,1.227.089.031c.188.067.333.081.437.041.103-.04.192-.142.267-.306l.09.032-.389,1.09-.092-.033c.059-.197.058-.35-.004-.459-.062-.109-.199-.201-.413-.278l-.024-.008-.479,1.341.614.219c.24.086.434.097.584.035.15-.062.3-.219.453-.47l.097.035-.34.808-2.214-.791.039-.11.327.117.957-2.679-.327-.117.039-.11ZM36.546,66.165l2.261.327-.106.731-.098-.014c0-.237-.05-.408-.147-.513-.097-.105-.281-.177-.551-.216l-.57-.083-.187,1.29.093.013c.198.028.343.013.437-.047.093-.059.16-.177.201-.353l.095.014-.166,1.145-.098-.014c.019-.205-.012-.355-.094-.449-.082-.094-.235-.158-.46-.19l-.024-.003-.204,1.41.645.093c.252.036.445.009.579-.082.134-.091.251-.274.351-.551l.102.014-.173.86-2.326-.336.017-.115.344.049.407-2.815-.344-.05.017-.116ZM42.947,69.554v.117s-1.148.002-1.148.002v-.116s.345,0,.345,0l-.005-2.803h-.018l-.885,2.921h-.117s-.834-2.918-.834-2.918h-.037s.005,2.803.005,2.803h.347s0,.116,0,.116l-.83.002v-.117s.338,0,.338,0l-.005-2.844h-.339s0-.117,0-.117h.928s.653,2.274.653,2.274l.689-2.278h.905s0,.116,0,.116h-.361s.005,2.845.005,2.845h.361ZM45.348,69.273l.014.116-1.246.152-.014-.115.386-.047-.344-2.823-.386.047-.014-.116,1.246-.152.014.116-.395.048.344,2.823.395-.049ZM48.534,67.872l.138.857-2.254.504-.025-.114.375-.084-.621-2.776-.359.08-.026-.114,1.23-.275.025.114-.413.092.621,2.776.618-.138c.226-.051.382-.14.468-.268.086-.127.131-.339.135-.636l.087-.019ZM52.272,64.337c-.242-.038-.559.027-.949.197l-.98.424.047.107.317-.137,1.13,2.61-.317.137.046.107,1.066-.462-.047-.107-.336.145-.506-1.169.176-.076c.4-.174.675-.375.824-.605.15-.23.167-.478.052-.744-.107-.248-.282-.39-.524-.428ZM52.416,65.587c-.07.154-.247.292-.529.414l-.189.082-.578-1.335.197-.085c.312-.135.536-.18.672-.135.136.046.257.192.363.436.113.26.134.468.064.622ZM56.329,65.256l-2.367-2.142-.101.058.611,3.157-.317.183.058.101.784-.452-.058-.101-.336.194-.211-1.019.77-.445.762.701-.329.19.058.101,1.014-.586-.058-.101-.279.161ZM54.361,65.093l-.257-1.278.954.875-.697.403ZM58.861,62.493l.483.721-1.837,1.4-.071-.093.306-.232-1.724-2.263-.293.223-.071-.093,1.002-.764.071.093-.337.257,1.724,2.262.504-.384c.184-.14.289-.287.314-.439.025-.153-.022-.364-.143-.634l.071-.054ZM61.808,60.733l-2.83-1.477-.083.081,1.385,2.901-.261.257.082.083.645-.635-.082-.083-.277.272-.46-.933.634-.624.913.487-.27.266.082.083.834-.822-.082-.083-.23.226ZM59.861,61.071l-.57-1.171,1.143.607-.573.565ZM63.224,56.695c-.381-.294-.757-.416-1.126-.363-.369.052-.704.273-1.005.663l-.687.891.092.071.212-.275,2.252,1.738-.212.275.092.071.715-.927c.125-.162.216-.313.274-.455.058-.141.087-.281.086-.42-.002-.244-.062-.473-.179-.687-.117-.213-.289-.407-.514-.581ZM63.662,58.429c-.046.114-.116.232-.211.355l-.204.265-2.252-1.737.177-.23c.118-.154.23-.267.336-.343.106-.075.217-.121.334-.136.132-.016.272.009.422.075.149.066.37.212.663.437.332.256.546.45.642.58.096.131.147.268.155.413.005.099-.016.206-.062.32ZM65.602,54.091l.735.479-1.174,2.036-.101-.058.173-.301-2.464-1.42-.174.301-.101-.058,1.141-1.979.64.368-.049.085c-.221-.087-.398-.105-.532-.054-.133.052-.268.196-.405.432l-.288.5,1.129.651.047-.081c.1-.173.139-.314.118-.423-.021-.108-.106-.214-.254-.318l.048-.083,1.002.578-.049.085c-.184-.094-.334-.119-.452-.078-.118.041-.233.16-.347.357l-.013.022,1.234.712.325-.564c.128-.221.174-.41.139-.568-.035-.158-.162-.335-.382-.53l.051-.089ZM13.912,19.622l-.375-.333c.167-.188.313-.365.454-.536.145-.175.294-.356.468-.552l.375.333c-.168.189-.314.366-.456.538-.144.175-.293.355-.466.55ZM68.255,19.122c-.137-.182-.278-.369-.428-.584l.411-.287c.144.207.283.391.417.569.136.181.277.368.426.582l-.411.287c-.144-.206-.282-.39-.415-.567ZM73.336,56.498l.455.211c-.106.229-.195.441-.282.647-.088.209-.178.425-.288.661l-.455-.211c.106-.228.195-.44.281-.644.088-.209.179-.426.289-.663ZM9.55,50.577c-.109.113-.174.234-.196.361-.022.127-.001.289.061.486.061.192.136.333.227.423.091.091.213.152.368.184l.012.037c-.225-.038-.409-.106-.552-.204-.143-.099-.238-.223-.286-.374-.047-.149-.041-.305.019-.466.06-.161.172-.323.335-.484l.012.037ZM94.684,17.872h2.315v3.379c-.407.146-1.21.386-2.159.386-1.064,0-1.94-.271-2.628-.928-.605-.584-.98-1.523-.98-2.618.011-2.096,1.45-3.63,3.807-3.63.814,0,1.45.177,1.752.324l-.219.74c-.375-.167-.845-.302-1.554-.302-1.71,0-2.826,1.064-2.826,2.826,0,1.783,1.074,2.837,2.712,2.837.595,0,1.001-.083,1.21-.187v-2.097h-1.429v-.73ZM104.668,21.563h-3.953v-7.029h3.796v.761h-2.889v2.222h2.733v.751h-2.733v2.534h3.046v.761ZM110.918,21.678c1.794,0,3.264-1.283,3.264-3.703,0-2.086-1.241-3.556-3.16-3.556-1.877,0-3.264,1.46-3.264,3.692,0,2.128,1.304,3.567,3.16,3.567ZM110.98,15.16c1.512,0,2.242,1.46,2.242,2.858,0,1.596-.813,2.92-2.253,2.92-1.429,0-2.242-1.345-2.242-2.847,0-1.544.751-2.931,2.253-2.931ZM120.693,18.216v-.031c.741-.25,1.325-.866,1.325-1.794,0-.542-.198-1.022-.553-1.335-.438-.396-1.064-.574-2.034-.574-.626,0-1.283.052-1.742.146v6.935h.907v-3.046h.855c.824.032,1.199.397,1.408,1.366.198.876.355,1.481.469,1.679h.939c-.146-.271-.313-.949-.542-1.93-.167-.73-.49-1.231-1.033-1.418ZM119.525,17.83h-.928v-2.566c.146-.042.459-.083.897-.083.96.011,1.617.407,1.617,1.314,0,.803-.615,1.335-1.585,1.335ZM126.223,20.708c-.605-.584-.98-1.523-.98-2.618.01-2.096,1.45-3.63,3.807-3.63.814,0,1.45.177,1.752.324l-.219.74c-.376-.167-.845-.302-1.554-.302-1.71,0-2.826,1.064-2.826,2.826,0,1.783,1.074,2.837,2.712,2.837.595,0,1.001-.083,1.21-.187v-2.097h-1.429v-.73h2.315v3.379c-.407.146-1.21.386-2.159.386-1.064,0-1.94-.271-2.628-.928ZM138.679,21.563h-3.953v-7.029h3.796v.761h-2.889v2.222h2.732v.751h-2.732v2.534h3.045v.761ZM148.349,21.563h-3.953v-7.029h3.796v.761h-2.889v2.222h2.733v.751h-2.733v2.534h3.046v.761ZM152.534,21.563h-.866l.49-7.029h1.158l1.199,3.4c.292.866.532,1.637.709,2.367h.031c.177-.709.427-1.481.74-2.367l1.252-3.4h1.158l.438,7.029h-.887l-.177-3.087c-.052-.98-.115-2.159-.104-3.035h-.031c-.24.824-.532,1.7-.887,2.67l-1.241,3.41h-.688l-1.137-3.348c-.334-.991-.615-1.898-.813-2.732h-.021c-.021.876-.073,2.055-.136,3.108l-.188,3.014ZM163.478,21.563h-.907v-7.029h.907v7.029ZM171.303,21.563h-3.911v-7.029h.907v6.268h3.004v.761ZM177.761,18.747c.209.052.459.062.73.062.886,0,1.669-.26,2.149-.771.355-.365.542-.866.542-1.502,0-.626-.23-1.137-.615-1.47-.417-.375-1.074-.584-1.971-.584-.73,0-1.304.063-1.742.136v6.946h.907v-2.816ZM177.761,15.275c.156-.042.459-.073.855-.073,1.001,0,1.658.448,1.658,1.377,0,.97-.667,1.502-1.762,1.502-.303,0-.553-.021-.751-.073v-2.732ZM188.235,21.563h.97l-2.399-7.029h-1.095l-2.388,7.029h.939l.73-2.211h2.493l.751,2.211ZM185.179,18.643l.688-2.034c.136-.428.25-.855.355-1.272h.021c.105.407.209.824.365,1.283l.688,2.023h-2.117ZM196.477,21.563h-3.911v-7.029h.907v6.268h3.004v.761ZM200.954,19.352h2.493l.751,2.211h.97l-2.399-7.029h-1.095l-2.388,7.029h.939l.73-2.211ZM201.83,16.609c.136-.428.25-.855.355-1.272h.021c.104.407.209.824.365,1.283l.688,2.023h-2.117l.688-2.034ZM213.284,20.614c.657-.647,1.012-1.585,1.012-2.733,0-1.137-.365-1.95-.991-2.524-.615-.574-1.543-.876-2.847-.876-.72,0-1.377.063-1.929.146v6.915c.459.052,1.001.083,1.648.083,1.366,0,2.451-.354,3.108-1.011ZM209.436,15.295c.24-.052.595-.094,1.064-.094,1.919,0,2.858,1.053,2.847,2.712,0,1.898-1.053,2.983-2.993,2.983-.355,0-.688-.011-.918-.052v-5.549ZM221.756,21.563h-3.953v-7.029h3.796v.761h-2.889v2.222h2.733v.751h-2.733v2.534h3.046v.761ZM95.904,30.001h.918v4.099c0,2.159-1.137,3.045-2.66,3.045-1.439,0-2.524-.824-2.524-3.004v-4.141h.918v4.161c0,1.575.699,2.243,1.637,2.243,1.043,0,1.71-.689,1.71-2.243v-4.161ZM105.147,30.001h.855v7.029h-.918l-2.232-3.567c-.49-.782-.96-1.585-1.314-2.347l-.031.01c.052.887.073,1.731.073,2.899v3.003h-.855v-7.029h.991l2.253,3.556c.521.824.928,1.564,1.262,2.284l.021-.01c-.083-.939-.104-1.794-.104-2.889v-2.941ZM109.916,37.031v-7.029h.907v7.029h-.907ZM113.987,30.001h.98l1.095,3.463c.302.949.563,1.804.751,2.628h.021c.198-.813.49-1.7.803-2.618l1.189-3.473h.97l-2.513,7.029h-1.001l-2.294-7.029ZM126.839,37.031h-3.953v-7.029h3.796v.761h-2.889v2.222h2.732v.751h-2.732v2.534h3.045v.761ZM130.346,37.031h.907v-3.045h.855c.824.031,1.199.396,1.408,1.366.198.876.355,1.481.469,1.679h.939c-.146-.271-.313-.949-.542-1.929-.167-.73-.49-1.23-1.033-1.418v-.031c.741-.25,1.325-.865,1.325-1.794,0-.542-.198-1.022-.553-1.335-.438-.397-1.064-.574-2.034-.574-.626,0-1.283.052-1.742.146v6.936ZM131.253,30.731c.146-.042.459-.084.897-.084.959.01,1.616.407,1.616,1.314,0,.803-.615,1.335-1.585,1.335h-.928v-2.566ZM142.186,35.112c0,1.085-.803,2.023-2.462,2.023-.678,0-1.418-.198-1.794-.449l.229-.761c.407.25,1.001.459,1.627.459.928,0,1.47-.49,1.47-1.199,0-.657-.375-1.032-1.325-1.397-1.147-.407-1.856-1.001-1.856-1.992,0-1.095.907-1.908,2.274-1.908.72,0,1.241.167,1.554.344l-.25.741c-.229-.125-.699-.334-1.335-.334-.96,0-1.325.574-1.325,1.053,0,.657.428.98,1.398,1.356,1.189.459,1.794,1.032,1.794,2.065ZM145.755,37.031v-7.029h.907v7.029h-.907ZM151.911,30.773h-2.138v-.772h5.204v.772h-2.149v6.258h-.918v-6.258ZM159.945,34.048l-2.221-4.047h1.032l.991,1.94c.271.532.48.959.699,1.45h.021c.198-.459.438-.918.709-1.45l1.012-1.94h1.033l-2.357,4.036v2.993h-.918v-2.983ZM168.145,33.579c0,2.128,1.304,3.567,3.16,3.567,1.794,0,3.264-1.283,3.264-3.703,0-2.086-1.241-3.556-3.16-3.556-1.877,0-3.264,1.46-3.264,3.692ZM171.368,30.627c1.512,0,2.242,1.46,2.242,2.858,0,1.596-.813,2.92-2.253,2.92-1.429,0-2.242-1.345-2.242-2.847,0-1.544.751-2.931,2.253-2.931ZM178.984,30.763v2.336h2.66v.751h-2.66v3.181h-.907v-7.029h3.786v.761h-2.879ZM194.683,37.031h-.887l-.177-3.087c-.052-.98-.115-2.159-.104-3.035h-.031c-.24.824-.532,1.7-.886,2.67l-1.241,3.41h-.688l-1.137-3.348c-.334-.991-.615-1.898-.813-2.733h-.021c-.021.876-.073,2.055-.136,3.108l-.188,3.014h-.865l.49-7.029h1.158l1.199,3.4c.292.866.532,1.637.709,2.367h.031c.177-.709.428-1.481.74-2.367l1.252-3.4h1.158l.438,7.029ZM199.317,36.27h3.046v.761h-3.953v-7.029h3.796v.761h-2.889v2.222h2.733v.751h-2.733v2.534ZM207.798,29.949c-.72,0-1.376.063-1.929.146v6.915c.459.052,1.001.083,1.648.083,1.366,0,2.451-.355,3.108-1.012.657-.647,1.012-1.585,1.012-2.732,0-1.137-.365-1.95-.991-2.524-.615-.574-1.543-.876-2.847-.876ZM207.694,36.363c-.355,0-.688-.01-.918-.052v-5.548c.24-.052.594-.094,1.064-.094,1.919,0,2.858,1.053,2.847,2.712,0,1.898-1.053,2.983-2.993,2.983ZM216.051,37.031h-.907v-7.029h.907v7.029ZM223.219,29.887c.876,0,1.429.188,1.669.313l-.219.741c-.344-.167-.834-.292-1.418-.292-1.648,0-2.743,1.054-2.743,2.899,0,1.721.991,2.826,2.701,2.826.553,0,1.116-.115,1.481-.292l.188.72c-.334.167-1.001.334-1.856.334-1.982,0-3.473-1.251-3.473-3.556,0-2.201,1.491-3.692,3.671-3.692ZM229.25,37.031h-.907v-7.029h.907v7.029ZM234.019,37.031h-.855v-7.029h.991l2.253,3.556c.522.824.928,1.564,1.262,2.284l.021-.01c-.083-.939-.104-1.794-.104-2.889v-2.941h.855v7.029h-.918l-2.232-3.567c-.49-.782-.959-1.585-1.314-2.347l-.031.01c.052.887.073,1.731.073,2.899v3.003ZM246.308,37.031h-3.953v-7.029h3.796v.761h-2.889v2.222h2.733v.751h-2.733v2.534h3.045v.761ZM249.669,35.821l1.022-.104c-.24.887-.699,2.044-.991,2.534l-.657.063c.229-.615.511-1.731.626-2.493ZM93.286,49.745c.887,0,1.669-.261,2.149-.772.354-.365.542-.866.542-1.502,0-.626-.229-1.137-.615-1.471-.417-.375-1.074-.584-1.971-.584-.73,0-1.304.063-1.742.136v6.946h.907v-2.816c.209.052.459.063.73.063ZM92.556,46.209c.156-.042.459-.073.855-.073,1.001,0,1.658.449,1.658,1.377,0,.97-.668,1.502-1.763,1.502-.302,0-.553-.021-.751-.073v-2.733ZM103.833,45.469h.918v7.03h-.918v-3.296h-3.4v3.296h-.907v-7.03h.907v2.941h3.4v-2.941ZM110.511,45.469l-2.388,7.03h.939l.73-2.211h2.493l.751,2.211h.97l-2.399-7.03h-1.095ZM109.979,49.578l.688-2.034c.136-.428.25-.855.355-1.272h.021c.104.407.209.824.365,1.283l.688,2.023h-2.117ZM120.369,49.15v-.031c.741-.25,1.325-.865,1.325-1.794,0-.542-.198-1.022-.553-1.335-.438-.397-1.064-.574-2.034-.574-.626,0-1.283.052-1.742.146v6.936h.907v-3.045h.855c.824.031,1.2.396,1.408,1.366.198.876.355,1.481.469,1.679h.939c-.146-.271-.313-.949-.542-1.929-.167-.73-.49-1.231-1.033-1.419ZM119.201,48.764h-.928v-2.566c.146-.042.459-.083.897-.083.96.011,1.616.407,1.616,1.314,0,.803-.615,1.335-1.585,1.335ZM131.855,45.469l.438,7.03h-.886l-.177-3.087c-.052-.98-.115-2.159-.104-3.035h-.031c-.24.824-.532,1.7-.887,2.67l-1.241,3.41h-.688l-1.137-3.348c-.334-.991-.615-1.898-.813-2.732h-.021c-.021.876-.073,2.055-.136,3.108l-.188,3.014h-.865l.49-7.03h1.158l1.199,3.4c.292.866.532,1.637.709,2.368h.031c.177-.709.427-1.481.74-2.368l1.252-3.4h1.158ZM137.771,45.469l-2.388,7.03h.939l.73-2.211h2.493l.751,2.211h.97l-2.399-7.03h-1.095ZM137.239,49.578l.688-2.034c.136-.428.25-.855.355-1.272h.021c.104.407.209.824.365,1.283l.688,2.023h-2.117ZM149.382,52.269c-.334.167-1.001.334-1.856.334-1.982,0-3.473-1.252-3.473-3.557,0-2.201,1.491-3.692,3.671-3.692.876,0,1.429.188,1.669.313l-.219.741c-.344-.167-.834-.292-1.419-.292-1.648,0-2.743,1.053-2.743,2.899,0,1.721.991,2.826,2.701,2.826.553,0,1.116-.114,1.481-.292l.188.72ZM156.685,45.469h1.033l-2.357,4.036v2.993h-.918v-2.983l-2.221-4.046h1.032l.991,1.94c.271.532.48.959.699,1.45h.021c.198-.459.438-.918.709-1.45l1.012-1.94ZM159.754,51.288l1.022-.104c-.24.887-.699,2.044-.991,2.534l-.657.063c.229-.615.511-1.731.626-2.493ZM169.321,50.652c0-.657-.375-1.033-1.325-1.398-1.147-.407-1.856-1.001-1.856-1.992,0-1.095.907-1.909,2.274-1.909.72,0,1.241.167,1.554.344l-.25.741c-.229-.125-.699-.334-1.335-.334-.96,0-1.325.574-1.325,1.053,0,.657.428.98,1.398,1.356,1.189.459,1.794,1.032,1.794,2.065,0,1.085-.803,2.023-2.461,2.023-.678,0-1.419-.198-1.794-.449l.229-.761c.407.25,1.001.459,1.627.459.928,0,1.47-.49,1.47-1.199ZM178.731,52.269c-.334.167-1.001.334-1.856.334-1.982,0-3.473-1.252-3.473-3.557,0-2.201,1.491-3.692,3.671-3.692.876,0,1.429.188,1.669.313l-.219.741c-.344-.167-.834-.292-1.418-.292-1.648,0-2.743,1.053-2.743,2.899,0,1.721.991,2.826,2.701,2.826.553,0,1.116-.114,1.481-.292l.188.72ZM183.104,52.498h-.907v-7.03h.907v7.03ZM190.97,52.498h-3.953v-7.03h3.796v.761h-2.889v2.222h2.733v.751h-2.733v2.534h3.046v.762ZM195.26,46.595c.052.886.073,1.731.073,2.899v3.004h-.855v-7.03h.991l2.253,3.556c.521.824.928,1.564,1.262,2.284l.021-.01c-.083-.939-.104-1.794-.104-2.889v-2.941h.855v7.03h-.918l-2.232-3.567c-.49-.782-.96-1.586-1.314-2.347l-.031.011ZM203.251,49.046c0-2.201,1.491-3.692,3.671-3.692.876,0,1.429.188,1.669.313l-.219.741c-.344-.167-.834-.292-1.418-.292-1.648,0-2.743,1.053-2.743,2.899,0,1.721.991,2.826,2.701,2.826.553,0,1.116-.114,1.481-.292l.188.72c-.334.167-1.001.334-1.856.334-1.982,0-3.473-1.252-3.473-3.557ZM215.999,52.498h-3.953v-7.03h3.796v.761h-2.889v2.222h2.733v.751h-2.733v2.534h3.046v.762ZM220.382,51.184c-.24.887-.699,2.044-.991,2.534l-.657.063c.23-.615.511-1.731.626-2.493l1.022-.104ZM231.305,52.498l-2.399-7.03h-1.095l-2.389,7.03h.939l.73-2.211h2.493l.751,2.211h.97ZM227.279,49.578l.688-2.034c.136-.428.25-.855.355-1.272h.021c.104.407.209.824.365,1.283l.688,2.023h-2.117ZM239.088,45.469h.855v7.03h-.918l-2.232-3.567c-.49-.782-.959-1.586-1.314-2.347l-.031.011c.052.886.073,1.731.073,2.899v3.004h-.855v-7.03h.991l2.253,3.556c.521.824.928,1.564,1.262,2.284l.021-.01c-.083-.939-.104-1.794-.104-2.889v-2.941ZM245.786,45.417c-.72,0-1.376.063-1.929.146v6.915c.459.052,1.001.083,1.648.083,1.366,0,2.451-.355,3.108-1.012.657-.647,1.012-1.586,1.012-2.733,0-1.137-.365-1.95-.991-2.524-.615-.574-1.543-.876-2.847-.876ZM245.682,51.831c-.355,0-.688-.011-.918-.052v-5.549c.24-.052.595-.094,1.064-.094,1.919,0,2.858,1.053,2.847,2.712,0,1.898-1.053,2.983-2.993,2.983ZM90.846,60.936h5.204v.772h-2.149v6.258h-.918v-6.258h-2.138v-.772ZM100.068,67.204h3.045v.761h-3.953v-7.03h3.796v.761h-2.889v2.222h2.732v.751h-2.732v2.534ZM107.163,64.482c0,1.721.991,2.826,2.701,2.826.553,0,1.116-.115,1.481-.292l.188.72c-.334.167-1.001.334-1.856.334-1.982,0-3.473-1.251-3.473-3.556,0-2.201,1.491-3.692,3.671-3.692.876,0,1.429.188,1.669.313l-.219.74c-.344-.167-.834-.292-1.419-.292-1.648,0-2.743,1.053-2.743,2.899ZM119.306,60.936h.918v7.03h-.918v-3.296h-3.4v3.296h-.907v-7.03h.907v2.941h3.4v-2.941ZM128.549,60.936h.855v7.03h-.918l-2.232-3.567c-.49-.782-.96-1.585-1.314-2.347l-.031.011c.052.886.073,1.731.073,2.899v3.004h-.855v-7.03h.991l2.253,3.556c.521.824.928,1.565,1.262,2.284l.021-.01c-.083-.939-.104-1.794-.104-2.889v-2.941ZM136.165,60.821c-1.877,0-3.264,1.46-3.264,3.692,0,2.128,1.304,3.567,3.16,3.567,1.794,0,3.264-1.283,3.264-3.702,0-2.086-1.241-3.556-3.16-3.556ZM136.113,67.34c-1.429,0-2.242-1.345-2.242-2.847,0-1.543.751-2.931,2.253-2.931,1.512,0,2.242,1.46,2.242,2.858,0,1.596-.813,2.92-2.253,2.92ZM143.74,67.204h3.004v.761h-3.911v-7.03h.907v6.268ZM152.524,60.821c-1.877,0-3.264,1.46-3.264,3.692,0,2.128,1.304,3.567,3.16,3.567,1.794,0,3.264-1.283,3.264-3.702,0-2.086-1.241-3.556-3.16-3.556ZM152.472,67.34c-1.429,0-2.242-1.345-2.242-2.847,0-1.543.751-2.931,2.253-2.931,1.512,0,2.242,1.46,2.242,2.858,0,1.596-.813,2.92-2.253,2.92ZM162.226,64.274h2.315v3.379c-.407.146-1.21.386-2.159.386-1.064,0-1.94-.271-2.628-.929-.605-.584-.98-1.523-.98-2.618.01-2.096,1.45-3.629,3.807-3.629.814,0,1.45.177,1.752.323l-.219.741c-.375-.167-.845-.303-1.554-.303-1.71,0-2.826,1.064-2.826,2.826,0,1.783,1.074,2.837,2.712,2.837.595,0,1.001-.083,1.21-.188v-2.096h-1.429v-.73ZM172.064,60.936h1.033l-2.357,4.036v2.993h-.918v-2.983l-2.221-4.047h1.032l.991,1.94c.271.532.48.96.699,1.45h.021c.198-.459.438-.918.709-1.45l1.012-1.94ZM181.286,60.821c-1.877,0-3.264,1.46-3.264,3.692,0,2.128,1.304,3.567,3.16,3.567,1.794,0,3.264-1.283,3.264-3.702,0-2.086-1.241-3.556-3.16-3.556ZM181.234,67.34c-1.429,0-2.242-1.345-2.242-2.847,0-1.543.751-2.931,2.253-2.931,1.512,0,2.242,1.46,2.242,2.858,0,1.596-.813,2.92-2.253,2.92ZM187.953,60.936h3.786v.761h-2.879v2.336h2.66v.751h-2.66v3.181h-.907v-7.03ZM196.341,60.936h5.204v.772h-2.149v6.258h-.918v-6.258h-2.138v-.772ZM205.731,60.936l-2.389,7.03h.939l.73-2.211h2.493l.751,2.211h.97l-2.399-7.03h-1.095ZM205.199,65.045l.688-2.034c.136-.428.25-.855.355-1.272h.021c.104.407.209.824.365,1.283l.688,2.023h-2.117ZM215.589,64.618v-.031c.74-.25,1.325-.866,1.325-1.794,0-.542-.198-1.022-.553-1.335-.438-.396-1.064-.574-2.034-.574-.626,0-1.283.052-1.742.146v6.936h.907v-3.045h.855c.824.031,1.199.396,1.408,1.366.198.876.355,1.481.469,1.679h.939c-.146-.271-.313-.949-.542-1.93-.167-.73-.49-1.231-1.033-1.418ZM214.421,64.232h-.928v-2.565c.146-.042.459-.084.897-.084.96.01,1.616.407,1.616,1.314,0,.803-.615,1.335-1.585,1.335ZM223.591,64.274h2.315v3.379c-.407.146-1.21.386-2.159.386-1.064,0-1.94-.271-2.628-.929-.605-.584-.98-1.523-.98-2.618.01-2.096,1.45-3.629,3.807-3.629.814,0,1.45.177,1.752.323l-.219.741c-.376-.167-.845-.303-1.554-.303-1.71,0-2.826,1.064-2.826,2.826,0,1.783,1.074,2.837,2.712,2.837.594,0,1.001-.083,1.21-.188v-2.096h-1.429v-.73ZM233.877,60.936h.918v4.099c0,2.159-1.137,3.045-2.659,3.045-1.439,0-2.524-.824-2.524-3.003v-4.141h.918v4.161c0,1.575.699,2.242,1.638,2.242,1.043,0,1.71-.688,1.71-2.242v-4.161ZM247.459,60.936l.438,7.03h-.887l-.177-3.087c-.052-.98-.115-2.159-.104-3.035h-.031c-.24.824-.532,1.7-.887,2.67l-1.241,3.41h-.688l-1.137-3.348c-.334-.991-.615-1.898-.813-2.732h-.021c-.021.876-.073,2.055-.136,3.108l-.188,3.014h-.866l.49-7.03h1.158l1.2,3.4c.292.866.532,1.637.709,2.367h.031c.177-.709.427-1.481.74-2.367l1.252-3.4h1.158ZM255.879,60.936h.918v4.099c0,2.159-1.137,3.045-2.659,3.045-1.44,0-2.524-.824-2.524-3.003v-4.141h.918v4.161c0,1.575.699,2.242,1.637,2.242,1.043,0,1.71-.688,1.71-2.242v-4.161ZM263.704,64.618v-.031c.741-.25,1.325-.866,1.325-1.794,0-.542-.198-1.022-.553-1.335-.438-.396-1.064-.574-2.034-.574-.626,0-1.283.052-1.742.146v6.936h.907v-3.045h.855c.824.031,1.199.396,1.408,1.366.198.876.355,1.481.469,1.679h.939c-.146-.271-.313-.949-.542-1.93-.167-.73-.49-1.231-1.033-1.418ZM262.536,64.232h-.928v-2.565c.146-.042.459-.084.897-.084.96.01,1.616.407,1.616,1.314,0,.803-.615,1.335-1.585,1.335ZM269.547,67.204h3.046v.761h-3.953v-7.03h3.796v.761h-2.889v2.222h2.732v.751h-2.732v2.534ZM280,66.047c0,1.085-.803,2.023-2.461,2.023-.678,0-1.418-.198-1.794-.449l.23-.761c.407.25,1.001.459,1.627.459.928,0,1.47-.49,1.47-1.199,0-.657-.375-1.032-1.325-1.397-1.147-.407-1.856-1.001-1.856-1.992,0-1.095.907-1.909,2.274-1.909.72,0,1.241.167,1.554.344l-.25.741c-.229-.125-.699-.334-1.335-.334-.96,0-1.325.574-1.325,1.053,0,.657.428.98,1.398,1.356,1.189.459,1.794,1.032,1.794,2.065Z" fill="#fff"/>
</svg>
