<?xml version="1.0" encoding="utf-8"?>
<svg version="1.1" id="Ebene_1" xmlns="http://www.w3.org/2000/svg" x="0px" y="0px" viewBox="0 0 797 155" style="enable-background:new 0 0 797 155;">
  <style type="text/css">
	.st0{fill:#FFFFFF;}
</style>
  <g transform="matrix(1, 0, 0, 1, -18.697948, -1.168622)">
    <rect x="399.7" y="20.6" class="st0" width="4.5" height="113.9"/>
    <rect x="571.1" y="103" class="st0" width="4.5" height="20.9"/>
    <g>
      <path class="st0" d="M261.9,109.9c-17.9,0-30.3-15-30.3-32.7c0-17.6,12.3-32.7,30.3-32.7c14.9,0,23.1,10.1,23.1,10.1l10.5-10.3 c0,0-11.8-14.4-33.6-14.4c-26.2,0-46.1,20.2-46.1,47.3s19.9,47.3,46.1,47.3c23,0,34.9-15.5,34.9-15.5l-10.4-10.3 C286.5,98.7,277.9,109.9,261.9,109.9"/>
      <polygon class="st0" points="111.1,31.6 111.1,123 126.7,123 126.7,61.6 155.2,105.1 183.6,61.6 183.6,123 199.2,123 199.2,31.6 &#10;&#9;&#9;&#9;184.8,31.6 155.2,77.5 125.6,31.6 &#9;&#9;"/>
      <path class="st0" d="M73.7,88.3c0,13.1-6.6,21.8-19.5,21.8c-13,0-19.5-8.8-19.5-21.8V32H19.2v58.3c0,20.1,13.6,34.7,35.1,34.7 s35.1-14.6,35.1-34.7V32H73.7V88.3z"/>
      <polygon class="st0" points="365.1,68.8 326.1,68.8 326.1,31.8 310.5,31.8 310.5,122.8 326.1,122.8 326.1,83.6 365.1,83.6 &#10;&#9;&#9;&#9;365.1,122.8 380.7,122.8 380.7,31.8 365.1,31.8 &#9;&#9;"/>
    </g>
    <g>
      <g>
        <path class="st0" d="M434.8,31.4h3.6v13.3c0,4.6-3.1,7.9-8.1,7.9s-8.1-3.3-8.1-7.9V31.4h3.6c0,0,0,6,0,12.9c0,3,1.5,5,4.5,5 s4.5-2,4.5-5C434.8,37.4,434.8,31.4,434.8,31.4z"/>
        <path class="st0" d="M445.4,31.4l10.5,14.4V31.4h3.6v20.9h-3.2L445.8,38v14.4h-3.6v-21H445.4z"/>
        <path class="st0" d="M463.7,31.4h3.6v20.9h-3.6V31.4z"/>
        <path class="st0" d="M478.8,53l-9.4-21.6h3.9l5.6,13.4l5.5-13.4h3.7L478.8,53z"/>
        <path class="st0" d="M493.4,39.9h8.4v3.4h-8.4v5.6h9.3v3.4h-12.8V31.4h12.7v3.4h-9.1v5.1H493.4z"/>
        <path class="st0" d="M505.6,31.4h6.9c4.2,0,6.9,2.7,6.9,6.5c0,3.1-1.7,5.5-4.7,6.3l5.2,8.1h-4.2l-5-7.9h-1.6v7.9h-3.6V31.4H505.6 z M515.7,37.9c0-2.1-1.4-3.1-3.7-3.1h-2.8V41h2.8C514.3,41,515.7,40,515.7,37.9z"/>
        <path class="st0" d="M529,43.6c-3.1-1.1-6.5-2.7-6.5-6.6c0-3,2.6-5.9,6.8-5.9c4.4,0,6.8,3.3,6.8,3.3l-2.5,2.5 c0,0-1.7-2.4-4.3-2.4c-1.8,0-3.2,1.1-3.2,2.5c0,1.8,1.6,2.4,4.5,3.5c3.2,1.2,5.9,2.6,5.9,6.4c0,3.8-3.3,5.8-7.3,5.8 c-5.2,0-7.6-4.3-7.6-4.3l2.7-2.3c0,0,1.8,3.1,5,3.1c1.8,0,3.6-0.7,3.6-2.4C532.8,45.1,531.5,44.5,529,43.6z"/>
        <path class="st0" d="M540,31.4h3.6v20.9H540V31.4z"/>
        <path class="st0" d="M551.8,34.8H546v-3.4h15.1v3.4h-5.8v17.5h-3.6L551.8,34.8L551.8,34.8z"/>
        <path class="st0" d="M572,52.3h-3.6v-8.2l-7.1-12.7h3.9l5.1,9.4l5.1-9.4h3.7L572,44.1V52.3z"/>
        <path class="st0" d="M592.2,34.8h-5.8v-3.4h15.1v3.4h-5.8v17.5h-3.6L592.2,34.8L592.2,34.8z"/>
        <path class="st0" d="M608.6,31.4h3.6l8.1,20.9h-3.6l-1.9-5H606l-1.9,5h-3.6L608.6,31.4z M607.3,44.1h6.3l-3.1-8.2L607.3,44.1z"/>
        <path class="st0" d="M622.2,31.4h6.9c4.2,0,6.9,2.7,6.9,6.5c0,3.1-1.7,5.5-4.7,6.3l5.2,8.1h-4.2l-5-7.9h-1.6v7.9h-3.6L622.2,31.4 L622.2,31.4z M632.4,37.9c0-2.1-1.4-3.1-3.7-3.1h-2.8V41h2.8C630.9,41,632.4,40,632.4,37.9z"/>
        <path class="st0" d="M653,48.3v-4.4h-4.8v-3.3h8.3v9.5c0,0-2.7,2.6-7.7,2.6c-6.1,0-11-4.6-11-10.8s4.7-10.8,10.8-10.8 c5.1,0,7.7,3.1,7.7,3.1l-2.4,2.4c0,0-1.7-2.2-5.3-2.2c-4.2,0-7.2,3.4-7.2,7.5s3.1,7.5,7.3,7.5C651.8,49.3,653,48.3,653,48.3z"/>
        <path class="st0" d="M672.3,31.4h3.6v13.3c0,4.6-3.1,7.9-8.1,7.9s-8.1-3.3-8.1-7.9V31.4h3.6c0,0,0,6,0,12.9c0,3,1.5,5,4.5,5 s4.5-2,4.5-5C672.3,37.4,672.3,31.4,672.3,31.4z"/>
        <path class="st0" d="M690.3,31.4l6.8,10.5l6.8-10.5h3.3v20.9h-3.6v-14l-6.5,9.9l-6.5-9.9v14H687V31.4H690.3z"/>
        <path class="st0" d="M723.7,31.4h3.6v13.3c0,4.6-3.1,7.9-8.1,7.9s-8.1-3.3-8.1-7.9V31.4h3.6c0,0,0,6,0,12.9c0,3,1.5,5,4.5,5 s4.5-2,4.5-5C723.7,37.4,723.7,31.4,723.7,31.4z"/>
        <path class="st0" d="M731.1,31.4h6.9c4.2,0,6.9,2.7,6.9,6.5c0,3.1-1.7,5.5-4.7,6.3l5.2,8.1h-4.2l-5-7.9h-1.6v7.9H731L731.1,31.4 L731.1,31.4z M741.3,37.9c0-2.1-1.4-3.1-3.7-3.1h-2.8V41h2.8C739.8,41,741.3,40,741.3,37.9z"/>
        <path class="st0" d="M751.5,39.9h8.4v3.4h-8.4v5.6h9.3v3.4H748V31.4h12.7v3.4h-9.1v5.1H751.5z"/>
        <path class="st0" d="M770.3,43.6c-3.1-1.1-6.5-2.7-6.5-6.6c0-3,2.6-5.9,6.8-5.9c4.4,0,6.8,3.3,6.8,3.3l-2.5,2.5 c0,0-1.7-2.4-4.3-2.4c-1.8,0-3.2,1.1-3.2,2.5c0,1.8,1.6,2.4,4.5,3.5c3.2,1.2,5.9,2.6,5.9,6.4c0,3.8-3.3,5.8-7.3,5.8 c-5.2,0-7.6-4.3-7.6-4.3l2.7-2.3c0,0,1.8,3.1,5,3.1c1.8,0,3.6-0.7,3.6-2.4S772.8,44.5,770.3,43.6z"/>
      </g>
      <g>
        <path class="st0" d="M425.5,67.1l6.8,10.5l6.8-10.5h3.3V88h-3.6V74l-6.5,9.9l-6.5-9.9v14h-3.6V67.1H425.5z"/>
        <path class="st0" d="M450.8,75.6h8.4V79h-8.4v5.6h9.3V88h-12.8V67.1H460v3.4h-9.1v5.1H450.8z"/>
        <path class="st0" d="M480.9,77.6c0,6-4.2,10.5-10.3,10.5h-6.8v-21h6.8C476.6,67.1,480.9,71.6,480.9,77.6z M477.2,77.6 c0-3.8-2.6-7.1-6.6-7.1h-3.2v14.1h3.2C474.7,84.6,477.2,81.4,477.2,77.6z"/>
        <path class="st0" d="M484.8,67.1h3.6V88h-3.6V67.1z"/>
        <path class="st0" d="M508.6,82.5l2.4,2.4c0,0-2.7,3.6-8,3.6c-6,0-10.6-4.6-10.6-10.8S497,66.9,503,66.9c5,0,7.7,3.3,7.7,3.3 l-2.4,2.4c0,0-1.9-2.3-5.3-2.3c-4.1,0-7,3.4-7,7.5s2.8,7.5,7,7.5C506.6,85.1,508.6,82.5,508.6,82.5z"/>
        <path class="st0" d="M520.1,67.1h3.6l8.1,20.9h-3.6l-1.9-5h-8.8l-1.9,5H512L520.1,67.1z M518.8,79.8h6.3l-3.1-8.2L518.8,79.8z"/>
        <path class="st0" d="M534.6,67.1h3.6v17.5h8.9V88h-12.5V67.1z"/>
        <path class="st0" d="M572.1,82.5l2.4,2.4c0,0-2.7,3.6-8,3.6c-6,0-10.6-4.6-10.6-10.8s4.6-10.8,10.6-10.8c5,0,7.7,3.3,7.7,3.3 l-2.4,2.4c0,0-1.9-2.3-5.3-2.3c-4.1,0-7,3.4-7,7.5s2.8,7.5,7,7.5C570.1,85.1,572.1,82.5,572.1,82.5z"/>
        <path class="st0" d="M583.6,67.1h3.6l8.1,20.9h-3.6l-1.9-5H581l-1.9,5h-3.6L583.6,67.1z M582.3,79.8h6.3l-3.1-8.2L582.3,79.8z"/>
        <path class="st0" d="M601.4,67.1l6.8,10.5l6.8-10.5h3.3V88h-3.6V74l-6.5,9.9l-6.5-9.9v14h-3.6V67.1H601.4z"/>
        <path class="st0" d="M623.1,67.1h7.1c4.2,0,6.9,2.9,6.9,6.7s-2.8,6.7-6.9,6.7h-3.5V88h-3.6V67.1z M633.5,73.8 c0-2-1.3-3.3-3.7-3.3h-3.1v6.6h3.1C632.2,77.1,633.5,75.8,633.5,73.8z"/>
        <path class="st0" d="M652.8,67.1h3.6v13.3c0,4.6-3.1,7.9-8.1,7.9c-4.9,0-8.1-3.3-8.1-7.9V67.1h3.6c0,0,0,6,0,12.9 c0,3,1.5,5,4.5,5s4.5-2,4.5-5C652.8,73.1,652.8,67.1,652.8,67.1z"/>
        <path class="st0" d="M667.8,79.3c-3.1-1.1-6.5-2.7-6.5-6.6c0-3,2.6-5.9,6.8-5.9c4.4,0,6.8,3.3,6.8,3.3l-2.5,2.5 c0,0-1.7-2.4-4.3-2.4c-1.8,0-3.2,1.1-3.2,2.5c0,1.8,1.6,2.4,4.5,3.5c3.2,1.2,5.9,2.6,5.9,6.4s-3.3,5.8-7.3,5.8 c-5.2,0-7.6-4.3-7.6-4.3l2.7-2.3c0,0,1.8,3.1,5,3.1c1.8,0,3.6-0.7,3.6-2.4C671.6,80.8,670.2,80.2,667.8,79.3z"/>
      </g>
    </g>
    <g>
      <path class="st0" d="M599,119.6v-4.4h-4.8v-3.4h8.3v9.5c0,0-2.7,2.6-7.8,2.6c-6.1,0-11-4.7-11-10.9c0-6.2,4.7-10.9,10.9-10.9 c5.2,0,7.8,3.2,7.8,3.2l-2.5,2.4c0,0-1.7-2.2-5.3-2.2c-4.2,0-7.2,3.4-7.2,7.5s3.2,7.5,7.4,7.5C597.8,120.6,599,119.6,599,119.6z"/>
      <path class="st0" d="M610.3,111.1h8.4v3.4h-8.4v5.6h9.3v3.4h-12.9v-21h12.7v3.4h-9.1V111.1z"/>
      <path class="st0" d="M623.2,102.6h6.9c4.2,0,7,2.7,7,6.5c0,3.1-1.7,5.5-4.7,6.3l5.2,8.2h-4.2l-5-7.9h-1.6v7.9h-3.6L623.2,102.6 L623.2,102.6z M633.4,109.1c0-2.1-1.4-3.1-3.8-3.1h-2.8v6.2h2.8C631.9,112.2,633.4,111.2,633.4,109.1z"/>
      <path class="st0" d="M644,102.6l6.8,10.6l6.8-10.6h3.3v21h-3.6v-14.1l-6.6,10l-6.6-10v14.1h-3.6v-21H644z"/>
      <path class="st0" d="M671.5,102.6h3.7l8.2,21h-3.6l-1.9-5H669l-1.9,5h-3.6L671.5,102.6z M670.2,115.3h6.3l-3.1-8.2L670.2,115.3z"/>
      <path class="st0" d="M688.9,102.6l10.5,14.5v-14.5h3.6v21h-3.2l-10.5-14.4v14.4h-3.6v-21H688.9z"/>
      <path class="st0" d="M716.2,123.6h-3.6v-8.3l-7.2-12.7h4l5.1,9.4l5.1-9.4h3.7l-7.2,12.7v8.3H716.2z"/>
    </g>
    <g>
      <path class="st0" d="M434.7,102.7h3.6v20.9h-3.6v-9h-8.9v9h-3.6v-20.9h3.6v8.5h8.9V102.7z"/>
      <path class="st0" d="M449.1,102.7h3.6l8.1,20.9h-3.6l-1.9-5h-8.8l-1.9,5H441L449.1,102.7z M447.8,115.3h6.3l-3.1-8.2L447.8,115.3z "/>
      <path class="st0" d="M466.8,102.7l6.8,10.5l6.8-10.5h3.3v20.9h-3.6v-14l-6.5,9.9l-6.5-9.9v14h-3.6v-20.9H466.8z"/>
      <path class="st0" d="M488.5,102.7h6.8c3.4,0,6.7,1.6,6.7,6c0,2.5-1.9,3.8-2.2,3.9c0.3,0.1,3.3,1.1,3.3,4.9c0,3.7-3,6.2-7,6.2h-7.5 L488.5,102.7L488.5,102.7z M495.2,111.2c2,0,3.1-0.7,3.1-2.6s-1.4-2.6-3.1-2.6h-3.1v5.1L495.2,111.2L495.2,111.2z M499.4,117.4 c0-2-1.5-2.8-3.5-2.8h-3.8v5.6h3.8C497.9,120.2,499.4,119.4,499.4,117.4z"/>
      <path class="st0" d="M519,102.7h3.6V116c0,4.6-3.1,7.9-8.1,7.9c-4.9,0-8.1-3.3-8.1-7.9v-13.3h3.6c0,0,0,6,0,12.9c0,3,1.5,5,4.5,5 s4.5-2,4.5-5C519,108.7,519,102.7,519,102.7z"/>
      <path class="st0" d="M527.3,102.7h6.9c4.2,0,6.9,2.7,6.9,6.5c0,3.1-1.7,5.5-4.7,6.3l5.2,8.1h-4.2l-5-7.9h-1.6v7.9h-3.6 L527.3,102.7L527.3,102.7z M537.4,109.2c0-2.1-1.4-3.1-3.7-3.1h-2.8v6.2h2.8C536,112.3,537.4,111.3,537.4,109.2z"/>
      <path class="st0" d="M559,119.6v-4.4h-4.8v-3.3h8.3v9.5c0,0-2.7,2.6-7.7,2.6c-6.1,0-11-4.6-11-10.8s4.7-10.8,10.8-10.8 c5.1,0,7.7,3.1,7.7,3.1l-2.4,2.4c0,0-1.7-2.2-5.3-2.2c-4.2,0-7.2,3.4-7.2,7.5s3.1,7.5,7.3,7.5C557.8,120.6,559,119.6,559,119.6z"/>
    </g>
  </g>
</svg>