<?xml version="1.0" encoding="UTF-8"?>
<svg id="Ebene_1" xmlns="http://www.w3.org/2000/svg" version="1.1" viewBox="0 0 85 85">
  <!-- Generator: Adobe Illustrator 29.6.1, SVG Export Plug-In . SVG Version: 2.1.1 Build 9)  -->
  <defs>
    <linearGradient id="gradientBlue" x1="0%" y1="0%" x2="100%" y2="0%"><stop offset="0%" style="stop-color:#004F70;stop-opacity:1" /><stop offset="100%" style="stop-color:#009BD2;stop-opacity:1" /></linearGradient>
  </defs>
  <path d="M70.98,10.957C55.385-3.224,31.522-3.67,15.329,9.798-3.535,25.487-5.247,53.903,11.63,71.764c17.157,18.157,46.6,17.56,62.938-1.339,15.219-17.607,13.586-43.851-3.588-59.468ZM53.344,82.145C21.408,90.826-7.344,59.988,3.775,28.734,13.533,1.308,48.006-7.528,69.858,11.892c24.288,21.586,14.724,61.761-16.514,70.253Z" fill="url(#gradientBlue)"/>
  <path d="M52.429,8.793C26.039,1.262,1.699,24.808,8.5,51.417c6.805,26.624,41.127,35.259,59.768,15.021,17.589-19.096,9.13-50.52-15.839-57.645ZM67.526,19.556c1.657,1.504,4.047,5.264,5.099,7.293.474.914,1.783,3.549,1.932,4.437.034.205-.018.395-.173.536l-44.607,11.926.015-.358c1.223-.731,2.321-1.631,3.508-2.43,10.933-7.362,22.26-14.159,33.2-21.514.444-.316.656-.225,1.026.11ZM58.55,12.586c1.915,1.015,4.015,2.471,5.686,3.853.371.307,1.74,1.422,1.908,1.74.164.31.141.548-.141.77-11.949,7.424-23.481,15.557-35.493,22.868-.271.165-1.385,1.156-1.669.902-.172-.154.727-.938.839-1.078.556-.69,1.029-1.452,1.638-2.103l25.207-27.636c.495-.227,1.543.428,2.025.684ZM46.747,8.766c.609.023,2.121.35,2.785.493,1.76.379,3.91,1.017,5.523,1.771.193.09.65.104.712.324.078.276-.663.963-.873,1.208-1.827,2.135-3.827,4.133-5.713,6.212-6.92,7.623-13.793,15.353-20.76,22.918-.178.194-.431.514-.702.559-.215-.255.981-2.013,1.159-2.348,5.506-10.396,11.385-20.616,17.033-30.947.19-.186.582-.2.836-.19ZM35.46,9.26c1.605-.416,3.85-.585,5.519-.653.863-.035,1.832-.078,2.689-.031.284.015.87.053,1.118.097.293.052.26.232.192.471l-16.568,29.918c-.298.279-1.299,2.314-1.579,2.254-.335-.073.072-.738.112-.915,2.31-10.251,5.228-20.361,7.675-30.58.18-.347.484-.468.842-.561ZM25.234,13.624c.069-.291.254-.467.49-.632,1.262-.889,6.097-2.958,7.582-3.175.813-.118.503.125.423.518-1.932,9.499-5.128,18.967-7.179,28.457-.282.593-.323,1.358-.592,1.933-.116.249-.355.656-.67.591.124-.922-.076-1.851-.099-2.754-.215-8.3.137-16.636.045-24.938ZM25.852,46.979c-1.383.666-3.013-.372-2.502-1.942.196-.602.827-1.088,1.448-1.171,1.795-.241,2.82,2.262,1.054,3.113ZM22.012,60.629c-.302.921-.973,2.379.048,3.043.593.386,1.197,0,1.722-.338.493-.316,1.15-1.207,1.505-1.393.095-.05.176-.059.28-.047,0,.131.023.275-.019.401-.077.229-1.433,1.439-1.713,1.655-.6.463-1.629,1.117-2.359,1.288-3.378.792-2.434-2.527-1.778-4.491.657-1.97,3.047-7.07,2.877-8.814-.234-2.398-3.171.366-3.696,1.261-.215.053-.16-.205-.12-.307.104-.261.422-.338.593-.53.422-.475.675-.962,1.214-1.404.841-.69,3.639-2.523,4.598-1.47.176.192.295.774.313,1.043.135,2.006-2.71,7.798-3.465,10.103ZM24.356,61.01c-.054.798-.175,1.044-.815,1.523-.286.213-1.141.841-1.161.157-.034-1.124.914-2.93,1.322-4.018.042-.114.244-1.305.555-1.08.139.1.127,2.997.099,3.418ZM17.196,19.896c1.553-1.756,3.741-3.757,5.666-5.09.23-.16,1.483-1.028,1.673-.892.171.341.006.622-.001.975-.158,8.192.426,16.766.009,24.888-.016.311-.108,1.461-.212,1.659-.084.16-.115.186-.306.163-2.762-6.362-5.106-12.904-7.692-19.341-.584-.968.258-1.678.863-2.362ZM12.158,27.204c.309-.762,2.372-4.121,2.932-4.645.169-.158.285-.303.553-.217,2.324,6.391,5.068,12.628,7.269,19.066.065.109-.009.252-.112.279-.386.099-.537-.435-.739-.652-2.931-3.152-5.909-7.349-8.505-10.855-.288-.389-1.425-1.824-1.507-2.144-.078-.303-.006-.549.109-.832ZM9.829,33.199c.392-1.432.985-2.808,1.519-4.189.098-.073.189-.034.289-.001.279.09,1.435,1.662,1.718,2.026,2.913,3.74,5.694,7.594,8.542,11.38l.023.398c-.114.119-.711-.393-.872-.483-3.499-1.955-7.474-4.414-10.698-6.792-.186-.136-.686-.464-.78-.623-.185-.316.149-1.313.259-1.716ZM9.154,36.172c.047-.105.076-.23.203-.272l11.813,7.802-.396.121-11.849-4.148c-.135-.1-.191-.303-.197-.465-.019-.542.218-2.567.426-3.038ZM8.663,40.592c.063-.074.212-.092.309-.11l10.798,3.873.279.281c-.145.201-.397.149-.605.141-1.136-.043-2.817-.331-4.023-.468-2.185-.248-4.37-.576-6.554-.834-.704-.088-.386-2.669-.204-2.883ZM8.65,44.32c.227-.257,4.08.379,4.713.457,1.91.233,4.413.351,6.224.884.191.056.338.12.461.285l-10.892,1.637-.326-.33-.18-2.933ZM9.831,51.863l-.716-3.305.297-.343c1.199-.143,2.396-.36,3.589-.526,1.706-.237,3.424-.411,5.131-.574.578-.056,1.36-.247,1.9-.259.652-.014.025.467-.231.619-2.915,1.738-6.207,2.852-9.199,4.455-.278.102-.606.299-.771-.067ZM11.349,55.959l-1.081-2.954.152-.228,10.912-5.084c.812-.046-.734.985-.816,1.058-2.554,2.296-5.217,4.359-7.898,6.505-.348.278-.579.695-1.049.824l-.22-.121ZM14.107,60.683c-.367.034-.858-.958-1.053-1.286-.212-.357-1.157-2.039-1.14-2.313.014-.235.217-.414.372-.57,1.184-1.191,3.177-2.506,4.535-3.602.191-.154,1.638-1.601,1.825-1.4.223.239-1.185,1.436-1.218,1.831.056.742,1.007.651,1.127,1.2-1.226,2.099-2.884,3.946-4.207,5.997l-.241.143ZM24.258,70.873c-.441.018-.876-.34-1.245-.578-2.479-1.604-5.773-4.863-7.546-7.231-.225-.3-.947-1.262-.912-1.578l7.13-9.6c.326.07-.131,1.317-.205,1.57-.595,2.01-1.494,3.975-2.18,5.958-.58,1.675-1.332,3.415-1.005,5.217.351,1.941,2.782,1.681,4.184,1.143.498-.192,1.134-.753,1.471-.868.1-.034.206-.02.308-.019v5.986ZM76.044,47.885c-3.22,21.546-26.871,34.574-46.921,25.84-.87-.38-3.178-1.43-3.83-1.969-.581-.479-.398-1.855-.384-2.617.028-1.467-.043-3.129.094-4.583.047-.5.356-1.175.94-1.029.323.688.503,1.253,1.129,1.773,2.019,1.678,4.987.656,6.77-.883.395-.342.655-.83,1.122-1.027.158.029.199.906.263,1.142.915,3.339,5.195.844,6.482-.947.347-.084.755.93.944,1.185,1.471,1.986,4.548,1.58,6.382.345.353-.238,1.9-1.766,2.109-1.725.221.044.127.903.165,1.147.129.835.763,1.431,1.58,1.599,1.151.236,2.622-.534,3.494-1.247.3.189-.025.816.294.92.993-.04,2.097.099,3.076.017.265-.022.595-.042.721-.308,1.095-3.454,2.213-6.95,4.018-10.105.515-.899,2.013-3.222,2.89-3.657,1.016-.506,1.312.565,2.139.833,2.937.953,4.353-3.12,1.717-4.336-1.845-.851-3.961.609-5.313,1.765-.235.2-1.057,1.194-1.309,1.119-.265-.079-.074-.518-.085-.685-.184-2.76-2.615-2.336-4.392-1.263-.327.197-.586.6-1.041.639l-.133-.221c.148-.276.521-.737.224-.995h-2.993c-.027,0-.467.187-.492.21-.134.127-.154.638-.442.637-.14,0-.687-.601-.953-.737-.707-.36-1.819-.355-2.606-.301-4.068.28-8.558,6.015-9.555,9.712-.21.778-.191,1.595-.571,2.328-.255.491-2.012,2.569-2.496,2.614l-.241-.121c-.057-.109-.082-.223-.077-.347.032-.777.386-2.179.579-2.978.896-3.704,2.532-7.178,3.86-10.731.046-.095-.171-.286-.193-.286-.786,0-2.206-.122-2.899,0-.482.085-.726.853-1.012.829-.27-.024-.616-.572-.872-.722-1.226-.715-3.825-.2-5.054.437-3.602,1.868-6.461,6.143-7.374,10.022-.076.324-.056,1.315-.464,1.317l-.219-.159.078-5.504c.549-1.693,1.47-3.571.909-5.398-.109-.355-.565-.823-.519-1.128.061-.414.985-.669,1.298-.952.335-.303.479-.977.909-1.149.717-.288,2.15-.053,2.964-.31,14.827-.282,29.703.39,44.525.009.289-.007.541-.137.796-.059.227.165.023,1.684-.031,2.04ZM40.427,63.142c.092-.083,1.212-1.633,1.226-.833.011.626-2.054,2.131-2.616,2.439-1.302.715-2.862,1.126-3.077-.855-.075-.69.214-1.75.04-2.284-.094-.288-.267-.318-.545-.259-.313.068-.994,1.212-1.281,1.528-1.817,2.001-5.991,4.095-7.363.532-1.691-4.393,2.485-11.08,6.303-13.19,1.66-.917,4.34-1.776,5.501.261.228.4.43,1.5.965.968.126-.346.551-1.995.904-1.995h1.543c.049.404-.253.709-.392,1.057-1.238,3.117-3.459,8.466-3.632,11.706-.114,2.123,1.074,2.138,2.424.925ZM63.668,53.578c.191.136.463.138.623-.05.426-.995,1.231-2.042,2.034-2.757,1.16-1.033,2.811-2.263,4.451-1.775.977.29,1.322,1.637.681,2.393-.054.065-.439.324-.529.359-1.772.674-2.236-2.105-4.119-.659-1.336,1.025-2.726,3.234-3.507,4.723-1.502,2.862-2.436,5.957-3.554,8.98-.161.204-.991.277-1.306.288-1.192.04-.699-.668-.449-1.482.927-3.024,2.206-6.07,3.064-9.095.224-.788.702-2.44.475-3.183-.299-.977-1.59-.431-2.191-.124-.244.124-.572.437-.715.502-.04.019-.153.024-.138-.046.241-.169.359-.469.557-.658.611-.585,2.595-1.777,3.42-1.825,2.227-.131.617,3.941,1.203,4.409ZM59.282,52.26c.207-.16,1.256-.838,1.437-.548.156.249-.302,1.935-.407,2.327-.412,1.552-1.593,5.513-2.525,6.64-.424.513-1.474,1.622-1.963,2.059-.07.062-.609.379-.65.371-.158-.118-.243-.316-.243-.511-.002-1.556.714-3.846,1.193-5.359.224-.705.575-1.946.909-2.552.143-.26,1.961-2.204,2.249-2.427ZM57.895,50.218c-1.143,3.504-3.452,7.729-3.714,11.438-.036.516-.124,1.944.358,2.2.984.522,1.965-.817,2.597-1.404.455.004.352.317.136.586-.641.799-2.609,2.181-3.628,2.295-1.2.134-1.588-.758-1.616-1.802-.014-.539.486-2.294-.411-2.201-.344.036-.994,1.148-1.264,1.455-1.753,1.999-5.823,4.188-7.365.814-2.351-5.143,4.329-14.957,10.122-14.332,1.272.137,1.583,1.2,2.014,2.195.045.105.06.272.229.236.543-.28.734-2.244,1.217-2.244h1.45c.021.266-.043.515-.125.764ZM29.589,45.151c-.02-.206-.023-.249.158-.356.601-.355,1.535-.505,2.179-.814l42.599-11.462c.405.017.534.231.638.584.903,3.044,1.096,6.233,1.382,9.383l-.289,2.665H29.589Z" fill="url(#gradientBlue)"/>
  <path d="M78.495,56.989c-.309-.079-1.474-.56-1.682-.75-.151-.137-.328-.627-.56-.475-.15.099-.511,1.114-.457,1.3l.211.14c.275-.26.61-.206.942-.087.154.74-.987.648-1.434.902-.546.31-.545.838-.776,1.281-.123.236-.417.37-.445.671l.735.492c-.191.44-.098,1.184-.689,1.157-.407-.019-.549-.46-.942-.2-.221.146-.466.836-.658,1.12-.299.442-.691.822-.962,1.285l.126.205c.406-.205.993.066,1.078.526-.713.479-1.764-.028-2.336.753-.158.215-.347.511.066.443.568-.093,1.185-.399,1.749-.221.203.145-.32,1.164.763,1.316.437.061.873-.199,1.165-.507.073-.076.761-1.02.789-1.081.281-.608-.432-.608-.823-.856-.714-.451-2.741-1.891-.673-1.953.67-.02,1.524.087,2.246.099.355.006.921.305.987-.324-.212-.63-1.904-2.256-1.857-2.787.048-.55,1.07-.975,1.521-.914.45.06.419.81.635,1.008.093.085.595.207.729.171.649-.176,1.299-1.817,1.479-2.421-.167-.377-.587-.206-.927-.293ZM73.36,64.889c.923-.107,1.415,1.447.234,1.212-.578-.114-.307-.832-.234-1.212ZM75.386,60.968c.521-.131.798,1.295-.006.82-.347-.205-.334-.734.006-.82ZM77.915,58.79c-.588-.124-.389-.795-.253-1.197.844-.083,1.259,1.408.253,1.197Z" fill="url(#gradientBlue)"/>
  <path d="M82.198,38.693c-.113-.174-.869.144-1.138.179-.568.076-1.272.048-1.859.105-.738-.138.011-1.796.446-1.987.515-.228.835.52,1.664.261.655-.205.441-1.588.345-2.131-.219-1.24-.679-.577-1.468-.394-.278.065-1.019.221-1.271.232-.251.012-.729-.174-.793-.145-.339.155,0,1.12.003,1.452.424-.139.592-.586,1.099-.639.845-.088-.407,1.05-.521,1.265-.286.535-.196.805-.204,1.384-.012.819-.014,1.891.09,2.716.077.608.462,1.17,1.125.885-.064-.743-.803-.394-.847-1.259-.032-.609.206-.83.8-.891.36-.036.688.093.941.081.232-.012.833-.304,1.077-.135.356.355-.219,1.615-.088,1.818l.393.097c.453-.322.144-.82.151-1.249.01-.568.175-1.095.055-1.645ZM81.306,35.423c.179,1.297-1.1,1.471-1.209.194l1.209-.194Z" fill="url(#gradientBlue)"/>
  <path d="M62.697,12.274c.071.273,1.18,1.019,1.307.888.009-.3-.088-.981.251-1.106.673-.249.373.439.41.764.04.34.229,1.094.419,1.368.21.302.607.388.875.621.531.461,1.17,1.309,1.74,1.721.481.347.886.425.981-.28-.243-.112-.547-.054-.774-.115-.423-.114-.832-.746-.654-1.168.052-.123,1.475-1.671,1.588-1.701.42-.11,1.037,1.102.87,1.486.226.014.568-.252.612-.459.061-.285-.278-.378-.393-.508-.356-.4-.519-.431-.83-.714-.17-.155-.526-.781-.735-.745-.424.559-1.502,2.116-2.207,2.204-.656.082-.931-1.963-.501-2.101.301-.096.736.116,1.011-.205.262-.306.172-1.004-.085-1.312-.447-.179-1.333-1.352-1.77-1.203-.566.943-1.024,2.081-2.115,2.565ZM65.946,10.754c.287.291.144,1.076-.396,1.089-1.271.031-.184-1.677.396-1.089Z" fill="url(#gradientBlue)"/>
  <path d="M9.574,26.683c.49-.043.53-.475.458-.883-.323-.032-.744-.214-.63-.599.032-.108.18-.172.216-.257.129-.306-.016-.657.568-.64.272.008.583.381.842.185.053-.039.503-.704.533-.783.38-1.01.325-.63.861-1.383.356-.5.718-1.156.289-1.68-.568-.694-1.352-.295-1.99.073-.164.094-.337.348-.464.384-.478.136-.661-.491-.363-.838.275-.32.916-.106,1.176-.505-.165-.193-.25-.303-.514-.334-.409-.049-.274.104-.421.238-.567.514-1.032.723-.82,1.666.162.715,1.202.58,1.688.326.351-.183.645-.701,1.121-.618.746.13.077,1.174-.37,1.274-.292.066-1.046-.098-.687.445.146.222.533.28.234.598-.445.473-2.569-.065-3.273-.092-.556-.021-.643.211-.405.694.693.873,1.438,1.741,1.951,2.729ZM9.366,24.316c.423.852-.876.705-.826.119.031-.36.596-.263.826-.119Z" fill="url(#gradientBlue)"/>
  <path d="M6.352,35.326c.129.134.219.539.369.471.284-.127.263-.836.222-1.108-.126-.063-.266-.094-.406-.108-.416-.04-1.449-.009-1.764-.107-.091-.029-.176-.114-.154-.218.098-.468,5.01-1.485,2.244-2.34-.546-.17-1.318-.196-1.804-.347-.336-.105-.372-.728-.814-.634-.147.384-.102.726.009,1.111l1.992.192.048.232c-1.016.682-3.044.708-2.798,2.393.65-.117,2.416.002,2.856.463Z" fill="url(#gradientBlue)"/>
  <path d="M14.894,66.131c.08-.324-.364-.68-.674-.58-.146.047-.246.403-.386.556-.095.105-.795.793-.868.839-.116.073-.239.143-.353,0-.071-.093-.104-.173-.093-.292.067-.71.643-1.792.698-2.576.012-.171-.01-.336-.112-.479-.442-.459-1.739.979-2.136,1.232-.213.136-.972.403-.991.567.061.216.308.787.574.708l1.173-1.363c.223-.145.482.087.453.352-.121,1.104-1.324,2.36.155,3.344.184-.19.198-.46.343-.685.157-.244,1.251-1.091,1.541-1.265.226-.136.564-.065.676-.359Z" fill="url(#gradientBlue)"/>
  <path d="M37.448,5.067c.025.79-.447,2.037.832,1.211-.241-.377-.602-1.787-.319-2.093.253-.273.468.349.639.526.317.327,1.181,1.297,1.468,1.478.417.265.836.205.83-.357-.006-.611-.438-1.991-.203-2.561.071-.171.292-.251.303-.443-.05-.243-.918-.15-1.113-.039.02.24.636,2.124.226,2.14-.651-.33-1.431-1.911-2.157-1.958-.09-.005-.65.098-.699.132-.276.194.06.633.092.851.041.279.093.829.101,1.113Z" fill="url(#gradientBlue)"/>
  <path d="M6.572,48.228c.151-.292.045-.665-.241-.82l-2.086.548c-.055-.628.446-.753.752-1.071.487-.507.96-1.04,1.446-1.548.396-.841-1.698-.536-2.131-.446-.246.051-.601.407-.889.238-.095-.056-.284-.58-.632-.263l.052,1.126c.292-.048.441-.327.728-.439.191-.075,1.501-.462,1.513-.169-.617,1.219-2.661,1.648-1.775,3.369.383-.149.662-.423,1.084-.508.694-.139,1.482-.093,2.179-.017Z" fill="url(#gradientBlue)"/>
  <path d="M12.092,62.54c.141-.199-.711-1.537-.886-1.762-.395-.509-1.356-1.164-2.006-.993-.68.178-1.294,1.101-1.311,1.786-.012.531.711,1.974,1.044,2.415.415.549.765-.198,1.116-.449.591-.424,1.34-.806,2.043-.997ZM9.059,63.172c-1.027-.567-.631-2.24.396-2.474.283-.065.935-.059,1.186.084.235.135.567.691.527.967-.063.434-1.677,1.223-2.109,1.423Z" fill="url(#gradientBlue)"/>
  <path d="M69.34,18.161c.263.296.422.576.751.839,1.566,1.252,3.292.333,2.846-1.724-.163-.751-.632-1.027-1.077-1.542-.132-.153-.32-.654-.521-.697-.212-.046-.346.491-.466.645-.511.651-1.42,1.3-2.187,1.604.006.482.416.608.654.875ZM69.816,17.814c.056-.204,1.549-1.592,1.737-1.646.44-.125.865.689.877,1.062.038,1.238-1.453,2.264-2.346,1.216-.144-.17-.33-.403-.268-.632Z" fill="url(#gradientBlue)"/>
  <path d="M76.7,29.328c-.127-.035-.179-.218-.35-.171-.151.172.594,2.145.772,2.453.562.97,1.927,1.252,2.75.415.515-.524.539-1.543.358-2.213-.038-.144-.159-.277-.207-.447-.083-.291-.068-.982-.307-1.104-.173-.088-.733.426-.978.525-.254.103-1.883.585-2.038.542ZM79.904,29.437c.175,1.19-.171,2.258-1.544,2.253-.91-.003-1.68-1.119-.98-1.643.274-.204,2.323-.811,2.524-.61Z" fill="url(#gradientBlue)"/>
  <path d="M47.338,4.445c-.101-1.022-1.379-1.851-2.34-1.741-.693.079-1.65.748-1.807,1.474-.596,2.759,4.429,3.109,4.147.267ZM44.994,3.176c1.801-.367,1.742,2.532.708,2.765-.867.194-1.545-.188-1.689-1.079-.094-.585.358-1.559.981-1.686Z" fill="url(#gradientBlue)"/>
  <path d="M35.915,6.582c1.126-1.032.566-2.805-.949-2.959-.788-.079-1.591.017-2.164.594-.642.646-.78,1.587-.174,2.305.8.95,2.419.856,3.287.06ZM33.165,4.907c.091-.558.44-.814.984-.89,1.095-.154,1.54.848,1.417,1.795-.092.711-.725.819-1.161,1.265-.736-.559-1.406-1.141-1.24-2.17Z" fill="url(#gradientBlue)"/>
  <path d="M17.243,16.669c.589-.652.788-2.142.155-2.819-.423-.452-1.101-.468-1.673-.382-1.364.203-2.287,1.99-1.552,3.186.615.999,2.352.811,3.07.015ZM14.953,14.285c1.292-.908,3.025,1.184,1.888,2.215-1.154,1.047-3.274-1.242-1.888-2.215Z" fill="url(#gradientBlue)"/>
  <path d="M3.541,43.465c.83-.099,1.831.053,2.668.096l-.095-1.216c-.388.135-.63.336-1.069.379-.309.031-1.595.054-1.745-.136-.773-2.078,2.158-2.692,2.629-.711.635-.039-.07-1.533-.31-1.748-.655-.588-1.794-.366-2.351.258-.566.634-.352,1.009-.427,1.723-.039.364-.334,1.389-.002,1.597.281.021.366-.202.702-.242Z" fill="url(#gradientBlue)"/>
  <path d="M9.91,58.72c.201-.274-.375-1.015-.497-1.294-.317-.729-.52-2.146-1.613-1.191.478.373.847.204,1.137.825.355.76-.025,1.218-.824,1.273-.786.053-.033-.523-.135-.871-.149-.512-1.733.3-.378.7.16.426-.517.835-.861.729-.078-.024-.524-.888-.532-.978-.024-.246.27-.5.188-.789-1.28-.051-.263,1.392-.02,2.031.094.248.127.515.218.763.125.037.263.026.386-.012.469-.144,1.277-.712,1.799-.914.4-.155.739-.156,1.132-.272Z" fill="url(#gradientBlue)"/>
  <path d="M79.788,42.464c-1.282.376-1.569,2.596-.534,3.383.26.198.654.252.883.519.366-.353.257-.953.14-1.401-.539.213-1.244.353-1.312-.422-.109-1.231,1.329-1.478,2.269-1.143.587.209.673,1.195.463,1.715-.105.262-.537.266-.574.322-.238.359.775.758.984.095.162-.513.116-1.927-.162-2.376-.483-.78-1.309-.942-2.157-.692Z" fill="url(#gradientBlue)"/>
  <path d="M7.424,51.979c.27-.566-.398-1.192-.441-1.464-.016-.103.07-.233.056-.349-.107-.882-.066-1.551-1.204-1.039-.044.199.508.35.656.558.054.074.345.794.351.86.045.507-1.249,1.012-1.414.566-.105-.282.484-.689.312-1.096-.706.009-1.152.395-.596,1.026l-.005.189c-.195.177-.511.433-.774.309-.541-.414-.429-1.206-.308-1.805-.887.022-.467.463-.383.898.105.545-.059,2.023.702,1.908.982-.334,2.002-.798,3.048-.561Z" fill="url(#gradientBlue)"/>
  <path d="M8.125,54.037c-.161-.038-.284.304-.423.417-.567.459-.884.066-1.243.137-.076.015-.113.257-.315.363-.127.066-.868.257-.955.197l-.057-.835c.523-.557.856-.023,1.357.188.156-.686-.446-1.448-1.157-1.398-1.392.097-.437,2.507-.151,3.269.296.073.377-.206.566-.321.807-.493,1.761-.697,2.707-.707.012-.442-.019-.976-.329-1.31Z" fill="url(#gradientBlue)"/>
  <path d="M60.297,10.978c.219.203.474.31.745.424.218.092.901.364,1.092.413.472.118.711-.59.469-.763-.561.027-.992.255-1.532-.053-1.541-.879.693-4.118,1.895-1.896.123.227.072.551.347.689,1.073-.577-.216-1.401-.811-1.721-1.062-.571-2.567-.074-2.706,1.21-.072.659,0,1.232.501,1.697Z" fill="url(#gradientBlue)"/>
  <path d="M58.632,9.89c.193-.006.728-.815.603-.936-.318-.087-.496.172-.729.252-1.999.681-2.198-2.571-.43-2.772,1.004-.114.988.588,1.351,1.299.206.043.371-.057.445-.249.3-.651-1.155-1.45-1.627-1.515-1.539-.211-2.833,1.12-2.039,2.6.585,1.088,1.456.882,2.426,1.321Z" fill="url(#gradientBlue)"/>
  <path d="M23.716,9.374c.025.682.23,1.345-.112,2.011.229.059.875-.213.918-.433-.332-.426-.028-1.19-.092-1.466-.049-.209-.593-.52-.356-.904.638-.075.948.522.558,1.025l.874.016c.288.094.125.79.88.475.123-.051.859-.556.771-.676-.329-.053-.61-.203-.89-.373-.628-.381-1.582-1.375-2.127-1.615-.148-.065-.291-.118-.449-.031-.271.4.068.825.101,1.223.025.294-.084.535-.076.748Z" fill="url(#gradientBlue)"/>
  <path d="M74.969,26.47c.091.278.758,1.704.912,1.892.381.467.814.314.937-.233-.746-.053-1.204-.711-1.109-1.435.107-.318.944-.378,1.196-.49.399-.176.512-.631,1.154-.489.791.174.239,1.398.48,1.575l.271.08c.091-.023.213-.153.238-.245.097-.363-1.035-2.737-1.249-2.736-.457.518-1.158,1.075-1.84,1.243-.755.185-1.349-.259-.99.838Z" fill="url(#gradientBlue)"/>
  <path d="M20.566,13.726c.155-.131.898-.982.942-1.123.112-.36-.403-.862-.523-.75-.074.458-.131,1.174-.527,1.484-1.255.983-2.789-.849-2.113-1.926.543-.867,2.231.154,1.518-1.102-.557-.253-.674.135-.996.314-.789.441-1.257.581-1.342,1.652-.146,1.838,1.722,2.561,3.041,1.451Z" fill="url(#gradientBlue)"/>
  <path d="M52.124,7.51c.581.186.427-.388.809-.604.251-.142.507-.109.784-.105.09-.267-.221-.371-.267-.534-.174-.618.742-.832.743-.168,0,.23-.189.393-.189.563-.001.153.169.332.188.561.028.352-.171.569-.153.888.09.174,1.221.422,1.268.374-.118-.896-.3-1.786-.456-2.676-.057-.323.063-.925-.238-1.168-.425-.342-.722.427-.938.668-.32.358-.623.759-.926,1.086-.24.26-1.406.865-.625,1.115Z" fill="url(#gradientBlue)"/>
  <path d="M12.869,18.935c.308-.094,1.188-.661,1.434-.452.589.499-.702,1.416-1.174,1.415l.105.36c1.003.031,1.755-1.027,1.668-1.986-.077-.854-1.114-.78-1.715-.516-.536.234-.947,1-1.45.204-.074-.708,1.33-.653,1.392-.918.042-.179-.318-.39-.477-.376-1.264.116-2.306,3.043.217,2.269Z" fill="url(#gradientBlue)"/>
  <path d="M71.013,67.453c-.439.093-1.179.769-1.561.403-.28-.269.244-1.002.604-1.079.296-.064.66.092.868-.163.064-.217-.277-.478-.434-.591-1.23.174-2.561,2.955-.568,2.771.505-.047,2.132-1.183,2.03-.221-.095.905-1.617.235-1.168.991.298.504,1.141-.225,1.357-.514.761-1.015.113-1.858-1.128-1.597Z" fill="url(#gradientBlue)"/>
  <path d="M74.855,20.692c.324.401,1.066.161,1.097.858.022.498-1.641,1.403-2.103,1.504-.195.043-.747-.074-.677.16.044.15.823,1.443.932,1.359.07-.273.158-.634.352-.844.169-.184,1.373-.891,1.618-.974.168-.057.318-.093.494-.038.376.13.261,1.079.156,1.388.401.09.792-.35.678-.72-.322-.426-1.528-2.807-1.867-2.909-.275-.082-.517-.018-.68.216Z" fill="url(#gradientBlue)"/>
  <path d="M79.624,49.781c-.223.241-.323.631-.558.846-.756.694-.91-.439-.555-1.023.157-.257.534-.25.457-.617-.783-.366-.814.273-.909.913-.096.645-.266,1.587.591,1.696.614.077.788-.167,1.157-.602.331-.39.501-1.088,1.077-.982.829.153-.644,1.505-.513,1.685.47.202.826-.036.913-.536.061-.35.162-1.351-.027-1.612-.41-.566-1.257-.174-1.633.232Z" fill="url(#gradientBlue)"/>
  <path d="M80.185,52.447c.151.515.244.948.187,1.497-.154.152-2.339-.472-2.612-.709-.124-.107-.39-.732-.567-.601l-.375,1.589c.367-.063.686-.131,1.068-.084.213.025,1.701.502,1.83.6.724.555-.715,1.334-.56,1.542.171.044.484.071.629-.025.06-.04.24-.407.286-.51.189-.429.788-2.387.774-2.783-.017-.434-.236-.582-.66-.516Z" fill="url(#gradientBlue)"/>
  <path d="M3.823,38.69c.273.004,1.089.151,1.377.22.409.097.778.191,1.055.534.342,0,.216-1.62.235-1.915.052-.788.633-1.369-.656-1.45.249.593.518.991.312,1.668-.274.902-.909.281-1.393.208-.266-.041-.554.02-.829-.014-.471-.057-.914-.53-1.059.265-.195,1.064.359.477.958.484Z" fill="url(#gradientBlue)"/>
  <path d="M6.06,29.165c.379.045,1.494.5,1.744.781.146.164.212.523.414.522.081,0,.694-1.357.601-1.489-.384-.17-.7.051-1.139-.031-.15-.029-1.6-.611-1.659-.678-.388-.438.201-1.071.561-1.313-.155-.539-.73-.044-.863.261-.087.197-.058.435-.135.613-.109.248-.289.434-.376.653-.424,1.074.221.606.852.681Z" fill="url(#gradientBlue)"/>
  <path d="M27.256,6.562c.133.115.618,1.327.679,1.566.226.905-.356,1.411.813.874l.747-.469c-1.088-.382-1.48-1.992-1.403-3.041-.473-.139-.741.285-1.037.413-.621.268-1.944.383-1.161,1.363.271-.591.637-1.33,1.362-.706Z" fill="url(#gradientBlue)"/>
  <path d="M49.303,6.663c-.67-.682-.122-.97-.075-1.507.021-.237-.112-.425-.075-.714.043-.338.329-.699.535-.961-.225-.322-.9-.416-1.24-.312-.314.096.001.389.028.598.111.865-.644,2.258-.561,2.799.053.349,1.363.458,1.388.097Z" fill="url(#gradientBlue)"/>
  <path d="M30.993,8.111l1.4-.514c-1.03-.659-1.064-2.032-1.225-3.122-1.753.126-1.175.109-.719,1.14.333.753.528,1.676.544,2.496Z" fill="url(#gradientBlue)"/>
  <path d="M72.187,21.766c.478-.551,1.046-1.124,1.683-1.495.292-.171.954-.325,1.076-.421.216-.17-.249-.859-.374-.935-.483-.294-.657.315-.889.514-.525.452-1.405,1.042-2.096,1.13-.104.507.315.857.6,1.207Z" fill="url(#gradientBlue)"/>
  <path d="M20.976,9.944c.231.224.963,1.443,1.058,1.748.073.23.007.78.21.719.192-.058.792-.349.898-.506.264-.393-.138-.392-.289-.591-.527-.696-1.161-1.584-1.318-2.443-.196-.125-.863.267-1.017.409-.348.321.277.489.458.664Z" fill="url(#gradientBlue)"/>
  <path d="M78.64,46.65c-.162.007-.362,1.092-.146,1.266.136.096,1.935.087,2.292.141.375.056.649.43.761.456.298.07.487-1.064.325-1.168-1.096-.113-2.331.058-3.232-.695Z" fill="url(#gradientBlue)"/>
  <path d="M15.525,66.858c-.414.747-1.128,1.42-1.788,1.958-.188.154-.599.237-.606.511-.007.278.468.694.743.568.188-.085.95-1.09,1.268-1.357.349-.293.697-.593,1.163-.663.02-.339-.355-1.165-.78-1.017Z" fill="url(#gradientBlue)"/>
  <path d="M4.431,37.411c.067.106.3.145.283.351.274-.214.848-.49.563-.892-.524-.108-1.273-.136-.846.541Z" fill="url(#gradientBlue)"/>
  <path d="M50.245,5.667c.102-.064.212-.905-.034-1.014-1.14.164-.545,1.375.034,1.014Z" fill="url(#gradientBlue)"/>
  <path d="M4.008,36.264l.049-.372c-1.006-.152-.839.565-.841,1.309l.792-.937Z" fill="url(#gradientBlue)"/>
  <path d="M77.752,26.632c-.374-.114-.769-.224-.957.21-.444,1.023,1.224.185.957-.21Z" fill="url(#gradientBlue)"/>
  <path d="M80.308,40.224c-.102.115-.279.491-.177.63l.714.047c.263-.184.019-1.308-.537-.677Z" fill="url(#gradientBlue)"/>
  <path d="M68.651,14.31c-.687.018-.453.993-.298,1.001.421-.143,1.126-1.022.298-1.001Z" fill="url(#gradientBlue)"/>
  <path d="M50.154,3.769c.306.228.622.553,1.038.507.159-.733-.68-.731-1.215-.747-.056.242.072.163.177.24Z" fill="url(#gradientBlue)"/>
  <path d="M5.384,30.405c-.047-.131-.29-.697-.347-.78-.086-.124-.307-.005-.316.01-.053.085-.02.528.037.645.087.181.796.606.626.125Z" fill="url(#gradientBlue)"/>
  <path d="M29.402,5.679l-.107-.547c-1.312-.17-.861.602.107.547Z" fill="url(#gradientBlue)"/>
  <path d="M34.515,50.499c-3.086,1.902-6.08,7.434-5.767,11.065.177,2.046,1.975,3.136,3.771,1.998,1.942-1.231,3.995-4.657,4.811-6.787.554-1.447,1.702-5.257.456-6.447-.849-.811-2.382-.378-3.271.171ZM37.324,53.869c-.475,2.553-2.955,7.755-5.334,8.976-2.706,1.387-2.559-2.13-2.187-3.777.518-2.291,3.471-7.691,5.932-8.191.235-.047,1.159-.065,1.364-.003.582.175.324,2.458.225,2.995Z" fill="url(#gradientBlue)"/>
  <path d="M52.846,49.862c-3.363-.13-6.53,5.167-7.455,7.96-.733,2.211-1.282,6.859,2.44,6.088,2.015-.417,4.608-4.789,5.372-6.6.624-1.479,1.632-4.747,1.092-6.236-.256-.706-.652-1.181-1.449-1.212ZM48.381,62.682c-1.245.778-2.481.544-2.68-1.049-.399-3.204,2.433-8.538,5.146-10.233.487-.304,1.896-.87,2.375-.514.213.158.381.771.406,1.043.254,2.79-2.835,9.247-5.247,10.753Z" fill="url(#gradientBlue)"/>
</svg>