<?xml version="1.0" encoding="UTF-8"?>
<svg id="Ebene_1" xmlns="http://www.w3.org/2000/svg" version="1.1" viewBox="0 0 85 85">
  <!-- Generator: Adobe Illustrator 29.6.1, SVG Export Plug-In . SVG Version: 2.1.1 Build 9)  -->
  <defs>
    <linearGradient id="formGradient" x1="0%" y1="0%" x2="100%" y2="0%">
      <stop offset="0%" style="stop-color:#004F70;stop-opacity:1" />
      <stop offset="100%" style="stop-color:#009BD2;stop-opacity:1" />
    </linearGradient>
  </defs>
  <polygon points="57.655 75.16 59.067 74.47 57.528 73.109 57.655 75.16" fill="url(#formGradient)"/>
  <path d="M9.402,37.633c.153-1.052-.497-1.954-1.616-2.117-1.119-.163-1.999.516-2.153,1.568-.153,1.051.497,1.953,1.616,2.117,1.119.163,2-.517,2.153-1.568Z" fill="url(#formGradient)"/>
  <polygon points="10.49 23.96 11.987 25.919 12.934 24.286 10.49 23.96" fill="url(#formGradient)"/>
  <polygon points="36.992 78.043 38.551 78.251 38.022 76.265 36.992 78.043" fill="url(#formGradient)"/>
  <path d="M42.5,0C19.028,0,0,19.028,0,42.5s19.028,42.5,42.5,42.5,42.5-19.028,42.5-42.5S65.972,0,42.5,0ZM78.713,29.453l-2.561,3.904,3.446-1.081.407,1.297-5.676,1.782-.339-1.079,2.558-3.912-3.446,1.082-.408-1.298,5.677-1.781.342,1.086ZM77.673,26.767l-.979.512-1.451-2.771-1.145.599,1.281,2.447-.949.497-1.281-2.448-1.22.639,1.502,2.869-.979.513-2.137-4.082,5.272-2.759,2.086,3.984ZM72.25,42.5c0,16.431-13.32,29.75-29.75,29.75s-29.75-13.319-29.75-29.75,13.32-29.75,29.75-29.75,29.75,13.32,29.75,29.75ZM71.09,16.705l-1.481,4.055,4.255-.614.71.88-4.622,3.748-.811-1.006,2.774-2.247-3.388.483-.39-.483,1.136-3.155-2.719,2.193-.811-1.006,4.632-3.735.715.887ZM69.043,14.603l-.711.846-2.395-2.012-.831.989,2.115,1.777-.688.82-2.116-1.776-.886,1.054,2.481,2.083-.711.846-3.528-2.963,3.826-4.556,3.444,2.892ZM57.777,10.371c.901-1.551,2.736-1.969,4.375-1.017.904.525,1.475,1.27,1.637,2.141l-1.174.261c-.144-.615-.471-1.05-.993-1.353-1-.581-2.072-.309-2.64.668-.559.963-.272,2.044.712,2.616.324.188.659.304,1.055.318l.875-1.507,1.088.632-1.213,2.087c-.813.098-1.725-.127-2.46-.554-1.617-.94-2.163-2.741-1.262-4.292ZM56.122,6.566l.506,6.497-1.361-.485-.068-1.378-2.601-.929-.925,1.024-1.329-.474,4.498-4.712,1.28.457ZM45.767,4.143l1.126.174,2.371,4.022.552-3.57,1.344.208-.909,5.88-1.117-.173-2.38-4.023-.552,3.57-1.344-.208.909-5.88ZM40.557,4.156l1.359-.048,2.865,5.854-1.444.05-.571-1.256-2.76.096-.483,1.292-1.41.05,2.444-6.038ZM31.248,5.742l3.044,3.061,1.25-4.113,1.098-.269,1.432,5.776-1.255.307-.857-3.466-1.002,3.274-.602.147-2.374-2.368.831,3.394-1.255.307-1.416-5.779,1.106-.271ZM22.657,9.626l2.669,1.546.114-3.083,1.183-.654-.167,4.482,1.019,1.845-1.205.666-1.028-1.86-3.865-2.235,1.28-.707ZM21.167,10.507l.686.888-1.507,1.164,2.952,3.821-1.089.842-2.952-3.821-1.507,1.164-.686-.888,4.103-3.17ZM16.321,14.466l4.148,4.266-.987.96-4.148-4.266.987-.96ZM12.614,18.474l3.727,3.07,1.897-2.302.866.713-2.773,3.366-4.592-3.784.875-1.063ZM9.667,22.687l6.481.683-.725,1.25-1.367-.184-1.386,2.39.839,1.095-.708,1.221-3.816-5.279.682-1.176ZM5.938,30.885l3.092,1.098c1.065.378,1.671.07,1.95-.715.281-.793.003-1.406-1.063-1.784l-3.092-1.099.455-1.281,3.141,1.115c1.65.586,2.227,1.855,1.661,3.45-.566,1.594-1.815,2.214-3.465,1.628l-3.14-1.115.461-1.297ZM4.473,36.914c.269-1.85,1.756-3.034,3.514-2.778,1.38.201,2.35,1.21,2.571,2.523.344-.242.49-.479.533-.773.053-.362-.043-.702-.298-1.023l.812-.5c.415.455.586,1.048.492,1.695-.128.875-.537,1.442-1.628,2.211-.437,1.586-1.823,2.544-3.421,2.311-1.75-.255-2.846-1.807-2.575-3.666ZM7.514,56.936l4.557-1.954.453,1.054-4.558,1.955-.452-1.055ZM10.787,63.291l-.467-.818,1.387-3.641-2.614,1.494-.563-.984,4.306-2.46.471.824-1.391,3.634,2.614-1.494.562.984-4.305,2.461ZM15.276,67.505c.331.369.758.547,1.27.535l-.014,1.002c-.74.036-1.449-.289-2.026-.932-1.027-1.144-.997-2.713.116-3.711,1.112-.998,2.675-.858,3.706.292.572.638.818,1.378.708,2.105l-.998-.094c.062-.504-.069-.947-.4-1.316-.62-.691-1.545-.746-2.241-.122-.696.625-.741,1.55-.121,2.241ZM19.534,72.666l-2.765-2.359,3.218-3.772.873.745-2.611,3.061,1.892,1.613-.607.712ZM20.267,73.148l2.86-4.05.937.661-2.859,4.051-.938-.662ZM25.552,76.397l-.721-3.828-1.447,2.64-.993-.545,2.383-4.348.832.456.715,3.825,1.447-2.64.993.545-2.383,4.348-.826-.453ZM27.74,77.391l1.873-4.592,1.062.434-1.872,4.591-1.063-.433ZM32.727,78.183c.477.138.933.062,1.36-.22l.521.857c-.608.422-1.382.524-2.212.285-1.477-.425-2.285-1.77-1.871-3.206.413-1.436,1.811-2.147,3.295-1.72.824.237,1.425.734,1.717,1.408l-.895.45c-.214-.46-.561-.766-1.038-.903-.892-.257-1.705.188-1.963,1.086-.259.899.194,1.707,1.086,1.963ZM39.089,80.273l-.295-1.112-2.282-.303-.576.995-1.165-.155,2.845-4.624,1.124.15,1.543,5.208-1.194-.159ZM41.146,80.403l-.021-4.958,1.148-.005.016,4.024,2.487-.011.003.936-3.633.014ZM49.999,79.664l-1.129.208-.728-3.956-1.56.287-.169-.92,4.248-.782.17.92-1.561.287.729,3.956ZM52.46,79.126l-1.513-4.721,3.568-1.144.281.877-2.482.796.329,1.025,2.192-.703.272.85-2.192.703.35,1.092,2.57-.823.281.876-3.656,1.172ZM60.635,75.856l-.86-.762-2.069,1.01.071,1.148-1.056.516-.19-5.425,1.018-.498,4.168,3.483-1.082.528ZM64.402,73.589c-1.267.871-2.818.641-3.666-.59-.847-1.232-.509-2.763.763-3.639.707-.486,1.473-.635,2.179-.433l-.221.978c-.491-.126-.948-.053-1.356.228-.765.527-.938,1.437-.408,2.207.531.77,1.442.933,2.207.407.408-.281.64-.681.694-1.191l.992.142c-.06.738-.472,1.401-1.184,1.891ZM69.405,69.28l-1.398-1.477-1.635,1.549,1.397,1.476-.833.789-3.409-3.6.834-.789,1.344,1.419,1.635-1.548-1.344-1.42.833-.788,3.409,3.6-.833.789ZM71.17,67.362l-3.793-3.194.739-.878,3.794,3.194-.74.878ZM74.858,62.377l-3.876.388,2.505,1.67-.628.943-4.127-2.75.526-.79,3.873-.382-2.505-1.67.628-.943,4.127,2.75-.523.784ZM77.214,58.074c-.649,1.417-2.1,2.015-3.459,1.392-1.358-.623-1.852-2.112-1.194-3.548.363-.792.934-1.325,1.644-1.529l.311.953c-.498.169-.834.475-1.043.932-.401.876-.09,1.743.766,2.136.844.386,1.717.062,2.113-.801.13-.283.199-.571.178-.9l-1.319-.605.436-.953,1.829.838c.146.667.033,1.442-.262,2.085ZM79.592,38.207l-4.785.643-.183-1.365,4.785-.643-.253-1.887,1.112-.149.69,5.139-1.112.149-.254-1.887Z" fill="url(#formGradient)"/>
  <polygon points="41.275 5.483 40.411 7.792 42.297 7.727 41.275 5.483" fill="url(#formGradient)"/>
  <polygon points="55.02 7.607 53.366 9.435 55.143 10.07 55.02 7.607" fill="url(#formGradient)"/>
  <path d="M23.245,38.518c.923.797,2.022,1.407,3.298,1.832,1.275.425,2.682.638,4.22.638s2.945-.213,4.221-.638,2.375-1.035,3.298-1.832c.923-.796,1.637-1.778,2.144-2.945.506-1.167.76-2.483.76-3.949s-.254-2.782-.76-3.949c-.507-1.167-1.221-2.149-2.144-2.945-.923-.796-2.022-1.407-3.298-1.832-1.276-.425-2.683-.638-4.221-.638s-2.945.213-4.22.638c-1.276.425-2.375,1.036-3.298,1.832-.923.796-1.638,1.778-2.144,2.945-.507,1.167-.76,2.483-.76,3.949s.253,2.782.76,3.949c.506,1.167,1.221,2.149,2.144,2.945ZM24.629,28.435c.253-1.005.647-1.896,1.181-2.674.533-.778,1.212-1.393,2.036-1.846.823-.452,1.795-.678,2.917-.678s2.095.226,2.918.678c.823.453,1.502,1.068,2.036,1.846.533.778.927,1.669,1.181,2.674.253,1.004.38,2.067.38,3.189,0,1.104-.127,2.162-.38,3.175-.254,1.014-.648,1.91-1.181,2.688-.534.778-1.213,1.393-2.036,1.845-.823.453-1.796.679-2.918.679s-2.094-.226-2.917-.679c-.824-.452-1.503-1.067-2.036-1.845-.534-.778-.928-1.674-1.181-2.688-.253-1.013-.38-2.071-.38-3.175,0-1.122.127-2.185.38-3.189Z" fill="url(#formGradient)"/>
  <path d="M64.187,42.195v-.652c-1.593.109-3.194.163-4.805.163-.705,0-1.411-.018-2.117-.054-.706-.036-1.411-.072-2.117-.109v.652c.145.018.33.054.556.108.227.054.453.122.679.204.226.081.421.185.584.312.162.127.244.271.244.434,0,.127-.086.439-.258.937s-.389,1.09-.651,1.777c-.263.688-.557,1.425-.883,2.212-.325.788-.642,1.539-.95,2.253-.307.715-.588,1.344-.841,1.887-.254.543-.443.914-.57,1.113-.434-1.176-.891-2.316-1.371-3.42-.479-1.104-.918-2.104-1.316-2.999-.398-.896-.724-1.652-.977-2.267-.254-.615-.38-1.022-.38-1.221,0-.489.163-.819.488-.991.326-.172.697-.285,1.113-.339v-.652c-.651.073-1.312.118-1.981.136-.67.018-1.33.027-1.982.027-.759,0-1.524-.018-2.293-.054-.769-.036-1.534-.072-2.294-.109v.274l-.119-.096c-.706.851-1.435,1.457-2.185,1.819-.751.361-1.679.543-2.782.543-.797,0-1.661-.145-2.593-.435-.932-.289-1.877-.61-2.836-.963-.959-.353-1.905-.679-2.836-.977-.933-.299-1.805-.448-2.619-.448-.779,0-1.548.076-2.308.231-.76.153-1.475.456-2.144.909l.244.57c.326-.2.742-.363,1.249-.489.506-.127.986-.19,1.438-.19.634,0,1.249.109,1.846.326.597.217,1.194.493,1.792.828.597.334,1.194.692,1.791,1.072s1.212.737,1.846,1.072c.633.335,1.289.611,1.967.828.679.217,1.38.326,2.104.326.796,0,1.524-.132,2.185-.394.66-.263,1.262-.607,1.805-1.031.543-.426,1.027-.914,1.452-1.466.397-.515.748-1.042,1.059-1.581.402.1.8.25,1.192.453.506.263.913.629,1.221,1.099-.362,1.918-.656,3.832-.882,5.741-.227,1.909-.493,3.823-.801,5.74-.072.489-.163.942-.271,1.358-.109.416-.267.783-.475,1.099-.209.317-.489.574-.842.773-.352.2-.8.326-1.343.38v.543c.633-.036,1.262-.063,1.886-.081.624-.019,1.253-.027,1.887-.027.597,0,1.189.008,1.777.027.588.018,1.181.045,1.778.081v-.543c-.706-.108-1.258-.266-1.655-.475-.399-.208-.697-.479-.896-.814-.199-.335-.322-.742-.367-1.221-.045-.48-.068-1.027-.068-1.642,0-1.213.041-2.276.123-3.19.081-.913.18-1.755.298-2.524.118-.769.24-1.502.367-2.198.126-.697.235-1.434.325-2.212h.055c.579,1.176,1.162,2.411,1.75,3.704.588,1.294,1.149,2.584,1.683,3.868.534,1.285,1.013,2.534,1.439,3.746.425,1.212.773,2.325,1.045,3.338h.733c.253-1.284.601-2.542,1.045-3.772.443-1.231.922-2.457,1.438-3.678.516-1.222,1.031-2.438,1.547-3.651.516-1.212.964-2.452,1.344-3.718h.054c.072.271.167.742.285,1.411.118.67.249,1.43.394,2.28.144.851.293,1.742.447,2.674.154.932.29,1.791.408,2.578.117.787.217,1.452.298,1.995.082.543.122.86.122.95,0,.543-.095.968-.285,1.276-.19.307-.447.547-.773.719s-.692.294-1.099.366c-.408.073-.828.154-1.263.245v.488c.923-.036,1.841-.063,2.755-.081.914-.019,1.832-.027,2.755-.027.688,0,1.38.008,2.077.027.696.018,1.388.045,2.076.081v-.543c-.344-.054-.651-.117-.923-.19-.271-.072-.507-.176-.706-.312-.199-.136-.371-.312-.515-.529-.145-.217-.281-.497-.407-.842-.037-.09-.109-.429-.218-1.017-.108-.588-.24-1.303-.393-2.145-.154-.841-.312-1.755-.475-2.741-.163-.986-.312-1.918-.448-2.796-.136-.877-.249-1.642-.339-2.293-.091-.652-.136-1.076-.136-1.276,0-.923.244-1.565.733-1.927.488-.362,1.158-.579,2.009-.651Z" fill="url(#formGradient)"/>
  <polygon points="29.42 55.542 28.082 51.425 26.746 55.542 22.416 55.542 25.918 58.086 24.58 62.203 28.082 59.659 31.584 62.203 30.247 58.086 33.749 55.542 29.42 55.542" fill="url(#formGradient)"/>
  <polygon points="53.427 33.357 56.929 30.813 60.431 33.357 59.094 29.24 62.596 26.695 58.267 26.695 56.929 22.578 55.591 26.695 51.263 26.695 54.765 29.24 53.427 33.357" fill="url(#formGradient)"/>
</svg>