<?xml version="1.0" encoding="UTF-8"?>
<svg id="Ebene_1" xmlns="http://www.w3.org/2000/svg" version="1.1" viewBox="0 0 85 85">
  <!-- Generator: Adobe Illustrator 29.6.1, SVG Export Plug-In . SVG Version: 2.1.1 Build 9)  -->
  <defs>
    <linearGradient id="gradientBlue" x1="0%" y1="0%" x2="100%" y2="0%">
      <stop offset="0%" style="stop-color:#004F70;stop-opacity:1" />
      <stop offset="100%" style="stop-color:#009BD2;stop-opacity:1" />
    </linearGradient>
  </defs>
  <path d="M84.91,65.424c-.292-.13-1.109-.916-1.523-1.162-.301-.179-.865-.512-1.199-.415-.106.031-.765.686-.846.811-.386.592-.763,1.658-1.211,2.296-4.714,6.72-10.962,6.076-17.307,2.107-6.391-3.999-11.759-9.41-18.193-13.408-8.064-5.011-18.768-9.718-27.793-3.971-1.588,1.011-2.308,2.657-3.205-.205-1.603-5.114-2.169-11.247-2.336-16.615-.233-7.519.595-14.869,4.888-21.086,4.563-6.61,11.549-9.51,19.599-8.609,14.856,1.662,19.182,19.89,18.482,32.265-.307,5.433-1.429,9.271-3.264,14.252-.373,1.009-1.461,1.735-.147,2.722.968.728,2.391,1.505,3.443,2.136.548.327.868.916,1.654.68.121-.036.784-.708.901-.853,2.865-3.573,5.435-8.953,6.908-13.305,2.783-8.22,1.707-17.108-1.712-24.897-.773-1.761-1.983-3.608-3.068-5.185-3.897-5.667-10.285-9.916-16.929-11.679-.898-.239-1.93-.269-2.831-.582l-2.793-.512s-3.004-.3-6.088-.18c-.127.005-5.176.701-5.176.701-6.256,1.308-12.023,4.752-16.349,9.425C4.846,14.44,1.942,20.626.773,26.346c-.23,1.124-.265,2.293-.558,3.406l-.191,3.116-.024,3.519.224,4.39c.203,1.019.307,2.103.547,3.11,1.48,6.219,4.907,12.739,9.339,17.372.367.384,1.373,1.465,1.811,1.605.345.109,1.045-.704,1.299-.985,2.095-2.32,3.578-4.25,6.78-5.198,5.436-1.609,9.084,2.456,12.786,5.501,4.467,3.673,8.996,7.308,13.302,11.168,4.825,4.327,8.536,8.64,14.851,10.967.564.208,1.229.32,1.802.524l2.215.119,3.318.042,2.034-.229c2.476-.82,4.539-2.68,6.268-4.576,3.207-3.518,5.733-8.264,7.7-12.518.212-.458.205-1.068.632-1.431l.092-.289c-.175.003.078-.459-.09-.534Z" fill="url(#gradientBlue)"/>
  <path d="M17.864,39.071l-2.604,6.741h.953l.745-2.041h2.835l.79,2.041h1.022l-2.774-6.741h-.967ZM17.217,43.044l.744-1.978c.157-.426.279-.855.365-1.288.105.365.266.831.481,1.398l.708,1.867h-2.298Z" fill="url(#gradientBlue)"/>
  <path d="M27.66,40.91c0-.371-.094-.71-.282-1.016s-.439-.52-.754-.641c-.314-.121-.774-.182-1.378-.182h-3.006v6.741h.897v-2.994h1.041c.231,0,.397.011.499.033.139.034.275.093.409.179.134.086.286.237.456.45.169.215.385.525.647.929l.897,1.403h1.129l-1.179-1.834c-.235-.359-.483-.658-.745-.897-.123-.11-.304-.223-.541-.336.65-.088,1.131-.297,1.443-.625.311-.328.467-.731.467-1.209ZM26.555,41.514c-.121.186-.296.32-.528.405-.231.085-.552.126-.962.126h-1.928v-2.23h2.146c.502,0,.87.103,1.103.308.233.206.349.467.349.786,0,.218-.06.42-.18.605Z" fill="url(#gradientBlue)"/>
  <path d="M31.172,39.071l-2.604,6.741h.953l.745-2.041h2.835l.79,2.041h1.022l-2.774-6.741h-.967ZM30.525,43.044l.744-1.978c.157-.426.279-.855.365-1.288.105.365.266.831.481,1.398l.708,1.867h-2.298Z" fill="url(#gradientBlue)"/>
  <path d="M36.309,45.483c.458.296,1.052.443,1.783.443.706,0,1.303-.192,1.792-.577.489-.385.827-.944,1.015-1.676l-.897-.225c-.123.567-.359.994-.708,1.283-.348.288-.774.433-1.276.433-.413,0-.797-.106-1.152-.318-.354-.211-.616-.531-.784-.958-.168-.428-.252-.928-.252-1.501,0-.444.071-.876.213-1.295.142-.419.388-.752.738-1,.35-.248.785-.372,1.306-.372.453,0,.83.111,1.129.335s.527.582.684,1.072l.884-.207c-.182-.622-.505-1.106-.967-1.449-.463-.343-1.033-.515-1.711-.515-.598,0-1.146.135-1.644.407-.498.271-.882.669-1.152,1.191-.27.523-.405,1.135-.405,1.837,0,.643.12,1.246.359,1.807.239.562.587.989,1.045,1.286Z" fill="url(#gradientBlue)"/>
  <rect x="41.865" y="39.07" width=".897" height="6.741" fill="url(#gradientBlue)"/>
</svg>