<?xml version="1.0" encoding="UTF-8"?>
<svg id="Ebene_2" data-name="Ebene 2" xmlns="http://www.w3.org/2000/svg" xmlns:xlink="http://www.w3.org/1999/xlink" viewBox="0 0 175.16 64.43">
  <defs>
    <linearGradient id="gradientBlue" x1="0%" y1="0%" x2="100%" y2="0%">
      <stop offset="0%" style="stop-color:#004F70;stop-opacity:1" />
      <stop offset="100%" style="stop-color:#009BD2;stop-opacity:1" />
    </linearGradient>
    <style>
      .cls-1 {
        fill: none;
      }

      .cls-2 {
        fill: url(#gradientBlue);
      }

      .cls-3 {
        clip-path: url(#clippath);
      }
    </style>
    <clipPath id="clippath">
      <rect class="cls-1" width="175.16" height="64.43"/>
    </clipPath>
  </defs>
  <g id="Ebene_1-2" data-name="Ebene 1">
    <g class="cls-3">
      <path class="cls-2" d="M165.04,50.21c-.29.06-.48.34-.78.38-.62.08-1.42-.58-1.2-1.21.21-.6.79-.73,1.36-.63.2.03.28.17.41.21.51.14,1.16-.41.67-.83-.49-.42-1.11-.57-1.75-.52-2.3.21-2.81,3.2-.45,4.01.88.3,1.73-.04,2.37-.63.14-.29-.4-.79-.64-.79M163.76,46.31c-.55.04-1.61.67-1.98,1.1-1.66,1.89-.68,4.99,1.7,5.59,1.52.38,3.15-1.21,3.56-2.56.58-1.91-1.29-4.29-3.28-4.13M167.68,51.85c-2.54,4.47-8.41,1.98-7.9-2.82.16-1.49,1.74-3.54,3.28-3.79,3.73-.63,6.49,3.32,4.62,6.62M15.28,51.75c3.14,0,4.96-3.64,3.07-6.15-.93-1.24-2.23-1.61-3.74-1.44-1.31.14-2.73,1.53-3.04,2.8-.59,2.38,1.27,4.79,3.71,4.79M128.47,39.87l-.02-13.9c-.07-.28-.29-.39-.57-.43-.47-.07-2.71-.08-3.13.01-.32.07-.34.35-.37.63l.02,13.82c.05.27.13.39.41.44.5.08,2.64.07,3.13-.01.31-.06.5-.23.52-.56M84.42,17.68c.31-.22.48-.41.52-.79.11-1.2.11-3.65,0-4.85-.07-.73-.65-.73-1.27-.65-.43.05-.47.25-.5.65-.1,1.22.16,2.75,0,3.93-.04.31-.4.5-.66.65-3.26,1.9-7.78.38-8.94-3.29-1.73-5.46,4.09-10.1,9.03-7.18.31.18.9.78,1.22.79.47.03,1.42-.86.8-1.43-1.6-1.46-3.76-2.15-5.94-2.02-5.84.37-9.18,6.89-6.23,11.95,2.53,4.34,7.97,5.03,11.96,2.24M118.53,55.03c-.54-1.65-1.63-3.66-2.33-5.28-.1-.23-.43-1.61-.77-1.54l-3.03,7.33c.21.34.51.13.79.13,1.74-.02,3.48.04,5.22-.01.27-.18.19-.37.11-.62M122.72,59.99c.15.35.84,1.23.29,1.48-.16.07-1.2.07-1.42.04-.55-.09-.54-.65-.72-1.05-.23-.5-.53-1.05-.74-1.56-.22-.51-.22-1.29-1-1.31l-7.53.02c-.11.03-.22.17-.27.26-.46.76-.7,1.74-1.07,2.54-.16.34-.44,1.05-.82,1.1-.26.03-1.44.06-1.54-.16-.21-.43.11-.57.23-.84,2.07-4.67,4.03-9.44,6.1-14.12.11-.24.33-.64.61-.7.35-.08,1.62-.1,1.83.22.54,1.28,1.06,2.57,1.62,3.84,1.49,3.38,2.97,6.82,4.44,10.24M80.86,54.39c-.66-1.59-1.36-3.15-2.02-4.74-.09-.22-.38-1.5-.71-1.43l-3.04,7.32c.19.32.46.12.72.13,1.77,0,3.53.01,5.3,0,.41-.44-.09-.89-.25-1.27M85.66,60.43c.13.29.45.85.04,1.03-.26.11-1.59.12-1.81-.19l-1.4-3.29c-.14-.25-.37-.43-.67-.41l-7.58.04-.24.22c-.39.86-.7,1.83-1.1,2.67-.07.14-.43.84-.49.89-.18.15-1.48.16-1.7.07-.56-.25,0-.75.13-1.02,2.06-4.38,3.85-8.97,5.84-13.38.18-.4.33-1.27.84-1.39.32-.07,1.59-.09,1.78.18.26.37.49,1.25.69,1.7,1.9,4.26,3.78,8.59,5.67,12.86M144.87,13.34c.03.11.14.2.26.21l5.58-.03c.68-.31.06-.94-.12-1.35-.66-1.55-1.32-3.09-1.98-4.64-.21-.49-.24-1.25-.79-1.51-.11.02-.72,1.83-.83,2.09-.48,1.14-.96,2.28-1.43,3.42-.16.4-.81,1.43-.69,1.81M140.27,19.16c-.22-.38.18-.63.29-.87,2.08-4.63,4.03-9.36,6.05-14.02.12-.28.36-.7.69-.78.29-.07,1.41-.06,1.64.1.26.19.65,1.44.81,1.8,1.82,4.1,3.6,8.24,5.38,12.38.14.32.78,1.17.38,1.46-.22.16-1.61.14-1.84-.07-.38-.82-.77-1.65-1.13-2.48-.24-.56-.21-1.21-1.02-1.29l-7.51.04c-.14.05-.22.12-.29.25-.44.81-.7,1.78-1.08,2.61-.06.13-.44.87-.48.9-.21.19-1.75.19-1.88-.03M90.35,19.31c3.1.28,6.63-.22,9.78,0,.9.08.7-1.77.06-1.91-2.5.02-5.02-.08-7.52-.02-.4.01-.84.29-.96-.34.13-1.32-.16-2.95,0-4.24.02-.13.03-.23.16-.3l7.04-.04c.86.11.75-1.81.15-1.92l-7.24-.07-.11-.27.04-4.66.3-.16,7.75-.02c.61-.05.58-.93.52-1.4-.05-.43-.25-.47-.65-.5-3.01-.25-6.4.18-9.44.02l-.37.17-.03,15.42c.14.19.32.21.54.23M136.92,51.62c.25-2.27-1.1-3.84-3.34-4.03-1.54-.13-3.27.08-4.83.01l-.17.14v6.77s.11.19.11.19c1.61,0,3.37.17,4.95-.05,1.74-.24,3.07-1.2,3.27-3.04M135.56,56.15c-.29.29.44.88.63,1.14.76,1.08,1.51,2.26,2.24,3.37.12.18.65.59.19.81-.21.1-1.65.07-1.84-.08-.17-.13-.75-1-.92-1.24-.27-.4-.53-.95-.79-1.36-.22-.33-1.35-2.06-1.54-2.15-.12-.05-.2-.05-.32-.06-1.41-.13-3.07.07-4.5.04-.36.26-.15.53-.15.84,0,1.24.02,2.49-.04,3.73-.11.49-1.58.37-1.81.11-.28-.31-.08-.52-.07-.84.07-4.55.03-9.13,0-13.69,0-.43-.26-.83.3-1.08,2.19.04,4.56-.18,6.74-.04,1.73.11,3.76,1.06,4.55,2.68,1.17,2.41.75,5.69-1.57,7.23-.22.15-.96.45-1.08.57M106.96,12.32l.12.19c1.63,0,3.41.17,5.02-.06,2.22-.32,3.46-1.8,3.22-4.09-.19-1.74-1.62-2.79-3.28-2.95-1.55-.15-3.33.09-4.9.01l-.17.14v6.77ZM105.01,18.96l.04-15.26c.15-.19.39-.21.61-.23,1.68-.15,4.52-.1,6.24,0,1.19.07,2.64.52,3.57,1.27,2.51,2.01,2.33,6.85-.37,8.62-.23.15-1.25.54-1.23.82.01.16.58.71.71.9.77,1.09,1.51,2.25,2.24,3.37.16.24.52.35.27.74-.14.18-1.71.16-1.93-.01-.14-.11-.77-1.02-.91-1.24-.43-.63-.79-1.38-1.21-2.02-.33-.5-.7-.99-1.07-1.47h-4.92c-.29.27-.11.57-.11.88,0,1.06.09,2.37,0,3.39-.02.17-.04.39-.19.5-.18.13-1.7.22-1.74-.28M154.16,49.4c-2.46-2.51-5.39-1.66-8.58-1.81l-.27.11.03,11.87c.26.19.52.02.79.01,3.25-.05,6.47.65,8.6-2.4,1.66-2.37,1.5-5.7-.55-7.78M155.39,59.32c-3.2,3.18-7.51,1.95-11.58,2.19l-.46-.23-.04-15.18c0-.23.17-.34.37-.4,2.26.07,4.66-.15,6.91-.02,6.76.4,9.48,9.01,4.81,13.65M160.81,19.24c.06-.06.1-.19.11-.28l.02-11.59c.11-.2.24-.17.36,0,.19.25.36.63.56.9,2.16,2.89,4.25,5.84,6.42,8.73.44.58,1.07,1.51,1.53,2,.44.47,1.53.39,2.08.16V3.63c-.2-.21-1.77-.35-1.81.19v11.59c-.12.21-.25.14-.39.01-.24-.22-.72-1.08-.96-1.42-2.36-3.22-4.69-6.48-7.14-9.62-.29-.37-.37-.82-.93-.91-.26-.04-.94-.03-1.21.01-.33.06-.45.21-.45.56l.07,15.07c.2.28,1.61.24,1.74.11M128.25,15.95c.32.62.53,1.75,1.41,1.75s1.11-1.23,1.43-1.88c1.45-2.94,3-5.86,4.41-8.81l.19.12v11.91c0,.33,1.43.42,1.69.08.24-.31.07-.52.07-.84,0-4.59,0-9.18,0-13.77,0-.4.22-.93-.42-1.03-.43-.07-1.64-.09-1.92.23l-5.26,10.5c-.1.25-.32.25-.42,0l-5-10.07c-.09-.15-.35-.52-.48-.59-.26-.15-2.01-.14-2.2.11l-.07,15.3c.05.24.28.32.5.35.31.03,1.33.08,1.43-.27V7.13l.19-.12c.65,1.17,1.13,2.46,1.72,3.67.86,1.77,1.81,3.52,2.72,5.27M107.67,45.75c-.18-.13-1.49-.11-1.69.01-.21.38-.41.94-.55,1.38-1.12,3.52-2.07,7.15-3.17,10.67-.09.29-.24.65-.52.78-.28-.25-.21-.69-.3-1-.58-1.85-1.19-3.7-1.76-5.55-.62-2.01-1.21-4.02-1.81-6.03-.24-.41-1.16-.38-1.6-.33-.77.09-.68.96-.86,1.52-1.12,3.53-2.24,7.02-3.26,10.57-.06.22-.09.98-.33.97l-.21-.18c-.87-3.06-1.87-6.08-2.81-9.11-.25-.8-.44-1.74-.69-2.54-.07-.22-.39-1.07-.53-1.16-.21-.14-1.63-.14-1.8.03-.26.35.05.59.14.86.96,2.97,1.87,5.96,2.84,8.92.62,1.89,1.35,3.75,1.85,5.68.19.34,1.44.32,1.81.23.52-.11.7-1.41.84-1.85.9-2.82,1.86-5.67,2.73-8.49.09-.29.54-2.26.64-2.32.04-.03.18,0,.23.03.16.1.6,2.03.71,2.37.23.74.54,1.48.77,2.23.72,2.33,1.33,5.01,2.2,7.26.08.2.33.72.53.78.21.06,1.35.04,1.54-.04.13-.05.2-.16.27-.27.27-.49.49-1.53.67-2.09,1.36-4.1,2.64-8.21,4-12.3.1-.31.54-.74.13-1.04M145.32,37.88c.26-.44-.22-.62-.46-.93-.25-.31-1.17-1.51-1.5-1.57-.57-.11-1.1.7-1.65.96-5.44,2.58-8.48-4.36-4.61-7.14,1.5-1.08,3.53-.95,4.99.16.47.35.84,1.1,1.47.69l1.69-2c.34-.59-.45-1.09-.85-1.38-1.85-1.32-3.96-1.79-6.24-1.56-6.56.65-9.28,9.06-4.29,13.39,2.98,2.59,7.14,2.49,10.33.33.19-.13,1.05-.8,1.13-.94M155.96,33.53c-.32-.7-.65-1.66-.96-2.42-.13-.33-.26-1.33-.72-1.19l-1.73,4.32c.06.17.17.19.33.21.96.13,2.23-.09,3.22-.02.5-.29,0-.6-.14-.91M159.27,40.45c-.96-.09-.82-.7-1.08-1.39-.16-.44-.4-.86-.51-1.34l-.16-.14-6.24-.04c-.11.03-.14.1-.19.19-.3.57-.64,2.43-1.19,2.65-.3.12-2.71.1-3.18.06-.44-.04-.71-.12-.56-.64.03-.11.22-.24.28-.41,1.91-4.59,3.97-9.12,6.02-13.66.08-.12.22-.16.36-.18.56-.1,2.7-.09,3.29-.02.21.02.43.11.57.28.68,1.72,1.47,3.4,2.2,5.1,1.19,2.77,2.29,5.62,3.54,8.38.13.29.42.39.35.8-.05.28-.34.33-.57.35-.74.07-2.2.07-2.93,0M92,25.96l.08,14.31.5.19c3.51-.22,7.38.29,10.85,0,.39-.03.6-.07.65-.5.04-.32.04-2.21-.06-2.4-.1-.21-.38-.23-.6-.25-2.26-.19-4.79.15-7.08,0-.31-.02-.32-.17-.35-.42-.04-.38-.06-1.66,0-2,.03-.15.15-.27.28-.33l6.44-.02c.61-.24.35-.66.34-1.11,0-.33,0-.67,0-1,0-.38.22-.67-.29-.95l-6.6-.09s-.12-.1-.15-.16c-.07-.16-.08-1.93-.04-2.19.03-.23.1-.34.35-.35,2.19-.13,4.61.19,6.77,0,1.12-.09.73-.58.73-1.34,0-.53.29-1.52-.26-1.74l-11.22-.05c-.2.06-.37.18-.37.4M114.47,28.72c-.91-.17-2.09.04-3.03-.02l-.17.14.02,8.13c.09.19.25.23.44.25,1.07.13,2.85.07,3.81-.42,3.23-1.63,2.64-7.4-1.08-8.08M114.2,25.38c3.69.19,7.15,2.78,7.42,6.65.3,4.38-2.09,7.48-6.36,8.33-2.36-.01-5.12.3-7.46.09-.2-.02-.36-.03-.5-.19l-.08-14.38c0-.22.2-.37.37-.48l6.6-.02ZM84.32,25.19l-3.84,8.3c-.46.38-.54-.43-.68-.71-.87-1.75-1.63-3.6-2.46-5.38-.33-.71-.69-1.42-1.01-2.14-.12-.13-.25-.17-.42-.19-.72-.08-2.92-.1-3.62,0-.3.04-.39.22-.42.5l.02,14.51c.08.31.28.34.56.36.56.05,2.09.07,2.61,0,.12-.02.4-.16.43-.26v-8.53s.08-.24.19-.19c.23.09.64,1.46.77,1.77.71,1.61,1.42,3.23,2.18,4.81.24.5.11.85.82.94.4.05,1.85.06,2.17-.13.25-.15.25-.53.37-.79.18-.38.3-.72.46-1.08l2.54-5.69.16.22.05,8.63c.06.14.18.25.33.28.39.07,2.18.05,2.61,0,.38-.05.6-.24.59-.64v-14.07c-.03-.39-.07-.6-.5-.65-.8-.09-2.65-.08-3.47,0-.16.01-.29.01-.42.12M59.24,48.03c-.84.62-1.56,1.37-2.44,1.94-4.73,3.09-8.78,3.36-14.29,2.54-4.7-.71-9.36-1.74-14.09-2.3-.98-.11-3.21-.22-4.13-.06-.92.15-1.52,1.17-1.8,1.96-.47,1.3,0,2.9-.8,4.12-.29.44-1.36,1.05-1.88,1.12-1.89.26-5.78-1.2-7.57-1.95-.91-.39-1.84-.97-2.73-1.35-.26-.11-.91-.35-.8.18.06.27,1.73,1.8,2.06,2.09,4.23,3.73,9.82,6.57,15.37,7.55.84.15,1.71.15,2.55.25v.31s6.46,0,6.46,0v-.31c.93-.11,1.93-.09,2.85-.26,7.18-1.37,14.03-5.45,18.69-11.07.72-.86,2.92-3.72,3.2-4.65.2-.69-.35-.33-.65-.11M31.46,17.89c2.34,1.73,4.52,5.09,7.89,3.8,2.15-.82,3.88-5.35,4.77-7.38,1.04-2.38,1.98-4.78,2.98-7.17.26-.61.99-1.81.99-2.4,0-.68-.39-.61-.78-.84C42.11.82,35.86-.23,29.84.04,19.79.49,10.08,6.61,4.79,15.06.61,21.73-.46,28.5.16,36.33c.19,2.35,1.28,4.38,3.73,2.5,2.69-2.07,5.68-7.06,7.78-9.91,4.16-5.66,11.72-16.98,19.79-11.03M51.46,6.52c-.23-.15-.5-.27-.79-.18-.22.07-.27.57-.28.79-.35,4.44-.54,8.87-1.17,13.29-.62,4.37-1.52,9.42-3.21,13.47-.89,2.14-2.02,4.66-4.74,4.56-5.72-.21-10.85-7.95-13.92-12.15-.73-.99-2.73-4.17-3.81-4.49-.31-.09-.57-.03-.87.06-1.74.53-4.1,2.85-5.33,4.21-5.01,5.57-10.87,15.15-10.96,22.79,0,.56.05,1.61.16,2.15.04.19.09.39.22.55h.24l.13-.25c.63-4.25,3.53-14.58,7.5-16.71,3.15-1.69,4.22,2.01,5.33,4.08,3.02,5.64,6.51,9.31,13.23,10.07,9.28,1.05,19.42-1.4,25.8-8.48,1.9-2.11,5.13-6.6,5.08-9.46-.13-7.01-3.22-14.46-7.81-19.71-1.21-1.39-3.3-3.56-4.81-4.57M175.16,37.14v3.23c-.25-.04-.48.07-.73.08-3.07.18-6.35-.11-9.43-.04l-.27-.19-.04-14.19c-.03-.33.2-.46.5-.5.64-.07,2.28-.07,2.92,0,.19.02.5.08.56.28l.05,10.94.15.23,6.27.15Z"/>
    </g>
  </g>
</svg>