<?xml version="1.0" encoding="UTF-8"?>
<svg id="Ebene_1" xmlns="http://www.w3.org/2000/svg" version="1.1" viewBox="0 0 85 85">
  <!-- Generator: Adobe Illustrator 29.6.1, SVG Export Plug-In . SVG Version: 2.1.1 Build 9)  -->
  <defs>
    <linearGradient id="gradientBlue" x1="0%" y1="0%" x2="100%" y2="0%">
      <stop offset="0%" style="stop-color:#004F70;stop-opacity:1" />
      <stop offset="100%" style="stop-color:#009BD2;stop-opacity:1" />
    </linearGradient>
  </defs>
  <path d="M42.5,0C19.028,0,0,19.028,0,42.5s19.028,42.5,42.5,42.5,42.5-19.028,42.5-42.5S65.972,0,42.5,0ZM42.5,79.809c-6.396,0-12.414-1.61-17.675-4.446,9.212-2.689,27.889-7.655,47.085-9.905-6.829,8.735-17.463,14.351-29.41,14.351ZM22.523,74.014c-10.418-6.618-17.332-18.258-17.332-31.514C5.191,21.895,21.895,5.191,42.5,5.191s37.309,16.704,37.309,37.309c0,7.712-2.34,14.877-6.348,20.825-21.257,2.3-42.201,8.078-50.938,10.689Z" fill="url(#gradientBlue)"/>
  <path d="M32.186,20.809c.235-.895.387-1.65.518-2.493h.024c.102.849.244,1.602.442,2.491l.813,3.707h1.533l2.119-7.872h-1.463l-.817,3.557c-.206.96-.395,1.857-.533,2.728h-.025c-.117-.853-.285-1.733-.476-2.662l-.778-3.623h-1.512l-.846,3.558c-.228.994-.443,1.934-.569,2.757h-.026c-.132-.78-.317-1.781-.511-2.739l-.749-3.576h-1.532l1.921,7.872h1.553l.914-3.705Z" fill="url(#gradientBlue)"/>
  <path d="M40.555,24.642c1.452,0,2.917-.937,2.917-3.027,0-1.724-1.131-2.916-2.82-2.916-1.712,0-2.938,1.149-2.938,3.014,0,1.822,1.239,2.929,2.841,2.929ZM40.61,19.744c.991,0,1.386,1.02,1.386,1.914,0,1.144-.572,1.94-1.395,1.94-.866,0-1.412-.827-1.412-1.921,0-.948.414-1.933,1.421-1.933Z" fill="url(#gradientBlue)"/>
  <path d="M44.513,24.514h1.437v-2.949c0-.154.012-.306.036-.433.129-.652.604-1.088,1.288-1.088.173,0,.298.015.42.041v-1.354c-.114-.026-.196-.031-.337-.031-.612,0-1.274.408-1.554,1.209h-.04l-.053-1.081h-1.244c.031.507.047,1.067.047,1.828v3.858Z" fill="url(#gradientBlue)"/>
  <rect x="48.505" y="16.222" width="1.437" height="8.292" fill="url(#gradientBlue)"/>
  <path d="M53.439,24.642c.819,0,1.505-.392,1.844-1.028h.026l.064.9h1.278c-.026-.386-.047-1.012-.047-1.595v-6.697h-1.435v3.218h-.023c-.254-.419-.814-.741-1.591-.741-1.366,0-2.554,1.132-2.546,3.037,0,1.748,1.074,2.906,2.43,2.906ZM53.903,19.812c.645,0,1.107.456,1.234,1.01.025.116.032.26.032.375v.851c0,.151-.01.292-.043.42-.144.622-.653,1.023-1.239,1.023-.905,0-1.422-.763-1.422-1.808,0-1.054.512-1.871,1.438-1.871Z" fill="url(#gradientBlue)"/>
  <path d="M25.572,35.198c.743-.678,1.224-1.721,1.224-3.132,0-1.336-.467-2.274-1.232-2.896-.724-.603-1.729-.91-3.204-.91-.849,0-1.65.065-2.29.169v7.737c.473.06,1.106.103,1.942.103,1.527,0,2.771-.362,3.56-1.071ZM21.505,29.463c.209-.044.53-.084.98-.084,1.804,0,2.802,1,2.795,2.737,0,1.993-1.11,3.028-2.974,3.019-.294,0-.599-.004-.801-.039v-5.633Z" fill="url(#gradientBlue)"/>
  <path d="M28.619,28.139c-.482,0-.805.339-.804.777,0,.429.311.776.787.776.508,0,.82-.347.818-.776-.005-.442-.313-.777-.801-.777Z" fill="url(#gradientBlue)"/>
  <rect x="27.899" y="30.507" width="1.437" height="5.686" fill="url(#gradientBlue)"/>
  <path d="M32.156,36.193v-2.949c0-.154.013-.306.037-.433.128-.652.603-1.088,1.287-1.088.173,0,.298.015.421.041v-1.354c-.115-.026-.197-.031-.337-.031-.613,0-1.275.408-1.555,1.209h-.04l-.053-1.081h-1.243c.03.507.046,1.067.046,1.828v3.858h1.437Z" fill="url(#gradientBlue)"/>
  <path d="M39.584,33.144c0-1.246-.6-2.765-2.446-2.765-1.826,0-2.777,1.485-2.777,3.054,0,1.742,1.08,2.883,2.923,2.883.825,0,1.499-.155,1.985-.361l-.213-.99c-.434.16-.906.264-1.567.264-.919,0-1.715-.451-1.753-1.481h3.798c.027-.123.05-.336.05-.604ZM35.733,32.746c.064-.582.432-1.386,1.316-1.386.961,0,1.19.859,1.184,1.386h-2.5Z" fill="url(#gradientBlue)"/>
  <path d="M40.321,33.408c0,1.764,1.147,2.908,2.927,2.908.713,0,1.306-.153,1.603-.294l-.193-1.067c-.281.117-.636.224-1.128.224-.978,0-1.743-.669-1.743-1.835-.005-1.042.643-1.843,1.739-1.843.511,0,.855.109,1.086.222l.254-1.081c-.328-.144-.856-.26-1.386-.26-1.998,0-3.159,1.324-3.159,3.026Z" fill="url(#gradientBlue)"/>
  <path d="M49.039,31.578v-1.071h-1.366v-1.629l-1.407.341v1.288h-.81v1.071h.81v2.674c0,.745.141,1.268.449,1.595.267.288.706.468,1.234.468.453,0,.829-.067,1.045-.147l-.029-1.094c-.128.034-.312.062-.558.062-.549,0-.734-.353-.734-1.049v-2.509h1.366Z" fill="url(#gradientBlue)"/>
  <path d="M52.462,30.378c-1.712,0-2.938,1.149-2.938,3.014,0,1.822,1.239,2.929,2.841,2.929,1.452,0,2.917-.937,2.917-3.027,0-1.724-1.131-2.916-2.82-2.916ZM52.411,35.277c-.866,0-1.411-.827-1.411-1.921,0-.948.413-1.933,1.42-1.933.991,0,1.386,1.02,1.386,1.914,0,1.144-.572,1.94-1.395,1.94Z" fill="url(#gradientBlue)"/>
  <path d="M56.323,32.335v3.858h1.437v-2.949c0-.154.012-.306.037-.433.128-.652.603-1.088,1.287-1.088.173,0,.298.015.42.041v-1.354c-.114-.026-.196-.031-.337-.031-.612,0-1.274.408-1.554,1.209h-.04l-.053-1.081h-1.244c.031.507.047,1.066.047,1.828Z" fill="url(#gradientBlue)"/>
  <path d="M63.269,33.544c-.107.367-.213.795-.301,1.114h-.034c-.084-.316-.207-.751-.32-1.103l-1.023-3.048h-1.583l2.087,5.221c.059.134.075.218.075.28,0,.07-.034.154-.09.252-.199.391-.515.727-.789.907-.288.203-.588.332-.829.392l.324,1.211c.357-.047.942-.235,1.506-.727.669-.59,1.195-1.533,1.975-3.656l1.422-3.88h-1.531l-.889,3.037Z" fill="url(#gradientBlue)"/>
  <path d="M20.009,42.059c-1.711,0-2.938,1.148-2.938,3.013,0,1.822,1.239,2.929,2.841,2.929,1.452,0,2.917-.937,2.917-3.027,0-1.724-1.131-2.915-2.82-2.915ZM19.958,46.957c-.866,0-1.411-.827-1.411-1.921,0-.948.413-1.933,1.421-1.933.99,0,1.385,1.02,1.385,1.914,0,1.144-.571,1.94-1.395,1.94Z" fill="url(#gradientBlue)"/>
  <path d="M24.042,47.873h1.437v-4.615h1.232v-1.071h-1.242v-.297c0-.696.238-1.295.948-1.295.267,0,.456.046.612.103l.101-1.105c-.225-.077-.531-.141-.912-.141-.498,0-1.066.149-1.486.549-.492.467-.69,1.208-.69,1.944v.242h-.769v1.071h.769v4.615Z" fill="url(#gradientBlue)"/>
  <path d="M36.814,41.35h.032c-.005,1.072.046,2.295.094,3.311l.152,3.212h1.4l-.452-7.872h-1.862l-1.091,3.155c-.304.926-.574,1.888-.785,2.748h-.035c-.188-.877-.44-1.811-.723-2.742l-1.024-3.161h-1.887l-.523,7.872h1.339l.175-3.164c.06-1.071.107-2.329.141-3.359h.025c.207.99.488,2.06.796,3.07l1.042,3.36h1.104l1.155-3.407c.339-.996.667-2.058.927-3.023Z" fill="url(#gradientBlue)"/>
  <path d="M44.662,44.824c0-1.246-.601-2.765-2.446-2.765-1.827,0-2.777,1.485-2.777,3.054,0,1.742,1.079,2.883,2.923,2.883.824,0,1.498-.155,1.984-.361l-.212-.99c-.434.16-.907.263-1.567.263-.919,0-1.716-.45-1.754-1.48h3.798c.028-.123.051-.337.051-.604ZM40.812,44.426c.064-.582.431-1.386,1.315-1.386.962,0,1.19.859,1.184,1.386h-2.499Z" fill="url(#gradientBlue)"/>
  <path d="M49.674,46.972h.026l.064.9h1.278c-.025-.386-.046-1.012-.046-1.595v-6.697h-1.435v3.219h-.024c-.254-.42-.813-.741-1.591-.741-1.365,0-2.554,1.132-2.545,3.037,0,1.747,1.073,2.905,2.429,2.905.82,0,1.505-.392,1.844-1.028ZM48.278,46.849c-.905,0-1.422-.762-1.422-1.808,0-1.054.513-1.871,1.438-1.871.645,0,1.107.456,1.234,1.01.025.117.033.26.033.375v.852c0,.15-.011.291-.044.419-.144.622-.653,1.023-1.239,1.023Z" fill="url(#gradientBlue)"/>
  <rect x="52.389" y="42.186" width="1.437" height="5.686" fill="url(#gradientBlue)"/>
  <path d="M53.109,39.818c-.482,0-.805.339-.804.777-.001.429.311.776.787.776.508,0,.82-.347.818-.776-.005-.442-.313-.777-.801-.777Z" fill="url(#gradientBlue)"/>
  <path d="M58.057,43.18c.511,0,.855.109,1.086.222l.255-1.081c-.328-.143-.856-.259-1.387-.259-1.997,0-3.159,1.323-3.159,3.025,0,1.765,1.148,2.908,2.928,2.908.712,0,1.305-.152,1.602-.293l-.193-1.068c-.28.118-.635.224-1.127.224-.979,0-1.744-.668-1.744-1.834-.005-1.043.644-1.844,1.739-1.844Z" fill="url(#gradientBlue)"/>
  <path d="M64.764,44.456c0-1.248-.52-2.398-2.341-2.398-.894,0-1.629.244-2.058.505l.284.933c.387-.245.971-.424,1.527-.424,1.005-.004,1.153.617,1.153.991v.094c-2.092-.008-3.368.718-3.368,2.153,0,.867.638,1.691,1.79,1.691.735,0,1.329-.313,1.673-.762h.035l.098.634h1.295c-.062-.352-.088-.853-.088-1.37v-2.047ZM63.367,45.874c0,.099-.009.213-.04.312-.138.417-.551.787-1.124.787-.453,0-.818-.262-.818-.819,0-.866.969-1.08,1.982-1.066v.786Z" fill="url(#gradientBlue)"/>
  <rect x="66.116" y="39.58" width="1.437" height="8.292" fill="url(#gradientBlue)"/>
  <path d="M26.966,54.97c-1.049-.401-1.504-.685-1.504-1.289,0-.463.387-.948,1.299-.948.738,0,1.286.225,1.57.374l.343-1.16c-.409-.208-1.032-.39-1.884-.39-1.705,0-2.782.971-2.782,2.261,0,1.128.83,1.825,2.128,2.286.995.362,1.393.712,1.393,1.306,0,.644-.513,1.075-1.429,1.075-.732,0-1.437-.234-1.9-.501l-.318,1.19c.43.263,1.293.5,2.125.5,2.029,0,2.981-1.098,2.981-2.364,0-1.132-.656-1.818-2.022-2.34Z" fill="url(#gradientBlue)"/>
  <path d="M32.961,54.859c.511,0,.855.109,1.086.222l.255-1.081c-.328-.143-.856-.259-1.387-.259-1.997,0-3.159,1.323-3.159,3.025,0,1.765,1.148,2.908,2.928,2.908.712,0,1.305-.152,1.602-.293l-.193-1.068c-.28.118-.635.224-1.127.224-.979,0-1.744-.668-1.744-1.834-.005-1.043.644-1.844,1.739-1.844Z" fill="url(#gradientBlue)"/>
  <path d="M38.334,53.738c-.356,0-.702.094-.981.253-.296.162-.535.383-.714.651h-.023v-3.382h-1.437v8.292h1.437v-3.401c0-.156.014-.311.062-.434.158-.429.55-.806,1.113-.806.794,0,1.091.627,1.091,1.451v3.19h1.437v-3.348c0-1.825-1.02-2.466-1.985-2.466Z" fill="url(#gradientBlue)"/>
  <path d="M44.286,53.738c-1.711,0-2.938,1.148-2.938,3.013,0,1.823,1.24,2.93,2.841,2.93,1.452,0,2.917-.937,2.917-3.028,0-1.723-1.13-2.915-2.82-2.915ZM44.236,58.636c-.867,0-1.412-.827-1.412-1.921,0-.948.413-1.933,1.421-1.933.991,0,1.386,1.021,1.386,1.914,0,1.144-.572,1.94-1.395,1.94Z" fill="url(#gradientBlue)"/>
  <path d="M50.793,53.738c-1.711,0-2.938,1.148-2.938,3.013,0,1.823,1.24,2.93,2.841,2.93,1.453,0,2.917-.937,2.917-3.028,0-1.723-1.13-2.915-2.82-2.915ZM50.743,58.636c-.867,0-1.412-.827-1.412-1.921,0-.948.413-1.933,1.421-1.933.991,0,1.385,1.021,1.385,1.914,0,1.144-.571,1.94-1.394,1.94Z" fill="url(#gradientBlue)"/>
  <rect x="54.686" y="51.26" width="1.437" height="8.292" fill="url(#gradientBlue)"/>
  <path d="M59.669,56.158c-.718-.262-.991-.436-.991-.796,0-.35.284-.603.795-.603.502,0,.962.192,1.201.327l.284-1.009c-.333-.183-.88-.339-1.505-.339-1.325,0-2.155.779-2.155,1.779-.005.673.458,1.279,1.569,1.66.698.249.932.444.932.829,0,.373-.282.638-.913.638-.514,0-1.132-.218-1.449-.414l-.289,1.046c.418.234,1.043.398,1.73.398,1.499,0,2.306-.747,2.306-1.784-.005-.838-.482-1.366-1.515-1.732Z" fill="url(#gradientBlue)"/>
</svg>