<?xml version="1.0" encoding="UTF-8"?>
<svg id="Ebene_1" xmlns="http://www.w3.org/2000/svg" version="1.1" viewBox="0 0 85 63">
  <!-- Generator: Adobe Illustrator 29.6.1, SVG Export Plug-In . SVG Version: 2.1.1 Build 9)  -->
  <defs>
    <linearGradient id="gradientBlue" x1="0%" y1="0%" x2="100%" y2="0%">
      <stop offset="0%" style="stop-color:#004F70;stop-opacity:1" />
      <stop offset="100%" style="stop-color:#009BD2;stop-opacity:1" />
    </linearGradient>
  </defs>
  <path d="M72.992,27.752c-.776.162-2.229,1.855-2.647,2.537-.914,1.492-1.463,3.667-1.655,5.398-.024.212-.118,1.037-.096,1.174.021.134.1.238.225.29.808-.374,1.698-.589,2.51-.95,2.597-1.156,4.218-3.971,4.118-6.797-.04-1.142-1.411-1.87-2.455-1.652M50.235,12.354c-.322.013-.583-.082-.856.121-.101.075-.595.865-.676,1.023-.07.137-.113.221-.083.384.132.146,1.484-1.008,1.571-1.191.053-.112.053-.218.044-.337M44.115,12.566c-.097.346,0,1.806,0,2.294,0,.355,1.091.06,1.318.043.408-.031.828.059,1.23-.045.317-.143,1.562-1.967,1.536-2.291-.004-.049-.01-.094-.04-.135l-3.873-.035c-.039.018-.163.14-.171.169M39.482,12.353l-.198.225c-.03.155,1.218,2.157,1.436,2.276.138.075.72.237.909.282.172.04.948.189,1.076.185.261-.01.553-.173.552-.461,0-.078-.077-.144-.077-.17v-2.209l-.128-.128h-3.57ZM38.929,13.967c.105-.108-.664-1.437-.801-1.535-.167-.12-.945-.146-.983.05-.062.312,1.165,1.203,1.442,1.361.11.064.167.172.342.124M51.234,11.397c.235-.227.926-2.182.858-2.469-.075-.316-1.294-.287-1.543-.212-.43.129-.274.873-.334,1.196-.044.237-.423,1.383-.401,1.455.064.219,1.258.185,1.42.03M44.327,8.7c-.05.055-.138.105-.168.171-.075.16-.084,1.979-.048,2.254.037.281.104.346.383.382.787.104,3.017.082,3.833,0,.466-.046.45-.199.591-.599.214-.61.467-1.639.169-2.209h-4.76ZM38.462,8.7c-.257,0,.025,1.417.07,1.629.082.388.156.894.44,1.175h4.08c.226,0,.128-.414.128-.468v-2.209l-.128-.127h-4.59ZM35.487,8.7c-.327,0,.056,1.288.124,1.491.363,1.09.53,1.423,1.75,1.317.71-.062.235-.543.146-1.003-.1-.514-.157-1.054-.209-1.576-.02-.064-.164-.229-.196-.229h-1.615ZM49.895,5.216l.552,2.549h1.53c.225,0-.017-1.029-.065-1.209-.115-.433-.333-1-.614-1.34h-1.403ZM44.327,7.765h4.76c.383-.278-.176-2.383-.381-2.508h-4.421c-.104.059-.146.145-.168.259-.043.231-.029,1.927.042,2.078.018.039.14.163.168.171M39.142,5.216c-.274,0-.749,1.949-.729,2.253.006.09.046.296.135.296h4.504l.128-.128v-2.294l-.128-.127h-3.91ZM35.36,7.765h1.827c.399-.684.31-1.619.711-2.352l-.116-.197h-1.615c-.43.217-1.005,2.351-.807,2.549M50.49,4.281c.009-.12.009-.226-.045-.338-.105-.222-1.489-1.381-1.74-1.49-.153-.067-.158-.022-.256.088.273.335.802,1.671,1.15,1.739.261.051.615-.031.891.001M39.609,2.072c-.534-.003-2.798,1.683-2.719,2.08.036.183,1.289.179,1.444.086.154-.092.435-.769.565-.965.119-.181.85-1.051.71-1.201M48.195,4.281c.039-.24-.035-.391-.124-.599-.139-.325-1.2-1.967-1.446-2.123-.278-.176-2.113-.572-2.338-.466-.038.018-.172.16-.172.172v2.804c0,.015.197.212.212.212h3.868ZM39.653,4.281h3.399l.128-.127V1.18c0-.092-.186-.127-.285-.123-.211.009-1.408.241-1.548.33-.122.077-.819,1.052-.956,1.253-.314.459-.602.948-.854,1.443l.116.198ZM27.965,62.145c-.047-.152-.09-.29-.079-.454.058-.868.317-1.865.418-2.734.024-.209-.012-.426,0-.635.505.214.906.63,1.427.825.633.237,1.231.335,1.805-.101.501-.38,1.116-1.862,1.334-2.49.317-.911.419-1.872.703-2.79.019-.157-.075-.31-.229-.356-.357-.106-1.878-.029-2.366-.02-10.157.188-20.346.04-30.515.092l-.451-.101-.013-.328h33.532c.333-.675.537-1.601.703-2.356,1.214-5.536,1.632-11.248,2.325-16.879.117-.954.467-2.244.492-3.165.004-.138-.058-.242-.077-.371h-2.253c-.065,0-.257.3-.279.4-.143.631-.176,1.512-.294,2.17-.913,5.06-2.089,11.155-6.139,14.681-1.437,1.25-3.254,2.499-4.848.678-1.482-1.693-1.021-3.572-.893-5.568.044-.688-.072-1.244-.17-1.911-.088.013-.207-.024-.281,0-.072.024-.583,1.12-.668,1.304-1.118,2.421-2.211,6.268-5.166,6.986-.457.111-.925.251-1.282-.085-2.921-2.748-2.074-8.348-1.078-11.79.858-2.963,2.572-5.427,3.892-8.18-.011-.152-.079-.187-.219-.214-.413-.079-1.648-.029-2.128-.003-2.033.11-3.388.579-4.183,2.535-.052.128.051.231-.191.187l.973-4.423c.056-.498,1.108-.636,1.536-.674,1.667-.147,3.448.659,5.146.216.275-.071.487-.258.759-.302-.101,1.783-1.414,3.287-2.169,4.841-1.721,3.542-3.049,10.605-1.415,14.249.132.293.774,1.409.986,1.563.645.468,2.004-.795,2.381-1.285,3.174-4.129,3.986-11.253,4.713-16.277.112-.778.16-1.578.277-2.356.066-.202,2.018-.695,2.368-.735-.334,2.252-.918,4.46-1.337,6.693-.648,3.449-1.587,9.122-.645,12.495.478,1.713,1.904,2.106,3.299,1.034,1.631-1.253,3.554-5.484,4.082-7.475.625-2.361.974-6.757.448-9.118-.212-.957-1.709-1.307-2.532-.995-.107-.103,1.102-2.51,1.279-2.672.095-.088.504-.276.639-.297,1.363-.213,1.796.513,2.288,1.611.16.355.49,1.596.744,1.722.305.151,1.375-.283,1.707-.464,2.856-1.562,1.642-6.042,2.395-8.651.18-.622.84-1.991,1.197-2.543.208-.321,1.207-1.235,1.226-1.324.02-.09-.006-.201,0-.297-3.765-.659-7.082-4.346-6.789-8.274.488-6.55,8.306-9.341,13.757-6.806,6.308,2.933,6.691,10.941.502,14.262-.365.196-1.423.564-1.611.77-.292.319-.396,1.385-.419,1.832-.13.035-.142-.034-.214-.084-.498-.342-1.068-1.089-1.719-1.255-.262-.067-1.894-.056-2.088.06-.105.062-.59.785-.689.947-1.536,2.517-1.856,6.789-2.174,9.723-.02.183-.097.846-.004.934.115.088.243.112.384.128,2.349.27,3.394-1.044,5.402-1.826.401-.156.818-.353,1.264-.291.233,1.154.212,2.34.083,3.507-.189,1.703-.863,3.563-.674,5.283.014.128.008.21.131.291.216-.004,2.035-3.156,2.336-3.612,1.283-1.947,3.022-4.309,5.274-5.178.323-.125,1.466-.588,1.595-.154.2.67.153,2.776.102,3.549-.095,1.467-.541,2.998-.597,4.501-.006.165-.065.782.214.725,2.237-3.799,4.902-8.156,9.477-9.308.191.091.411.612.407.829-.018.991-.419,2.478-.565,3.519-.719,5.126-1.453,10.3-2.223,15.459-.037.339.195.599.512.679.979.25,2.237-1.441,2.869-2.065.861-6.069.295-14.029,6.563-17.4,2.163-1.164,4.45-1.78,5.318,1.149.559,1.889.194,3.868-.942,5.434-1.516,2.091-3.932,3.512-6.33,4.378-.328.119-1.869.485-1.939.697-.092,2.254-.919,4.86.256,6.939.282.499,1.24,1.597,1.81,1.675,2.469.337,4.045-1.847,5.698-3.233.096-.08.138-.206.298-.168-.856,1.551-1.97,3.214-3.408,4.282-1.253.933-3.443,1.808-4.926,1.031-1.292-.678-1.536-2.371-2.204-3.489-.068-.114-.145-.3-.298-.301-.179,0-1.549,1.502-1.828,1.748-.603.532-2.343,1.843-3.103,1.915-.982.091-1.01-.672-.982-1.41.11-2.875,1.365-6.701,1.936-9.62.462-2.365,1.244-6.418.962-8.734-.011-.091.004-.195-.084-.256-1.641-.248-2.925.996-3.913,2.132-3.247,3.735-4.358,7.326-5.092,12.159-.195,1.284-.242,2.608-.444,3.89-.073.467-.256.948-.26,1.439l-.127.127-1.984.438,1.949-10.924.515-4.413.255-4.409c-.382-1.121-1.57-.612-2.212-.012-3.872,3.619-5.848,9.501-6.619,14.627l-.508,4.658-1.88.473c.454-4.915,1.285-9.769,1.944-14.667.104-1.045.177-2.091.267-3.132.052-.606.58-2.343-.469-2.343-.763,0-.525.849-.552,1.365h-1.572c-.052,0-.268.36-.425.342l-.27-.346c-.504.072-1.214-.087-1.687.003-.1.019-.168.031-.195.144l-3.83,22.703,49.629.01v.34c-16.551.135-33.121.073-49.683.085-.075-.003-.116.043-.169.086-.217.179-.821,2.118-1.007,2.562-.96,2.295-2.458,5.06-5.065,5.727-.256.066-.918-.054-.941.292h-.17Z" fill="url(#gradientBlue)"/>
</svg>