<?xml version="1.0" encoding="UTF-8"?>
<svg id="Ebene_1" xmlns="http://www.w3.org/2000/svg" version="1.1" viewBox="0 0 85 49">
  <!-- Generator: Adobe Illustrator 29.6.1, SVG Export Plug-In . SVG Version: 2.1.1 Build 9)  -->
  <defs>
    <linearGradient id="formGradient" x1="0%" y1="0%" x2="100%" y2="0%">
      <stop offset="0%" style="stop-color:#004F70;stop-opacity:1" />
      <stop offset="100%" style="stop-color:#009BD2;stop-opacity:1" />
    </linearGradient>
  </defs>
  <path d="M7.047,40.218h-1.203l-3.157,7.813h2.064l.578-1.547h3.5l.641,1.547h2.109l-3.484-7.813h-1.048ZM7.047,45.124h-1.203l1.156-3.047.047.141,1.219,2.906h-1.219Z" fill="url(#formGradient)"/>
  <path d="M32.876,43.875c-.265-.172-.907-.454-1.922-.845-.687-.265-1.031-.545-1.031-.843,0-.203.109-.36.312-.468.203-.126.485-.172.829-.172.609,0,1.437.234,2.483.686v-1.516c-.936-.404-1.827-.609-2.655-.609-.891,0-1.626.205-2.156.609-.547.408-.814.954-.814,1.642,0,.812.344,1.437,1.032,1.907.234.155.875.437,1.907.827.687.265,1.031.563,1.031.89,0,.485-.375.719-1.141.719-.437,0-.845-.077-1.234-.218-.391-.157-.876-.422-1.438-.797v1.688c.516.265.906.437,1.187.53.485.157,1.017.236,1.626.236.905,0,1.624-.22,2.172-.642.562-.422.843-1,.843-1.734,0-.797-.344-1.422-1.031-1.89Z" fill="url(#formGradient)"/>
  <path d="M21.47,44.562c0,.657-.205,1.156-.611,1.5-.342.297-.812.438-1.375.438s-1.03-.157-1.39-.484c-.36-.329-.547-.766-.547-1.313v-4.484h-1.953v4.438c0,1.171.375,2.046,1.11,2.655.672.547,1.608.829,2.811.829,1.172,0,2.095-.266,2.767-.766.766-.609,1.141-1.516,1.141-2.718v-4.438h-1.953v4.343Z" fill="url(#formGradient)"/>
  <path d="M45.704,7.499l-3.078,15.86v-.015c-.283.984-.704,1.514-1.375,1.843-.642.313-1.984.876-4.672.969-1.236.031-3.359-.141-4.626-.782-.734-.375-.827-1.03-.702-1.86.14-.702,3.156-16.015,3.156-16.015h-6.437s-2.642,13.422-3.313,16.781c-.094.485-.126.75-.126.75-.093.782-.39,3.125,2.016,5.173,2.297,1.922,5.828,2.234,9.125,2.265,3.297.048,7.609-.687,10.203-2.859,2.125-1.829,2.531-3.266,2.797-4.281l.25-1.11,3.187-16.719h-6.405Z" fill="url(#formGradient)"/>
  <polygon points="25.611 7.579 1.172 7.579 0 13.515 9.095 13.515 5.453 32.126 11.97 32.126 15.594 13.515 24.469 13.515 25.611 7.579" fill="url(#formGradient)"/>
  <polygon points="53.579 0 29.422 0 28.61 4.156 52.781 4.156 53.579 0" fill="url(#formGradient)"/>
  <polygon points="61.453 33.578 85 0 77.063 0 63.61 19.202 59.814 7.532 53.078 7.532 61.453 33.578" fill="url(#formGradient)"/>
  <polygon points="37.875 41.64 40.719 41.64 40.719 48.031 42.657 48.031 42.657 41.64 45.484 41.64 45.484 40.218 37.875 40.218 37.875 41.64" fill="url(#formGradient)"/>
  <rect x="60.874" y="40.218" width="1.954" height="7.813" fill="url(#formGradient)"/>
  <path d="M54.563,44.374c.89-.406,1.344-1.046,1.344-1.922,0-.609-.219-1.124-.673-1.546-.483-.469-1.108-.688-1.889-.688h-3.5v7.813h1.953v-3.172h.562c.172,0,.327.047.484.14.25.156.485.423.704.813.342.734.686,1.484,1.015,2.219h2.141c-.391-.844-.782-1.688-1.172-2.532-.298-.578-.625-.953-.969-1.125ZM52.844,43.421h-1.046v-1.781h1.046c.704.015,1.063.313,1.063.891,0,.594-.359.89-1.063.89Z" fill="url(#formGradient)"/>
  <path d="M70.188,40.218h-1.202l-3.157,7.813h2.062l.578-1.547h3.5l.64,1.547h2.11l-3.484-7.813h-1.047ZM70.188,45.124h-1.202l1.155-3.047.047.141,1.219,2.906h-1.219Z" fill="url(#formGradient)"/>
</svg>